<?xml version="1.0" encoding="UTF-8"?>
<svg xmlns="http://www.w3.org/2000/svg" viewBox="0 0 16 16" fill="none">
    <g id="add-time">
        <path opacity="0.2" fill-rule="evenodd" clip-rule="evenodd" d="M14.372 5.97869C13.8971 6.26183 13.3421 6.4245 12.749 6.4245C10.9963 6.4245 9.57544 5.00364 9.57544 3.25092C9.57544 2.65787 9.7381 2.10283 10.0213 1.62795C9.30877 1.38357 8.54439 1.25092 7.74902 1.25092C3.88303 1.25092 0.749023 4.38492 0.749023 8.25092C0.749023 12.1169 3.88303 15.2509 7.74902 15.2509C11.615 15.2509 14.749 12.1169 14.749 8.25092C14.749 7.45555 14.6164 6.69117 14.372 5.97869Z" id="details"></path>
        <path id="base" fill-rule="evenodd" clip-rule="evenodd" d="M12.749 1.09784C13.0038 1.09784 13.2104 1.3044 13.2104 1.55921V2.57526C13.2104 2.6936 13.3063 2.78954 13.4247 2.78954H14.4407C14.6955 2.78954 14.9021 2.99611 14.9021 3.25092C14.9021 3.50573 14.6955 3.71229 14.4407 3.71229H13.4247C13.3063 3.71229 13.2104 3.80823 13.2104 3.92657V4.94262C13.2104 5.19743 13.0038 5.40399 12.749 5.40399C12.4942 5.40399 12.2877 5.19743 12.2877 4.94262V3.92657C12.2877 3.80823 12.1917 3.71229 12.0734 3.71229H11.0573C10.8025 3.71229 10.5959 3.50573 10.5959 3.25092C10.5959 2.99611 10.8025 2.78954 11.0573 2.78954H12.0734C12.1917 2.78954 12.2877 2.6936 12.2877 2.57526V1.55921C12.2877 1.3044 12.4942 1.09784 12.749 1.09784ZM8.72974 4.50262C8.72974 3.95034 8.28202 3.50262 7.72974 3.50262C7.17745 3.50262 6.72974 3.95034 6.72974 4.50262V9.06623C6.72974 9.34991 6.85023 9.62025 7.0612 9.8099L9.19756 11.7304C9.60828 12.0996 10.2405 12.066 10.6098 11.6553C10.979 11.2446 10.9454 10.6123 10.5346 10.2431L8.72974 8.62052V4.50262Z"></path>
    </g>
</svg>