<svg viewBox="0 0 16 16" fill="none" xmlns="http://www.w3.org/2000/svg">
    <g id="base">
        <path d="M7.99983 13.3333C7.41073 13.3333 6.93317 12.8558 6.93317 12.2667C6.93317 11.6776 7.41073 11.2 7.99983 11.2C8.58894 11.2 9.0665 11.6776 9.0665 12.2667C9.0665 12.8558 8.58894 13.3333 7.99983 13.3333Z" />          
        <path d="M7.99983 10.1333C7.41073 10.1333 6.93317 9.65576 6.93317 9.06665V5.86665C6.93317 5.27755 7.41073 4.79999 7.99983 4.79999C8.58894 4.79999 9.0665 5.27755 9.0665 5.86665V9.06665C9.0665 9.65576 8.58894 10.1333 7.99983 10.1333Z" />
    </g>
    <path id="details" opacity="0.2" d="M1.69879 16H14.3056C15.5668 16 16.3871 14.6727 15.8231 13.5447L9.51968 0.937861C8.89444 -0.31262 7.10994 -0.31262 6.4847 0.93786L0.181304 13.5447C-0.382733 14.6727 0.437569 16 1.69879 16Z" />
</svg>
