<svg viewBox="0 0 16 16" fill="none" xmlns="http://www.w3.org/2000/svg">
    <path id="base" fill-rule="evenodd" clip-rule="evenodd" d="M14.3056 16H1.69879C0.437569 16 -0.382733 14.6727 0.181304 13.5447L6.4847 0.93786C7.10994 -0.31262 8.89444 -0.31262 9.51968 0.937861L15.8231 13.5447C16.3871 14.6727 15.5668 16 14.3056 16ZM6.93317 9.06665C6.93317 9.65576 7.41073 10.1333 7.99983 10.1333C8.58894 10.1333 9.0665 9.65576 9.0665 9.06665V5.86665C9.0665 5.27755 8.58894 4.79999 7.99983 4.79999C7.41073 4.79999 6.93317 5.27755 6.93317 5.86665V9.06665ZM6.93317 12.2667C6.93317 12.8558 7.41073 13.3333 7.99983 13.3333C8.58894 13.3333 9.0665 12.8558 9.0665 12.2667C9.0665 11.6776 8.58894 11.2 7.99983 11.2C7.41073 11.2 6.93317 11.6776 6.93317 12.2667Z" />
</svg>
