<svg xmlns="http://www.w3.org/2000/svg" viewBox="0 0 16 17" fill="none">
    <path id="base" d="M10.281 11.2958C10.6542 11.2958 10.9567 11.5984 10.9567 11.9716V11.9716C10.9567 12.3448 10.6542 12.6474 10.281 12.6474H4.75173C2.68116 12.6474 1.00318 10.966 1.00206 8.8954V8.8954C1.00094 6.82915 2.6744 5.15402 4.74065 5.15291L12.3226 5.14882C13.801 5.14802 15 6.34632 15 7.82476V7.82476C15 9.30264 13.8019 10.5007 12.324 10.5007H5.43334C4.54226 10.5007 3.81989 9.77834 3.81989 8.88725V8.88725C3.81989 7.99617 4.54226 7.2738 5.43334 7.2738H10.2076C10.3831 7.2738 10.4708 7.2738 10.5416 7.29767C10.6762 7.3431 10.782 7.44881 10.8274 7.58347C10.8513 7.65425 10.8513 7.742 10.8513 7.91748V7.91748C10.8513 8.09297 10.8513 8.18071 10.8274 8.25149C10.782 8.38615 10.6762 8.49187 10.5416 8.53729C10.4708 8.56116 10.3831 8.56116 10.2076 8.56116H5.55755C5.33941 8.56116 5.16256 8.73801 5.16256 8.95615V8.95615C5.16256 9.17698 5.34361 9.35491 5.5644 9.35108L12.3524 9.23337C13.1125 9.22019 13.7212 8.59715 13.7226 7.83694V7.83694C13.7239 7.07204 13.1051 6.45158 12.3402 6.45158L4.77879 6.45158C3.4422 6.45158 2.3583 7.53196 2.35939 8.86855V8.86855C2.36048 10.2089 3.44809 11.2958 4.78847 11.2958H10.281Z"/>
</svg>
