<?xml version="1.0" encoding="UTF-8"?>
<svg xmlns="http://www.w3.org/2000/svg" viewBox="0 0 16 16" fill="none">
    <path id="base" d="M5.11292 13.9565C4.81418 14.2564 4.32867 14.2564 4.02994 13.9565C3.73763 13.6631 3.73214 13.1903 4.01754 12.8902L4.70476 12.1676C3.37143 12.0147 2.25397 11.4348 1.35238 10.4279C0.450796 9.42105 0 8.22941 0 6.85294C0 5.36176 0.517463 4.09681 1.55238 3.05809C2.5873 2.01937 3.84762 1.5 5.33333 1.5H6.85434C7.27668 1.5 7.61905 1.84237 7.61905 2.26471C7.61905 2.68704 7.27668 3.02941 6.85434 3.02941H5.33333C4.27937 3.02941 3.38095 3.40221 2.6381 4.14779C1.89524 4.89338 1.52381 5.7951 1.52381 6.85294C1.52381 7.79605 1.81905 8.61176 2.40952 9.3C3 9.98823 3.73968 10.4216 4.62857 10.6L4.03616 10.0054C3.74161 9.70977 3.73949 9.23226 4.03142 8.93403C4.32856 8.63047 4.81649 8.62831 5.1163 8.92923L7.26744 11.0883C7.46183 11.2834 7.46183 11.599 7.26744 11.7941L5.11292 13.9565Z"/>
    <path id="details" opacity="0.6" d="M10.8871 1.72488C11.1858 1.42504 11.6713 1.42505 11.9701 1.72488C12.2624 2.01826 12.2679 2.49106 11.9825 2.79116L11.2952 3.51375C12.6286 3.66669 13.746 4.24657 14.6476 5.25346C15.5492 6.26034 16 7.45198 16 8.82846C16 10.3196 15.4825 11.5846 14.4476 12.6233C13.4127 13.662 12.1524 14.1814 10.6667 14.1814H9.14566C8.72332 14.1814 8.38095 13.839 8.38095 13.4167C8.38095 12.9944 8.72332 12.652 9.14566 12.652H10.6667C11.7206 12.652 12.619 12.2792 13.3619 11.5336C14.1048 10.788 14.4762 9.8863 14.4762 8.82846C14.4762 7.88534 14.181 7.06963 13.5905 6.3814C13 5.69316 12.2603 5.2598 11.3714 5.0814L11.9638 5.67599C12.2584 5.97162 12.2605 6.44914 11.9686 6.74737C11.6714 7.05093 11.1835 7.05309 10.8837 6.75217L8.73256 4.59312C8.53817 4.39801 8.53817 4.08243 8.73256 3.88732L10.8871 1.72488Z"/>
</svg>