<svg xmlns="http://www.w3.org/2000/svg" viewBox="0 0 16 16" fill="none">
    <path id="base" d="M4.65608 14.712C3.86241 14.712 3.31384 14.1459 3.31384 13.3114C3.31384 9.28761 3.31384 8.02268 3.31384 4.22526C3.31384 3.94912 3.5377 3.72354 3.81384 3.72354H12.1862C12.4623 3.72354 12.6862 3.94912 12.6862 4.22526C12.6862 8.02268 12.6862 9.28761 12.6862 13.3114C12.6862 14.1459 12.1376 14.712 11.3439 14.712C10.8887 14.712 10.5678 14.5486 10.1768 14.1518L8.2923 12.2774C8.12527 12.1113 7.85561 12.1115 7.68933 12.2784C7.13041 12.8392 5.9746 13.9992 5.82908 14.1459C5.44392 14.5428 5.10544 14.712 4.65608 14.712Z"/>
    <path id="details" opacity="0.6" d="M4.00206 2.97668C3.66237 2.97668 3.42156 2.64521 3.52654 2.32215L3.70923 1.75996C3.91006 1.14196 4.48598 0.723541 5.1358 0.723541H10.8976C11.5615 0.723541 12.1464 1.15993 12.3355 1.79632L12.4953 2.33427C12.5905 2.6548 12.3504 2.97668 12.016 2.97668H4.00206Z"/>
</svg>
