<?xml version="1.0" encoding="UTF-8"?>
<svg xmlns="http://www.w3.org/2000/svg" viewBox="0 0 16 16" fill="none">
            <path id="base" fill-rule="evenodd" clip-rule="evenodd" d="M1.57295 3.23664C1 4.02524 1 5.15016 1 7.4V9C1 11.3318 1 12.4976 1.42162 13.4018C1.86873 14.3606 2.63938 15.1313 3.59822 15.5784C4.50237 16 5.66825 16 8 16C10.3318 16 11.4976 16 12.4018 15.5784C13.3606 15.1313 14.1313 14.3606 14.5784 13.4018C15 12.4976 15 11.3318 15 9V7.4C15 5.15016 15 4.02524 14.4271 3.23664C14.242 2.98196 14.018 2.75799 13.7634 2.57295C12.9748 2 11.8498 2 9.6 2H6.4C4.15016 2 3.02524 2 2.23664 2.57295C1.98196 2.75799 1.75799 2.98196 1.57295 3.23664ZM2.59046 8.98697C2.5 9.23551 2.5 9.5459 2.5 10.1667C2.5 11.4082 2.5 12.029 2.68092 12.5261C2.98422 13.3594 3.64064 14.0158 4.47394 14.3191C4.97102 14.5 5.59179 14.5 6.83333 14.5H9.16667C10.4082 14.5 11.029 14.5 11.5261 14.3191C12.3594 14.0158 13.0158 13.3594 13.3191 12.5261C13.5 12.029 13.5 11.4082 13.5 10.1667C13.5 9.5459 13.5 9.23551 13.4095 8.98697C13.2579 8.57032 12.9297 8.24211 12.513 8.09046C12.2645 8 11.9541 8 11.3333 8H4.66667C4.0459 8 3.73551 8 3.48697 8.09046C3.07032 8.24211 2.74211 8.57032 2.59046 8.98697Z"></path>
            <g opacity="0.6" id="details">
                <path d="M5 0C4.44772 0 4 0.447715 4 1V2.05011C4.53839 2.0069 5.19032 2.00095 6 2.00013V1C6 0.447715 5.55228 0 5 0Z"></path>
                <path d="M12 2.05011C11.4616 2.0069 10.8097 2.00095 10 2.00013V1C10 0.447715 10.4477 0 11 0C11.5523 0 12 0.447715 12 1V2.05011Z"></path>
            </g>
    
    
</svg>