<svg viewBox="0 0 16 16" fill="none" xmlns="http://www.w3.org/2000/svg">
    <path id="base" fill-rule="evenodd" clip-rule="evenodd" d="M14.6 1.7C15.0418 2.03137 15.1314 2.65817 14.8 3.1L11.2781 7.79584C10.4006 8.96592 8.71038 9.13606 7.61721 8.16436L5.65207 6.41756C5.42193 6.213 5.06336 6.26306 4.89805 6.52283L2.34367 10.5369C2.04716 11.0028 1.42907 11.1402 0.963129 10.8437C0.497187 10.5472 0.359834 9.92906 0.656343 9.46312L3.21073 5.44908C4.03728 4.15022 5.83012 3.89992 6.9808 4.92275L8.94594 6.66954C9.16457 6.86388 9.50261 6.82985 9.67812 6.59584L13.2 1.9C13.5314 1.45817 14.1582 1.36863 14.6 1.7Z" />
    <path id="details" opacity="0.6" fill-rule="evenodd" clip-rule="evenodd" d="M14.6247 7.21911C15.0559 7.56412 15.1259 8.19341 14.7808 8.62467L11.7678 12.3909C10.8735 13.5089 9.22479 13.6489 8.15475 12.6977L6.20479 10.9644C5.96879 10.7546 5.59982 10.8135 5.44072 11.0862L2.86376 15.5038C2.58548 15.9809 1.97316 16.142 1.49611 15.8638C1.01906 15.5855 0.85792 14.9732 1.1362 14.4961L3.71316 10.0785C4.50868 8.71471 6.3535 8.42071 7.53352 9.46961L9.48348 11.2029C9.69749 11.3931 10.0272 11.3651 10.2061 11.1416L13.2191 7.37528C13.5641 6.94402 14.1934 6.8741 14.6247 7.21911Z" />
</svg>
