<svg viewBox="0 0 16 16" fill="none" xmlns="http://www.w3.org/2000/svg">
    <path id="base" fill-rule="evenodd" clip-rule="evenodd" d="M2.19797 14.198C1.52843 13.5284 1.50598 12.45 2.14706 11.7532L11.2533 1.85511C11.9333 1.11601 13.0919 1.09188 13.802 1.80204C14.4716 2.47157 14.494 3.54997 13.853 4.2468L4.74671 14.1449C4.06673 14.884 2.90813 14.9081 2.19797 14.198Z" />
    <g id="details" opacity="0.6">
        <path d="M1 2.75C1 1.7835 1.7835 1 2.75 1C3.7165 1 4.5 1.7835 4.5 2.75C4.5 3.7165 3.7165 4.5 2.75 4.5C1.7835 4.5 1 3.7165 1 2.75Z" />
        <path d="M11.5 13.25C11.5 12.2835 12.2835 11.5 13.25 11.5C14.2165 11.5 15 12.2835 15 13.25C15 14.2165 14.2165 15 13.25 15C12.2835 15 11.5 14.2165 11.5 13.25Z" />
    </g>
</svg>
