<?xml version="1.0" encoding="UTF-8"?>
<svg xmlns="http://www.w3.org/2000/svg" viewBox="0 0 16 16" fill="none">
    <g opacity="0.6" id="details">
        <path d="M12 9.99997C12 8.8954 12.8954 7.99997 14 7.99997C15.1046 7.99997 16 8.8954 16 9.99997V14C16 15.1045 15.1046 16 14 16C12.8954 16 12 15.1045 12 14V9.99997Z"></path>
        <path d="M0 4.66663C0 3.56206 0.895431 2.66663 2 2.66663C3.10457 2.66663 4 3.56206 4 4.66663V14C4 15.1045 3.10457 16 2 16C0.895431 16 0 15.1045 0 14V4.66663Z"></path>
    </g>
    <path id="base" d="M6 2C6 0.895431 6.89543 0 8 0C9.10457 0 10 0.895431 10 2V14C10 15.1046 9.10457 16 8 16C6.89543 16 6 15.1046 6 14V2Z"></path>
</svg>