<svg viewBox="0 0 16 16" fill="none" xmlns="http://www.w3.org/2000/svg">
    <path id="base" fill-rule="evenodd" clip-rule="evenodd" d="M14.4706 1.11766C14.9579 1.37756 15.1423 1.98329 14.8824 2.4706L11.835 8.18432C11.045 9.66563 9.0485 9.96272 7.8614 8.77562L6.53418 7.44839C6.31692 7.23114 5.95696 7.25938 5.77625 7.50786L2.80875 11.5882C2.48391 12.0348 1.85849 12.1336 1.41184 11.8088C0.965185 11.4839 0.866435 10.8585 1.19127 10.4118L4.15878 6.33152C5.06233 5.08913 6.86213 4.94792 7.94839 6.03418L9.27561 7.3614C9.51303 7.59882 9.91233 7.53941 10.0703 7.24314L13.1177 1.52943C13.3776 1.04212 13.9833 0.857763 14.4706 1.11766Z" />
    <path id="details" opacity="0.6" fill-rule="evenodd" clip-rule="evenodd" d="M1 14C1 13.4477 1.44772 13 2 13H14C14.5523 13 15 13.4477 15 14C15 14.5523 14.5523 15 14 15H2C1.44772 15 1 14.5523 1 14Z" />
</svg>
