<svg viewBox="0 0 16 16" fill="none" xmlns="http://www.w3.org/2000/svg">
    <g id="base">
        <path d="M1 9.75C1 8.7835 1.7835 8 2.75 8C3.7165 8 4.5 8.7835 4.5 9.75V13.25C4.5 14.2165 3.7165 15 2.75 15C1.7835 15 1 14.2165 1 13.25V9.75Z" />
        <path d="M6.25 2.75C6.25 1.7835 7.0335 1 8 1C8.9665 1 9.75 1.7835 9.75 2.75V8.25C9.75 9.2165 8.9665 10 8 10C7.0335 10 6.25 9.2165 6.25 8.25V2.75Z" />
        <path d="M11.5 7.75C11.5 6.7835 12.2835 6 13.25 6C14.2165 6 15 6.7835 15 7.75V13.25C15 14.2165 14.2165 15 13.25 15C12.2835 15 11.5 14.2165 11.5 13.25V7.75Z" />
    </g>

    <g id="details" opacity="0.4">
        <path d="M11.5 2.75C11.5 1.7835 12.2835 1 13.25 1C14.2165 1 15 1.7835 15 2.75V3.25C15 4.2165 14.2165 5 13.25 5C12.2835 5 11.5 4.2165 11.5 3.25V2.75Z" />
        <path d="M1 2.75C1 1.7835 1.7835 1 2.75 1C3.7165 1 4.5 1.7835 4.5 2.75V5.25C4.5 6.2165 3.7165 7 2.75 7C1.7835 7 1 6.2165 1 5.25V2.75Z" />
        <path d="M6.25 12.75C6.25 11.7835 7.0335 11 8 11C8.9665 11 9.75 11.7835 9.75 12.75V13.25C9.75 14.2165 8.9665 15 8 15C7.0335 15 6.25 14.2165 6.25 13.25V12.75Z" />
    </g>
</svg>
