<svg xmlns="http://www.w3.org/2000/svg" viewBox="0 0 16 16" fill="none">    
    <path id="base" d="M9.75 7.5625C9.02513 7.5625 8.4375 6.97487 8.4375 6.25V1.49165C8.4375 1.25003 8.63392 1.05254 8.87493 1.06983C12.0396 1.29687 14.7031 3.96036 14.9302 7.12507C14.9475 7.36608 14.75 7.5625 14.5083 7.5625H9.75Z" />
    <path id="details"  opacity="0.4" d="M7.5625 1.4375C7.5625 1.19588 7.36587 0.99851 7.12472 1.01358C3.49446 1.24047 1 4.28167 1 8C1 11.866 4.13401 15 8 15C11.7183 15 14.7595 12.5055 14.9864 8.87528C15.0015 8.63413 14.8041 8.4375 14.5625 8.4375H8.875C8.15013 8.4375 7.5625 7.84987 7.5625 7.125V1.4375Z" />
</svg>
