<svg xmlns="http://www.w3.org/2000/svg" viewBox="0 0 16 16" fill="none">
    <path id="base" fill-rule="evenodd" clip-rule="evenodd" d="M8 15.5C12.1421 15.5 15.5 12.1421 15.5 8C15.5 3.85786 12.1421 0.5 8 0.5C3.85786 0.5 0.5 3.85786 0.5 8C0.5 12.1421 3.85786 15.5 8 15.5ZM8.18503 11.5727C7.92544 11.9298 7.53605 12.1652 7.1061 12.1652C6.66804 12.1652 6.31111 11.9461 6.01095 11.6052L4.24248 9.55187C3.991 9.2597 3.90988 9.03245 3.90988 8.74028C3.90988 8.10723 4.43718 7.61216 5.06182 7.61216C5.41876 7.61216 5.68646 7.75825 5.92172 8.02607L6.61888 8.8191C6.86257 9.0963 7.3041 9.06212 7.50223 8.75071L9.96161 4.8852C10.2374 4.45505 10.5538 4.23592 10.9756 4.23592C11.6003 4.23592 12.1519 4.70665 12.1519 5.33158C12.1519 5.55882 12.087 5.81042 11.9004 6.07013L8.18503 11.5727Z"></path>
</svg>
