<svg xmlns="http://www.w3.org/2000/svg" viewBox="0 0 16 16" fill="none">
    <path id="base" d="M7.04651 12.4429C7.50512 12.4429 7.92047 12.1918 8.19737 11.8109L12.1605 5.94147C12.3595 5.66445 12.4287 5.39608 12.4287 5.15368C12.4287 4.48709 11.8403 3.98499 11.174 3.98499C10.7241 3.98499 10.3866 4.21872 10.0924 4.67755L7.46905 8.80076C7.25771 9.13293 6.78674 9.16939 6.5268 8.8737L5.78317 8.02781C5.53223 7.74213 5.24668 7.5863 4.86594 7.5863C4.19966 7.5863 3.63721 8.11438 3.63721 8.78963C3.63721 9.10128 3.72374 9.34368 3.99198 9.65533L5.87835 11.8456C6.19851 12.2092 6.57925 12.4429 7.04651 12.4429Z" />
    <circle id="details" opacity="0.2" cx="8" cy="8" r="8"  />
</svg>
