<svg xmlns="http://www.w3.org/2000/svg" viewBox="0 0 16 16" fill="none">
    <path id="base" d="M7.78769 13.1651C7.14575 13.9602 5.96166 14.0375 5.22168 13.3328L1.70801 9.29958C1.35254 8.89626 1.24316 8.56813 1.24316 8.15797C1.24316 7.24879 1.93359 6.5652 2.87012 6.5652C3.38965 6.5652 3.77246 6.74294 4.10059 7.11891L6.16233 9.30131C6.3837 9.53564 6.76568 9.50234 6.94317 9.23325L11.6338 2.12184C12.0234 1.52028 12.4268 1.29469 13.0557 1.29469C13.9854 1.29469 14.7031 1.97829 14.7031 2.88063C14.7031 3.19508 14.6006 3.55739 14.3613 3.90602L8.86342 11.8327L7.78769 13.1651Z" />
</svg>
