<?xml version="1.0" encoding="UTF-8"?>
<svg xmlns="http://www.w3.org/2000/svg" viewBox="0 0 16 16" fill="none">
    <path d="M16 9.09961C16 11.3494 15.9997 12.4751 15.4268 13.2637C15.2419 13.5181 15.0181 13.7419 14.7637 13.9268C13.9751 14.4997 12.8494 14.5 10.5996 14.5H5.40039C3.15055 14.5 2.02492 14.4997 1.23633 13.9268C0.981903 13.7419 0.758149 13.5181 0.573242 13.2637C0.000293154 12.4751 0 11.3494 0 9.09961V7.5H16V9.09961ZM2.5 9.5C2.22386 9.5 2 9.72386 2 10V11.4814C2 11.7576 2.22386 11.9814 2.5 11.9814H4.5C4.77614 11.9814 5 11.7576 5 11.4814V10C5 9.72386 4.77614 9.5 4.5 9.5H2.5ZM10.5996 1.5C12.8494 1.5 13.9751 1.50029 14.7637 2.07324C15.0181 2.25815 15.2419 2.4819 15.4268 2.73633C15.8661 3.34109 15.9683 4.14398 15.9922 5.5H0.0078125C0.0316898 4.14398 0.133856 3.34109 0.573242 2.73633C0.758149 2.4819 0.981903 2.25815 1.23633 2.07324C2.02492 1.50029 3.15055 1.5 5.40039 1.5H10.5996Z" id="base"></path>
</svg>