<svg xmlns="http://www.w3.org/2000/svg" viewBox="0 0 16 16" fill="none">
    <path id="base" d="M6.18172 4.81802C5.80514 4.44144 5.19459 4.44144 4.81802 4.81802C4.44144 5.19459 4.44144 5.80515 4.81802 6.18172L6.28274 7.64644C6.478 7.84171 6.478 8.15829 6.28274 8.35355L4.81802 9.81827C4.44144 10.1948 4.44144 10.8054 4.81802 11.182C5.19459 11.5586 5.80515 11.5586 6.18172 11.182L7.64644 9.71726C7.84171 9.52199 8.15829 9.52199 8.35355 9.71726L9.81827 11.182C10.1948 11.5586 10.8054 11.5586 11.182 11.182C11.5586 10.8054 11.5586 10.1948 11.182 9.81827L9.71726 8.35355C9.52199 8.15829 9.52199 7.84171 9.71726 7.64644L11.182 6.18172C11.5586 5.80514 11.5586 5.19459 11.182 4.81802C10.8054 4.44144 10.1948 4.44144 9.81827 4.81802L8.35355 6.28274C8.15829 6.478 7.84171 6.478 7.64644 6.28274L6.18172 4.81802Z" />
    <circle id="details" opacity="0.2" cx="8" cy="8" r="8"/>
</svg>
