<svg xmlns="http://www.w3.org/2000/svg" viewBox="0 0 16 16" fill="none">
    <path id="base" fill-rule="evenodd" clip-rule="evenodd" d="M8 15.5C12.1421 15.5 15.5 12.1421 15.5 8C15.5 3.85786 12.1421 0.5 8 0.5C3.85786 0.5 0.5 3.85786 0.5 8C0.5 12.1421 3.85786 15.5 8 15.5ZM5.01689 5.01689C5.36993 4.66385 5.94232 4.66385 6.29536 5.01689L7.66854 6.39007C7.8516 6.57312 8.1484 6.57312 8.33145 6.39007L9.70463 5.01689C10.0577 4.66385 10.6301 4.66385 10.9831 5.01689C11.3361 5.36993 11.3361 5.94232 10.9831 6.29536L9.60993 7.66854C9.42687 7.8516 9.42687 8.1484 9.60993 8.33145L10.9831 9.70463C11.3361 10.0577 11.3361 10.6301 10.9831 10.9831C10.6301 11.3361 10.0577 11.3361 9.70463 10.9831L8.33145 9.60993C8.1484 9.42687 7.8516 9.42687 7.66854 9.60993L6.29536 10.9831C5.94232 11.3361 5.36993 11.3361 5.01689 10.9831C4.66385 10.6301 4.66385 10.0577 5.01689 9.70463L6.39007 8.33145C6.57312 8.1484 6.57312 7.8516 6.39007 7.66854L5.01689 6.29536C4.66385 5.94232 4.66385 5.36993 5.01689 5.01689Z"/>
</svg>
