<svg xmlns="http://www.w3.org/2000/svg" viewBox="0 0 17 17" fill="none">
    <path id="base" d="M6.17156 3.05026C5.58577 2.46447 4.63603 2.46447 4.05024 3.05026C3.46445 3.63604 3.46445 4.58579 4.05024 5.17158L6.52511 7.64645C6.72038 7.84171 6.72038 8.15829 6.52511 8.35356L4.05024 10.8284C3.46445 11.4142 3.46445 12.364 4.05024 12.9498C4.63603 13.5355 5.58577 13.5355 6.17156 12.9498L8.64643 10.4749C8.8417 10.2796 9.15828 10.2796 9.35354 10.4749L11.8284 12.9498C12.4142 13.5355 13.3639 13.5355 13.9497 12.9498C14.5355 12.364 14.5355 11.4142 13.9497 10.8284L11.4749 8.35356C11.2796 8.15829 11.2796 7.84171 11.4749 7.64645L13.9497 5.17158C14.5355 4.58579 14.5355 3.63604 13.9497 3.05026C13.3639 2.46447 12.4142 2.46447 11.8284 3.05026L9.35354 5.52513C9.15828 5.72039 8.8417 5.72039 8.64643 5.52513L6.17156 3.05026Z"/>
</svg>
