<?xml version="1.0" encoding="UTF-8"?>
<svg xmlns="http://www.w3.org/2000/svg" viewBox="0 0 16 16" fill="none">
    <g id="gbp">
        <path id="base" d="M4.17372 14C3.54915 14 3.10303 13.6502 3.10303 13.0448C3.10303 12.5 3.50111 12.1771 3.90605 11.9552C4.89438 11.5381 5.43659 10.5964 5.43659 9.50673C5.43659 9.25112 5.40227 8.98206 5.30618 8.62556L5.17397 7.99327L5.01792 7.36771C4.83261 6.64126 4.75025 6.18386 4.75025 5.713C4.75025 3.23767 6.87791 2 9.47914 2C10.3165 2 11.3597 2.06054 12.1147 2.45067C12.4785 2.65247 12.6912 2.9148 12.6912 3.31839C12.6912 3.84978 12.3137 4.0852 11.847 4.0852C11.6137 4.0852 11.3734 4.0583 11.1607 4.01794C10.7901 3.92377 10.3439 3.86996 9.84977 3.86996C8.33982 3.86996 7.15244 4.52915 7.15244 5.96861C7.15244 6.52018 7.26912 7.00448 7.37207 7.36771L7.50615 7.99327L7.6672 8.62556C7.72211 8.86099 7.76329 9.10314 7.76329 9.40583C7.76329 10.509 7.31717 11.5987 6.36315 12.0224V12.0897H11.9706C12.554 12.0897 13.0001 12.4462 13.0001 13.0448C13.0001 13.6502 12.5471 14 11.9706 14H4.17372Z"></path>
        <path opacity="0.8" d="M3.75 8.75C3.33579 8.75 3 8.41421 3 8V8C3 7.58579 3.33579 7.25 3.75 7.25H10.75C11.1642 7.25 11.5 7.58579 11.5 8V8C11.5 8.41421 11.1642 8.75 10.75 8.75H3.75Z" id="details"></path>
    </g>
</svg>