<?xml version="1.0" encoding="UTF-8"?>
<svg xmlns="http://www.w3.org/2000/svg" viewBox="0 0 16 16" fill="none">
    <path opacity="0.8" d="M7.14285 0.857143C7.14285 0.383756 7.52661 0 8 0C8.47338 0 8.85714 0.383756 8.85714 0.857143V15.1429C8.85714 15.6162 8.47338 16 8 16C7.52661 16 7.14285 15.6162 7.14285 15.1429V0.857143Z" id="details"></path>
            <path id="base" d="M7.84242 14.1992C5.4518 14.1992 3.85805 13.2031 3.3932 11.8418C3.3185 11.6426 3.27699 11.4268 3.27699 11.2275C3.27699 10.6299 3.65883 10.248 4.22328 10.248C4.69643 10.248 4.99525 10.439 5.22768 10.9204C5.60121 11.958 6.63051 12.4229 7.90883 12.4229C9.35316 12.4229 10.3659 11.709 10.3659 10.7129C10.3659 9.84961 9.7682 9.31836 8.20766 8.99463L6.92104 8.729C4.52211 8.23926 3.4015 7.11035 3.4015 5.35889C3.4015 3.25049 5.25258 1.82275 7.85072 1.82275C9.96742 1.82275 11.611 2.76904 12.1007 4.35449C12.1505 4.4873 12.1754 4.64502 12.1754 4.84424C12.1754 5.36719 11.8019 5.72412 11.2457 5.72412C10.7477 5.72412 10.4406 5.5083 10.2164 5.04346C9.80971 4.03076 8.95473 3.59912 7.83412 3.59912C6.506 3.59912 5.55971 4.22998 5.55971 5.23438C5.55971 6.04785 6.15736 6.5708 7.6515 6.88623L8.93813 7.15186C11.4616 7.6748 12.5241 8.6875 12.5241 10.4639C12.5241 12.7549 10.7228 14.1992 7.84242 14.1992Z"></path>
</svg>