<?xml version="1.0" encoding="UTF-8"?>
<svg xmlns="http://www.w3.org/2000/svg" viewBox="0 0 16 16" fill="none">
    <path id="base" fill-rule="evenodd" clip-rule="evenodd" d="M6.35863 1.49017C8.21568 0.460464 10.4249 0.405052 12.1129 0.571775C12.7918 0.638827 13.2877 1.24352 13.2207 1.92239C13.1536 2.60126 12.5489 3.09724 11.8701 3.03019C10.362 2.88124 8.75952 2.98364 7.55659 3.65065C6.46567 4.25555 5.49625 5.43911 5.41331 7.99658C5.37379 9.21505 5.67652 10.0966 6.12025 10.7515C6.57256 11.4191 7.22041 11.9221 7.96627 12.288C8.7144 12.655 9.52693 12.8665 10.2446 12.964C10.9872 13.065 11.5232 13.0304 11.7204 12.986C12.3859 12.8363 13.0468 13.2545 13.1966 13.92C13.3463 14.5856 12.9281 15.2465 12.2626 15.3962C11.6706 15.5293 10.8118 15.5342 9.91194 15.4119C8.98718 15.2862 7.90967 15.0119 6.87822 14.5059C5.84452 13.9987 4.82328 13.2415 4.07507 12.1372C3.31827 11.0201 2.88905 9.618 2.94423 7.9165C3.05068 4.63403 4.38957 2.58199 6.35863 1.49017Z"></path>
    <g opacity="0.8" id="details">
                <path d="M0.804861 6.02094C0.484633 6.02094 0.225037 6.28053 0.225037 6.60076C0.225037 6.92099 0.484633 7.18058 0.804861 7.18058H11.1525C11.4728 7.18058 11.7323 6.92099 11.7323 6.60076C11.7323 6.28053 11.4728 6.02094 11.1525 6.02094H0.804861Z"></path>
                <path d="M0.804861 8.81959C0.484633 8.81959 0.225037 9.07918 0.225037 9.39941C0.225037 9.71964 0.484633 9.97924 0.804861 9.97924H11.1525C11.4728 9.97924 11.7323 9.71964 11.7323 9.39941C11.7323 9.07918 11.4728 8.81959 11.1525 8.81959H0.804861Z"></path>
    </g>
</svg>