<?xml version="1.0" encoding="UTF-8"?>
<svg xmlns="http://www.w3.org/2000/svg" viewBox="0 0 16 16" fill="none">
    <g id="base">
        <path id="Subtract" d="M8 0C12.4181 0 15.9998 3.28849 16 7.33398C16 11.3797 12.4182 14.6689 8 14.6689C7.4749 14.6619 6.9514 14.6063 6.43652 14.5029C6.19342 14.4614 5.9443 14.5263 5.75195 14.6807C4.76791 15.4036 3.6123 15.8575 2.39941 15.998C2.19986 16.0191 2.02123 15.8743 2 15.6748C1.991 15.5893 2.01225 15.5027 2.06055 15.4316C2.52932 14.8478 2.86571 14.1689 3.04688 13.4424C3.0833 13.2441 3.00642 13.0419 2.84668 12.9189C1.07753 11.6044 0.0242433 9.53814 0 7.33398C0.000247653 3.28849 3.58189 0 8 0ZM7.71777 10.1514C7.1671 10.1515 6.72086 10.5648 6.7207 11.0752C6.7207 11.5857 7.167 11.9998 7.71777 12C8.26869 12 8.71582 11.5858 8.71582 11.0752C8.71566 10.5647 8.2686 10.1514 7.71777 10.1514ZM8.97754 3.07227C7.84619 2.81652 6.81653 3.2928 6.2002 3.67383C5.87066 3.87756 5.59989 4.09119 5.41211 4.25195C5.31767 4.33281 5.24209 4.40216 5.18848 4.45312C5.16163 4.47865 5.13975 4.50001 5.12402 4.51562L5.0957 4.54395L5.09473 4.5459C4.74224 4.91021 4.77489 5.47018 5.16797 5.79688C5.56089 6.1233 6.16507 6.09333 6.51758 5.72949L6.51562 5.73047L6.52246 5.72461C6.52921 5.7179 6.54114 5.70609 6.55762 5.69043C6.5908 5.65888 6.64201 5.61106 6.70898 5.55371C6.84519 5.4371 7.03756 5.28702 7.26172 5.14844C7.75266 4.84498 8.19545 4.71958 8.52441 4.79395C8.71229 4.83642 8.89929 4.93568 9.08594 5.0957C9.22996 5.21922 9.27944 5.36796 9.20605 5.59668C9.12236 5.85717 8.8822 6.15514 8.5332 6.34766L7.96289 6.66309C7.2185 7.07372 6.76172 7.81724 6.76172 8.62012C6.76193 9.10924 7.19 9.50578 7.71777 9.50586C8.24562 9.50586 8.67362 9.10929 8.67383 8.62012C8.67383 8.44194 8.77523 8.27668 8.94043 8.18555L9.51074 7.87012C10.2304 7.47312 10.8041 6.83081 11.0381 6.10254C11.2822 5.34273 11.1534 4.45414 10.3848 3.79492C10.0245 3.486 9.55748 3.20338 8.97754 3.07227Z"></path>
    </g>
</svg>