<svg viewBox="0 0 16 16" fill="none" xmlns="http://www.w3.org/2000/svg">
    <g id="base">
        <path d="M0.305573 0.659544C0 1.08013 0 1.68009 0 2.88V4.58667C0 5.78658 0 6.38654 0.305573 6.80712C0.40426 6.94296 0.523712 7.06241 0.659544 7.16109C1.08013 7.46667 1.68009 7.46667 2.88 7.46667H4.58667C5.78658 7.46667 6.38654 7.46667 6.80712 7.16109C6.94296 7.06241 7.06241 6.94296 7.16109 6.80712C7.46667 6.38654 7.46667 5.78658 7.46667 4.58667V2.88C7.46667 1.68009 7.46667 1.08013 7.16109 0.659544C7.06241 0.523712 6.94296 0.40426 6.80712 0.305573C6.38654 0 5.78658 0 4.58667 0H2.88C1.68009 0 1.08013 0 0.659544 0.305573C0.523712 0.40426 0.40426 0.523712 0.305573 0.659544Z" />
        <path d="M8.83891 9.19288C8.53333 9.61346 8.53333 10.2134 8.53333 11.4133V13.12C8.53333 14.3199 8.53333 14.9199 8.83891 15.3405C8.93759 15.4763 9.05705 15.5957 9.19288 15.6944C9.61346 16 10.2134 16 11.4133 16H13.12C14.3199 16 14.9199 16 15.3405 15.6944C15.4763 15.5957 15.5957 15.4763 15.6944 15.3405C16 14.9199 16 14.3199 16 13.12V11.4133C16 10.2134 16 9.61346 15.6944 9.19288C15.5957 9.05705 15.4763 8.93759 15.3405 8.83891C14.9199 8.53333 14.3199 8.53333 13.12 8.53333H11.4133C10.2134 8.53333 9.61346 8.53333 9.19288 8.83891C9.05705 8.93759 8.93759 9.05705 8.83891 9.19288Z" />
    </g>
    <g id="details" opacity="0.6">
        <path d="M8.56071 2.78232C8.53333 2.99026 8.53333 3.23795 8.53333 3.73333C8.53333 4.22871 8.53333 4.47641 8.56071 4.68435C8.74976 6.1203 9.8797 7.25024 11.3156 7.43929C11.5236 7.46667 11.7713 7.46667 12.2667 7.46667C12.762 7.46667 13.0097 7.46667 13.2177 7.43929C14.6536 7.25024 15.7836 6.1203 15.9726 4.68435C16 4.47641 16 4.22871 16 3.73333C16 3.23795 16 2.99026 15.9726 2.78232C15.7836 1.34637 14.6536 0.216423 13.2177 0.0273765C13.0097 0 12.762 0 12.2667 0C11.7713 0 11.5236 0 11.3156 0.0273765C9.8797 0.216423 8.74976 1.34637 8.56071 2.78232Z" />
        <path d="M0.0273765 11.3156C0 11.5236 0 11.7713 0 12.2667C0 12.762 0 13.0097 0.0273765 13.2177C0.216423 14.6536 1.34637 15.7836 2.78232 15.9726C2.99026 16 3.23795 16 3.73333 16C4.22872 16 4.47641 16 4.68435 15.9726C6.1203 15.7836 7.25024 14.6536 7.43929 13.2177C7.46667 13.0097 7.46667 12.762 7.46667 12.2667C7.46667 11.7713 7.46667 11.5236 7.43929 11.3156C7.25024 9.8797 6.1203 8.74976 4.68435 8.56071C4.47641 8.53333 4.22872 8.53333 3.73333 8.53333C3.23795 8.53333 2.99026 8.53333 2.78232 8.56071C1.34637 8.74976 0.216423 9.8797 0.0273765 11.3156Z" />
    </g>
</svg>
