<svg width="16" height="16" viewBox="0 0 16 16" fill="none" xmlns="http://www.w3.org/2000/svg">
<g id="base">
    <path fill-rule="evenodd" clip-rule="evenodd" d="M3 2C1.89543 2 1 2.89543 1 4V10.5C1 11.6046 1.89543 12.5 3 12.5H13C14.1046 12.5 15 11.6046 15 10.5V4C15 2.89543 14.1046 2 13 2H3ZM3 11C2.72386 11 2.5 10.7789 2.5 10.5028V3.99789C2.5 3.72174 2.72386 3.5 3 3.5H13C13.2761 3.5 13.5 3.72174 13.5 3.99789V10.5028C13.5 10.7789 13.2761 11 13 11H3Z" />
    <path d="M4 13.5C4 13.2239 4.22386 13 4.5 13H11.5C11.7761 13 12 13.2239 12 13.5C12 13.7761 11.7761 14 11.5 14H4.5C4.22386 14 4 13.7761 4 13.5Z" />
</g>
<path id="details" opacity="0.2" d="M3.9 4C3.52503 4 3.33754 4 3.20611 4.09549C3.16366 4.12633 3.12633 4.16366 3.09549 4.20611C3 4.33754 3 4.52503 3 4.9V9.6C3 9.97497 3 10.1625 3.09549 10.2939C3.12633 10.3363 3.16366 10.3737 3.20611 10.4045C3.33754 10.5 3.52503 10.5 3.9 10.5H12.1C12.475 10.5 12.6625 10.5 12.7939 10.4045C12.8363 10.3737 12.8737 10.3363 12.9045 10.2939C13 10.1625 13 9.97497 13 9.6V4.9C13 4.52503 13 4.33754 12.9045 4.20611C12.8737 4.16366 12.8363 4.12633 12.7939 4.09549C12.6625 4 12.475 4 12.1 4H3.9Z" />
</svg>
