<?xml version="1.0" encoding="UTF-8"?>
<svg xmlns="http://www.w3.org/2000/svg" viewBox="0 0 16 16" fill="none">
    <path d="M7.18834 13.9777C7.04147 13.9777 6.90573 13.9537 6.78112 13.9059C6.66096 13.858 6.5497 13.7841 6.44734 13.684L1.39386 8.85489C1.2559 8.72437 1.15577 8.5895 1.09346 8.45028C1.03115 8.31107 1 8.16097 1 8C1.00445 7.83468 1.03783 7.68241 1.10013 7.54319C1.16244 7.40398 1.26258 7.27128 1.40054 7.14512L6.44734 2.316C6.65206 2.12023 6.89906 2.02234 7.18834 2.02234C7.38416 2.02234 7.56217 2.07019 7.72239 2.16591C7.88706 2.25727 8.01834 2.38343 8.11625 2.54441C8.21416 2.70103 8.26312 2.87287 8.26312 3.05995C8.26312 3.35143 8.14741 3.60594 7.91598 3.82347L3.96195 7.57296C3.72077 7.80167 3.72063 8.18583 3.96164 8.4147L7.91598 12.17C8.14741 12.3962 8.26312 12.6529 8.26312 12.9401C8.26312 13.1315 8.21416 13.3055 8.11625 13.4621C8.01834 13.6187 7.88706 13.7427 7.72239 13.8341C7.56217 13.9298 7.38416 13.9777 7.18834 13.9777Z" id="base"></path>
    <path opacity="0.6" d="M13.9252 13.9776C13.7784 13.9776 13.6426 13.9537 13.518 13.9058C13.3979 13.8579 13.2866 13.784 13.1842 13.6839L8.1308 8.85484C7.99284 8.72432 7.8927 8.58946 7.8304 8.45024C7.76809 8.31102 7.73694 8.16093 7.73694 7.99996C7.74139 7.83464 7.77477 7.68237 7.83707 7.54316C7.89938 7.40394 7.99951 7.27125 8.13748 7.14508L13.1842 2.316C13.389 2.12023 13.636 2.02234 13.9252 2.02234C14.1211 2.02234 14.2991 2.07019 14.4593 2.16591C14.6239 2.25727 14.7552 2.38343 14.8531 2.5444C14.9511 2.70102 15 2.87287 15 3.05994C15 3.35142 14.8843 3.60593 14.6529 3.82346L10.9505 7.33429C10.5725 7.69271 10.5723 8.29478 10.95 8.65349L14.6529 12.1699C14.8843 12.3962 15 12.6528 15 12.94C15 13.1314 14.9511 13.3054 14.8531 13.462C14.7552 13.6187 14.6239 13.7427 14.4593 13.834C14.2991 13.9297 14.1211 13.9776 13.9252 13.9776Z" id="details"></path>
</svg>