<?xml version="1.0" encoding="UTF-8"?>
<svg xmlns="http://www.w3.org/2000/svg" viewBox="0 0 16 16" fill="none">
    <path d="M8.8117 13.9775C8.95856 13.9775 9.0943 13.9536 9.21891 13.9058C9.33907 13.8579 9.45033 13.7839 9.55269 13.6839L14.6061 8.85485C14.744 8.72434 14.8442 8.58947 14.9065 8.45026C14.9688 8.31104 14.9999 8.16095 14.9999 7.99998C14.9955 7.83466 14.9621 7.6824 14.8998 7.54318C14.8375 7.40397 14.7374 7.27128 14.5994 7.14511L9.55269 2.31609C9.34797 2.12032 9.10097 2.02243 8.8117 2.02243C8.61588 2.02243 8.43787 2.07029 8.27766 2.166C8.11299 2.25736 7.98171 2.38352 7.8838 2.54449C7.78589 2.7011 7.73694 2.87295 7.73694 3.06002C7.73694 3.3515 7.85265 3.606 8.08407 3.82353L12.038 7.57295C12.2792 7.80165 12.2793 8.1858 12.0383 8.41468L8.08407 12.1699C7.85265 12.3961 7.73694 12.6528 7.73694 12.9399C7.73694 13.1314 7.78589 13.3054 7.8838 13.462C7.98171 13.6186 8.11299 13.7426 8.27766 13.834C8.43787 13.9297 8.61588 13.9775 8.8117 13.9775Z" id="base"></path>
    <path opacity="0.6" d="M2.07476 13.9775C2.22162 13.9775 2.35736 13.9536 2.48197 13.9058C2.60213 13.8579 2.71339 13.7839 2.81575 13.6839L7.86913 8.85485C8.00709 8.72434 8.10723 8.58947 8.16953 8.45026C8.23184 8.31104 8.26299 8.16095 8.26299 7.99998C8.25854 7.83467 8.22516 7.6824 8.16285 7.54318C8.10055 7.40397 8.00042 7.27128 7.86245 7.14512L2.81575 2.31609C2.61103 2.12032 2.36404 2.02243 2.07476 2.02243C1.87895 2.02243 1.70093 2.07029 1.54072 2.166C1.37606 2.25736 1.24477 2.38352 1.14686 2.54449C1.04895 2.7011 1 2.87295 1 3.06002C1 3.3515 1.11571 3.606 1.34713 3.82353L5.04944 7.33432C5.42741 7.69274 5.42763 8.2948 5.04992 8.6535L1.34713 12.1699C1.11571 12.3961 1 12.6528 1 12.9399C1 13.1314 1.04895 13.3054 1.14686 13.462C1.24477 13.6186 1.37606 13.7426 1.54072 13.834C1.70093 13.9297 1.87895 13.9775 2.07476 13.9775Z" id="details"></path>
</svg>