<svg xmlns="http://www.w3.org/2000/svg" viewBox="0 0 16 16" fill="none">    
    <path id="base" fill-rule="evenodd" clip-rule="evenodd" d="M12.5664 3.15385C13.1969 3.15385 13.708 2.67169 13.708 2.07692C13.708 1.48215 13.1969 1 12.5664 1H3.4336C2.80311 1 2.29199 1.48215 2.29199 2.07692C2.29199 2.67169 2.80311 3.15385 3.4336 3.15385H4.00441C4.31965 3.15385 4.57521 3.4094 4.57521 3.72465V7.02482C4.57521 7.12016 4.54838 7.21379 4.49746 7.29614L1.23584 12.5707C0.569919 13.6476 1.39337 15 2.71499 15H13.2851C14.6067 15 15.4301 13.6476 14.7642 12.5707L11.5026 7.29614C11.4517 7.21379 11.4248 7.12016 11.4248 7.02482V3.72465C11.4248 3.4094 11.6804 3.15385 11.9956 3.15385H12.5664ZM7.42922 3.15385H8.57082C8.88607 3.15385 9.14162 3.39492 9.14162 3.69231L9.14163 7.60711C9.14163 7.70245 9.16846 7.79608 9.21939 7.87843L11.7905 12.0364C12.0125 12.3953 11.738 12.8462 11.2975 12.8462H4.70256C4.26202 12.8462 3.98754 12.3953 4.20952 12.0364L6.78067 7.87843C6.83159 7.79608 6.85842 7.70245 6.85842 7.60711L6.85841 3.69231C6.85841 3.39492 7.11397 3.15385 7.42922 3.15385Z"/>
    <path id="details" opacity="1" d="M7.82049 8.54868L7.37172 7.92041C6.74935 7.04909 5.42344 7.15313 4.94457 8.11085L2.5 13H13L10.6373 8.66841C10.3391 8.12159 9.57517 8.06644 9.20145 8.56473C8.85416 9.02779 8.15692 9.01968 7.82049 8.54868Z"/>
</svg>
