<svg viewBox="0 0 16 16" fill="none" xmlns="http://www.w3.org/2000/svg">
    <path id="base" d="M7.99415 13C3.22222 13 0 9.16359 0 7.99424C0 6.83065 3.22807 3 7.99415 3C12.8421 3 16 6.83065 16 7.99424C16 9.16359 12.8421 13 7.99415 13ZM8 11.0588C9.7193 11.0588 11.1111 9.68779 11.1111 8C11.1111 6.30645 9.7193 4.93548 8 4.93548C6.2807 4.93548 4.88889 6.30645 4.88889 8C4.88889 9.68779 6.2807 11.0588 8 11.0588Z"/>
    <path id="details" opacity="0.6" d="M8.00005 9.28104C7.29141 9.28104 6.72327 8.71237 6.72327 8.00305C6.72327 7.29374 7.29141 6.72507 8.00005 6.72507C8.7087 6.72507 9.27684 7.29374 9.27684 8.00305C9.27684 8.71237 8.7087 9.28104 8.00005 9.28104Z"/>
</svg>
