<svg viewBox="0 0 16 16" fill="none" xmlns="http://www.w3.org/2000/svg">
    <g id="base">
        <path d="M10 0H10.2538C10.6809 0 11.0877 0.182017 11.3723 0.500421L14.1668 3.6272C14.3814 3.86728 14.5 4.178 14.5 4.5H13C11.3431 4.5 10 3.15685 10 1.5V0Z"/>
        <path fill-rule="evenodd" clip-rule="evenodd" d="M6.96003 12.6447C7.56247 13.1184 8.43753 13.1184 9.03997 12.6447L11.1103 11.0165C11.5698 10.6552 11.6319 10.0107 11.249 9.57709C10.8661 9.14347 10.1832 9.08488 9.72368 9.44623L9.08299 9.95008V7.02203C9.08299 6.45758 8.59812 6 8 6C7.40188 6 6.91701 6.45758 6.91701 7.02202V9.95008L6.27633 9.44623C5.81684 9.08488 5.13395 9.14347 4.75104 9.57709C4.36814 10.0107 4.43022 10.6552 4.8897 11.0165L6.96003 12.6447Z"/>
    </g>
    <path id="details" opacity="0.2" d="M3 0C2.17157 0 1.5 0.671573 1.5 1.5V13C1.5 14.6569 2.84315 16 4.5 16H11.5C13.1569 16 14.5 14.6569 14.5 13V4.57296C14.5 4.54858 14.4994 4.52425 14.4982 4.5H13C11.3431 4.5 10 3.15685 10 1.5V0H3Z"/>
</svg>
