<svg xmlns="http://www.w3.org/2000/svg" viewBox="0 0 16 17" fill="none">
    <path id="details" opacity="0.2" d="M3 0.225067C2.17157 0.225067 1.5 0.89664 1.5 1.72507V13.2251C1.5 14.8819 2.84315 16.2251 4.5 16.2251H11.5C13.1569 16.2251 14.5 14.8819 14.5 13.2251V4.79802C14.5 4.77364 14.4994 4.74932 14.4982 4.72507H13C11.3431 4.72507 10 3.38192 10 1.72507V0.225067H3Z"/>
    <g id="base">
        <path d="M10 0.225067H10.2538C10.6809 0.225067 11.0877 0.407084 11.3723 0.725488L14.1668 3.85226C14.3814 4.09235 14.5 4.40307 14.5 4.72507H13C11.3431 4.72507 10 3.38192 10 1.72507V0.225067Z"/>
        <path d="M3.42081 12.2251C3.42081 11.6728 3.86852 11.2251 4.42081 11.2251H11.5792C12.1314 11.2251 12.5792 11.6728 12.5792 12.2251C12.5792 12.7774 12.1314 13.2251 11.5792 13.2251H4.42081C3.86852 13.2251 3.42081 12.7774 3.42081 12.2251Z"/>
        <path d="M4.42081 7.22507C3.86852 7.22507 3.42081 7.67278 3.42081 8.22507C3.42081 8.77735 3.86852 9.22507 4.42081 9.22507H11.5792C12.1314 9.22507 12.5792 8.77735 12.5792 8.22507C12.5792 7.67278 12.1314 7.22507 11.5792 7.22507H4.42081Z"/>
    </g>
</svg>
