<svg viewBox="0 0 16 16" fill="none" xmlns="http://www.w3.org/2000/svg">
    <g id="base">
        <path d="M10 0H10.2538C10.6809 0 11.0877 0.182017 11.3723 0.500421L14.1668 3.6272C14.3814 3.86728 14.5 4.178 14.5 4.5H13C11.3431 4.5 10 3.15685 10 1.5V0Z"  />
        <path fill-rule="evenodd" clip-rule="evenodd" d="M6.96003 6.35533C7.56247 5.88156 8.43753 5.88156 9.03997 6.35533L11.1103 7.98349C11.5698 8.34484 11.6319 8.98929 11.249 9.42291C10.8661 9.85653 10.1832 9.91512 9.72368 9.55377L9.08299 9.04992V11.978C9.08299 12.5424 8.59812 13 8 13C7.40188 13 6.91701 12.5424 6.91701 11.978V9.04992L6.27633 9.55377C5.81684 9.91512 5.13395 9.85653 4.75104 9.42291C4.36814 8.98929 4.43022 8.34484 4.8897 7.98349L6.96003 6.35533Z"  />
    </g>
    <path id="details" opacity="0.2" d="M3 0C2.17157 0 1.5 0.671573 1.5 1.5V13C1.5 14.6569 2.84315 16 4.5 16H11.5C13.1569 16 14.5 14.6569 14.5 13V4.57296C14.5 4.54858 14.4994 4.52425 14.4982 4.5H13C11.3431 4.5 10 3.15685 10 1.5V0H3Z"  />
</svg>
