<svg viewBox="0 0 16 16" fill="none" xmlns="http://www.w3.org/2000/svg">
    <g id="base">
        <path d="M10 0H10.2538C10.6809 0 11.0877 0.182017 11.3723 0.500421L14.1668 3.6272C14.3814 3.86728 14.5 4.178 14.5 4.5H13C11.3431 4.5 10 3.15685 10 1.5V0Z" />
        <path fill-rule="evenodd" clip-rule="evenodd" d="M9.48671 9.75921C9.24597 9.52419 9.19651 9.16821 9.26716 8.84307C9.43077 8.09009 9.21304 7.27393 8.61396 6.68908C7.67284 5.77031 6.14697 5.77031 5.20584 6.68908C4.26472 7.60785 4.26472 9.09748 5.20584 10.0162C5.80492 10.6011 6.64094 10.8137 7.41225 10.6539C7.74529 10.585 8.10993 10.6332 8.35067 10.8683L10.1287 12.604C10.4424 12.9103 10.951 12.9103 11.2647 12.604C11.5784 12.2978 11.5784 11.8012 11.2647 11.495L9.48671 9.75921ZM7.47792 7.79814C7.79163 8.10439 7.79163 8.60093 7.47792 8.90719C7.16421 9.21345 6.65559 9.21345 6.34188 8.90719C6.02817 8.60093 6.02817 8.10439 6.34188 7.79814C6.65559 7.49188 7.16421 7.49188 7.47792 7.79814Z" />
        <path d="M7.82411 12.1841C7.71954 12.082 7.71954 11.9165 7.82411 11.8144L8.77081 10.8902L9.90685 11.9992L8.96015 12.9234C8.85558 13.0255 8.68604 13.0255 8.58147 12.9234L7.82411 12.1841Z" />
    </g>
    <path id="details" opacity="0.2" d="M3 0C2.17157 0 1.5 0.671573 1.5 1.5V13C1.5 14.6569 2.84315 16 4.5 16H11.5C13.1569 16 14.5 14.6569 14.5 13V4.57296C14.5 4.54858 14.4994 4.52425 14.4982 4.5H13C11.3431 4.5 10 3.15685 10 1.5V0H3Z" />
</svg>
