<svg viewBox="0 0 16 16" fill="none" xmlns="http://www.w3.org/2000/svg">
    <g id="base">
        <path d="M1 4C1 3.44772 1.44772 3 2 3H14C14.5523 3 15 3.44772 15 4C15 4.55228 14.5523 5 14 5H2C1.44772 5 1 4.55228 1 4Z"/>
        <path d="M5 12C5 11.4477 5.44772 11 6 11H10C10.5523 11 11 11.4477 11 12C11 12.5523 10.5523 13 10 13H6C5.44772 13 5 12.5523 5 12Z"/>
    </g>
    <path id="details" opacity="0.6" d="M3 8C3 7.44772 3.44772 7 4 7H12C12.5523 7 13 7.44772 13 8C13 8.55228 12.5523 9 12 9H4C3.44772 9 3 8.55228 3 8Z"/>
</svg>
