<svg viewBox="0 0 16 16" fill="none" xmlns="http://www.w3.org/2000/svg">
    <path id="base" d="M0 8.4C0 6.15016 0 5.02524 0.572949 4.23664C0.757988 3.98196 0.98196 3.75799 1.23664 3.57295C2.02524 3 3.15016 3 5.4 3H10.1313C12.557 3 13.7698 3 14.5827 3.63292C14.8443 3.83661 15.0703 4.08225 15.2516 4.35986C15.8148 5.22248 15.7141 6.43114 15.5126 8.84844L15.4126 10.0484C15.2394 12.1267 15.1528 13.1659 14.5757 13.8822C14.3887 14.1143 14.1681 14.3172 13.9213 14.4843C13.1595 15 12.1168 15 10.0313 15H5.4C3.15016 15 2.02524 15 1.23664 14.4271C0.98196 14.242 0.757988 14.018 0.572949 13.7634C0 12.9748 0 11.8498 0 9.6V8.4Z"/>
    <path id="details" opacity="0.6" fill-rule="evenodd" clip-rule="evenodd" d="M0.0511115 2.11177C0 2.30252 0 2.53501 0 3V6.3C0 6.60453 0 6.86784 0.00568338 7.09775C0.0264511 5.68228 0.123106 4.8558 0.572949 4.23664C0.757988 3.98196 0.98196 3.75799 1.23664 3.57295C2.02524 3 3.15016 3 5.4 3H10.1184C9.62862 3 9.38374 3 9.1578 2.92658C9.08306 2.9023 9.01035 2.87218 8.94034 2.83651C8.72865 2.72865 8.5555 2.5555 8.2092 2.2092L8.20919 2.20919L7.79081 1.79081C7.4445 1.4445 7.27135 1.27135 7.05966 1.16349C6.98965 1.12782 6.91694 1.0977 6.84221 1.07342C6.61626 1 6.37138 1 5.88162 1H2C1.53501 1 1.30252 1 1.11177 1.05111C0.594134 1.18981 0.189812 1.59413 0.0511115 2.11177Z"/>
</svg>
