<?xml version="1.0" encoding="UTF-8"?>
<svg xmlns="http://www.w3.org/2000/svg" viewBox="0 0 16 16" fill="none">
    <path id="details" opacity="0.6" d="M12.6893 9.81187L12.263 9.38532C11.9496 9.07973 11.8995 8.8569 11.9371 8.52585L11.9774 8.19467C11.9994 8.01431 11.9368 7.83393 11.8084 7.70739C11.6732 7.57415 11.4819 7.51726 11.2973 7.55535L10.79 7.66001C10.276 7.76824 9.87485 7.62818 9.46115 7.21436L8.19499 5.92198C7.77502 5.48906 7.67473 5.01794 7.91292 4.39403L8.1236 3.83768C8.21867 3.58663 8.11966 3.29617 7.8677 3.21334C7.1493 2.9772 6.29837 3.07905 5.38685 3.34357C4.96688 3.45817 4.61587 3.31811 4.42155 3.05708C4.20844 2.7515 4.1959 2.29948 4.55945 1.92386C6.43363 0.00756356 9.93753 0.19219 11.7929 2.07029L13.0152 3.31174C13.5355 3.84015 13.7235 4.34947 13.6044 4.87788L13.5019 5.31683C13.4566 5.5107 13.5143 5.71452 13.6541 5.85434C13.7734 5.97376 13.9391 6.03273 14.1058 6.01509L14.4443 5.97928C14.7703 5.94744 14.9834 5.99201 15.2843 6.30396L15.7105 6.73688C16.0803 7.11887 16.0991 7.61545 15.7481 7.97197L13.9053 9.83733C13.548 10.2066 13.0716 10.1875 12.6893 9.81187Z"></path>
    <path id="base" d="M0.531333 14.7443C-0.248184 13.8707 -0.159186 12.5146 0.727607 11.7538L6.74119 6.59444C6.95357 6.41222 7.26798 6.42564 7.46457 6.62531L8.90994 8.09334C9.11285 8.29943 9.11949 8.63143 8.92499 8.84572L3.55933 14.7574C2.74229 15.6576 1.3408 15.6515 0.531333 14.7443Z"></path>
</svg>