<?xml version="1.0" encoding="UTF-8"?>
<svg xmlns="http://www.w3.org/2000/svg" viewBox="0 0 16 16" fill="none">
    <path opacity="0.6" d="M4.18245 0.572205C5.45881 0.58349 6.63403 1.1841 7.40593 2.16275C7.53602 2.32768 7.52803 2.55855 7.40331 2.72758L6.11548 4.47287C5.57748 5.2016 5.69909 6.22364 6.39338 6.80546L8.25387 8.36462L8.34204 8.45613C8.51819 8.68697 8.49477 9.02419 8.26838 9.22734L6.51727 10.7988C5.93281 11.3236 5.77945 12.1786 6.14562 12.8735L7.08303 14.6507C7.19256 14.8583 6.99047 15.072 6.78655 14.9557C4.42391 13.6081 0.000525531 9.54141 0.000525531 4.95279C-0.0380824 2.5737 1.83404 0.612891 4.18245 0.572205Z" id="details"></path>
    <path id="base" d="M11.8176 0.572205C14.166 0.612832 16.0381 2.57365 15.9995 4.95279C15.9995 9.61681 11.4297 13.7423 9.09886 15.0207C8.86756 15.1475 8.58451 15.049 8.46147 14.8157L7.15684 12.3412C7.03471 12.1096 7.08598 11.8242 7.28073 11.6492L9.03184 10.0789C9.75998 9.42572 9.78728 8.30931 9.12894 7.6202L8.98832 7.4885L7.12671 5.92935C6.8955 5.73546 6.85503 5.39428 7.03408 5.15145L9.67791 1.57153C9.98032 1.16205 10.3766 0.814035 10.8707 0.691887C11.1766 0.616288 11.4938 0.575062 11.8176 0.572205Z"></path>
</svg>