<svg xmlns="http://www.w3.org/2000/svg" viewBox="0 0 16 16" fill="none">
    <path id="base" fill-rule="evenodd" clip-rule="evenodd" d="M8 15.5C12.1421 15.5 15.5 12.1421 15.5 8C15.5 3.85786 12.1421 0.5 8 0.5C3.85786 0.5 0.5 3.85786 0.5 8C0.5 12.1421 3.85786 15.5 8 15.5ZM5.34474 6.40329C5.71282 6.70921 6.27855 6.68104 6.60918 6.34063L6.61441 6.3354C6.62073 6.32913 6.63182 6.31824 6.64736 6.30347C6.67852 6.27384 6.72699 6.22913 6.79007 6.17513C6.91776 6.06581 7.09731 5.92528 7.30746 5.79536C7.76782 5.51075 8.18318 5.39321 8.49164 5.46294C8.66786 5.50277 8.84328 5.59594 9.01834 5.74607C9.15343 5.86193 9.19928 6.00128 9.13033 6.2159C9.05187 6.46011 8.82714 6.73933 8.49995 6.91981L7.96481 7.21502C7.26694 7.59999 6.83933 8.29708 6.83933 9.04977C6.83933 9.50853 7.24059 9.88043 7.73556 9.88043C8.23054 9.88043 8.6318 9.50853 8.6318 9.04977C8.6318 8.88273 8.7267 8.72803 8.88157 8.6426L9.41671 8.3474C10.0914 7.97522 10.6289 7.37278 10.8483 6.69002C11.0771 5.97767 10.9564 5.14476 10.2357 4.52671C9.89798 4.23704 9.46018 3.97187 8.91638 3.84894C7.85569 3.60917 6.89058 4.05609 6.31278 4.41332C6.00384 4.60432 5.74988 4.80405 5.57383 4.95477C5.48504 5.03079 5.41408 5.09604 5.36379 5.14386C5.33859 5.16782 5.31845 5.18753 5.3037 5.20218L5.28564 5.22029L5.2797 5.22635L5.27751 5.22859L5.27585 5.2303C4.94539 5.57184 4.97624 6.09701 5.34474 6.40329ZM7.73571 12.2188C8.2522 12.2188 8.67089 11.8307 8.67089 11.352C8.67089 10.8733 8.2522 10.4852 7.73571 10.4852C7.21922 10.4852 6.80053 10.8733 6.80053 11.352C6.80053 11.8307 7.21922 12.2188 7.73571 12.2188Z"/>
</svg>
