<svg viewBox="0 0 16 16" fill="none" xmlns="http://www.w3.org/2000/svg">
    <g id="base">
        <path fill-rule="evenodd" clip-rule="evenodd" d="M6.51734 6.2291C6.1648 6.59306 5.56067 6.62343 5.16773 6.29684C4.77465 5.97014 4.74175 5.40997 5.09424 5.04565L5.80597 5.63719C5.09424 5.04565 5.09424 5.04565 5.09424 5.04565L5.09601 5.04383L5.09834 5.04144L5.10468 5.03498L5.12395 5.01565C5.13968 5.00003 5.16116 4.979 5.18804 4.95345C5.24169 4.90244 5.31737 4.83284 5.41209 4.75175C5.59987 4.59099 5.87076 4.37794 6.2003 4.1742C6.81662 3.79316 7.84607 3.31645 8.97748 3.57221C9.55752 3.70333 10.0245 3.98618 10.3848 4.29515C11.1535 4.95441 11.2823 5.84285 11.0381 6.60269C10.8042 7.33097 10.2308 7.97356 9.51116 8.37056L8.94034 8.68544C8.77514 8.77657 8.67392 8.94158 8.67392 9.11976C8.67392 9.6091 8.24591 10.0058 7.71794 10.0058C7.18996 10.0058 6.76195 9.6091 6.76195 9.11976C6.76195 8.31688 7.21807 7.57332 7.96246 7.16269L8.53328 6.8478C8.88228 6.65528 9.12199 6.35745 9.20568 6.09696C9.27923 5.86803 9.23032 5.71939 9.08623 5.59581C8.8995 5.43566 8.71238 5.33629 8.52442 5.2938C8.19539 5.21942 7.75235 5.3448 7.26129 5.64839C7.03714 5.78697 6.84561 5.93686 6.70941 6.05347C6.64213 6.11107 6.59042 6.15876 6.55718 6.19036C6.54061 6.20612 6.52878 6.21774 6.52204 6.22443L6.51586 6.23062L6.51734 6.2291ZM6.51586 6.23062V6.23062Z"/>
        <path d="M8.71562 11.5755C8.71562 12.0861 8.26901 12.5 7.71809 12.5C7.16717 12.5 6.72056 12.0861 6.72056 11.5755C6.72056 11.0649 7.16717 10.6509 7.71809 10.6509C8.26901 10.6509 8.71562 11.0649 8.71562 11.5755Z"/>
    </g>
    <path id="details" opacity="0.2" d="M16 8C16 12.4183 12.4183 16 8 16C3.58172 16 0 12.4183 0 8C0 3.58172 3.58172 0 8 0C12.4183 0 16 3.58172 16 8Z"/>
</svg>
