<?xml version="1.0" encoding="UTF-8"?>
<svg xmlns="http://www.w3.org/2000/svg" viewBox="0 0 16 16" fill="none">
    <g id="base">
        <path id="Subtract" fill-rule="evenodd" clip-rule="evenodd" d="M3.4657 13.5522C3.4657 14.4709 4.01688 15 4.90612 15H11.094C11.9833 15 12.5345 14.4709 12.5345 13.5522V13.4273C12.5345 11.9552 11.348 10.2508 10.4293 9.15162C9.8833 8.49838 9.88053 7.50756 10.4244 6.85252C11.3438 5.74514 12.5345 4.02853 12.5345 2.56535V2.50033C12.5345 1.6719 11.8629 1 11.0345 1H4.9657C4.13727 1 3.4657 1.6719 3.4657 2.50033V2.56535C3.4657 4.03066 4.65543 5.74583 5.57467 6.85237C6.11892 7.50751 6.11658 8.49885 5.57045 9.15242C4.65179 10.2518 3.4657 11.9561 3.4657 13.4273V13.5522ZM10.9326 12.842C11.1995 13.2012 10.9137 13.8008 10.4661 13.8008H5.57935C5.13223 13.8008 4.84259 13.1996 5.10629 12.8385C5.86801 11.7955 6.95092 10.3733 8.01103 10.3733C9.05919 10.3733 10.1564 11.7968 10.9326 12.842Z"></path>
    </g>
</svg>