<?xml version="1.0" encoding="UTF-8"?>
<svg xmlns="http://www.w3.org/2000/svg" viewBox="0 0 16 16" fill="none">
    <path id="base" d="M13.0829 0.79558C13.0829 0.356193 12.7267 0 12.2873 0C11.8479 0 11.4917 0.356193 11.4917 0.79558V2.5046C11.4917 2.73243 11.307 2.91713 11.0792 2.91713H9.37016C8.93078 2.91713 8.57458 3.27332 8.57458 3.71271C8.57458 4.15209 8.93078 4.50829 9.37017 4.50829H11.0792C11.307 4.50829 11.4917 4.69298 11.4917 4.92081V6.62984C11.4917 7.06922 11.8479 7.42542 12.2873 7.42542C12.7267 7.42542 13.0829 7.06922 13.0829 6.62983V4.92081C13.0829 4.69298 13.2676 4.50829 13.4954 4.50829H15.2044C15.6438 4.50829 16 4.15209 16 3.71271C16 3.27332 15.6438 2.91713 15.2044 2.91713H13.4954C13.2676 2.91713 13.0829 2.73243 13.0829 2.5046V0.79558Z"></path>
        <g opacity="0.6" id="details">
            <path d="M4.58691 8.5332C5.78667 8.5332 6.38706 8.53332 6.80762 8.83887C6.94322 8.93744 7.06256 9.05678 7.16113 9.19238C7.46668 9.61294 7.4668 10.2133 7.4668 11.4131V13.1201C7.4668 14.3199 7.46669 14.9203 7.16113 15.3408C7.06256 15.4764 6.94322 15.5958 6.80762 15.6943C6.38706 15.9999 5.78667 16 4.58691 16H2.87988C1.68005 16 1.07975 15.9999 0.65918 15.6943C0.52356 15.5958 0.404243 15.4764 0.305664 15.3408C0.000102162 14.9203 3.68056e-10 14.3199 0 13.1201V11.4131C1.3512e-09 10.2133 0.000111878 9.61294 0.305664 9.19238C0.404246 9.05678 0.523562 8.93744 0.65918 8.83887C1.07975 8.53331 1.68005 8.5332 2.87988 8.5332H4.58691Z"></path>
            <path d="M13.1201 8.5332C14.32 8.5332 14.9202 8.5333 15.3408 8.83887C15.4766 8.93752 15.5957 9.0576 15.6943 9.19336C15.9997 9.6139 16 10.2136 16 11.4131V13.1201C16 14.32 15.9999 14.9202 15.6943 15.3408C15.5958 15.4764 15.4764 15.5958 15.3408 15.6943C14.9202 15.9999 14.32 16 13.1201 16H11.4131C10.2136 16 9.6139 15.9997 9.19336 15.6943C9.0576 15.5957 8.93752 15.4766 8.83887 15.3408C8.5333 14.9202 8.5332 14.32 8.5332 13.1201V11.4131C8.5332 10.2137 8.53356 9.6139 8.83887 9.19336C8.93756 9.05753 9.05753 8.93756 9.19336 8.83887C9.6139 8.53356 10.2137 8.5332 11.4131 8.5332H13.1201Z"></path>
            <path d="M4.58691 0C5.7864 1.43839e-09 6.3861 0.000310391 6.80664 0.305664C6.9424 0.404298 7.06248 0.523439 7.16113 0.65918C7.4667 1.07975 7.4668 1.68005 7.4668 2.87988V4.58691C7.4668 5.78635 7.46644 6.3861 7.16113 6.80664C7.06245 6.94247 6.94247 7.06245 6.80664 7.16113C6.3861 7.46644 5.78635 7.4668 4.58691 7.4668H2.87988C1.68005 7.4668 1.07975 7.4667 0.65918 7.16113C0.523439 7.06248 0.404298 6.9424 0.305664 6.80664C0.000310153 6.3861 1.4384e-09 5.7864 0 4.58691V2.87988C3.21843e-10 1.68005 0.000101149 1.07975 0.305664 0.65918C0.404244 0.523558 0.523558 0.404244 0.65918 0.305664C1.07975 0.000101149 1.68005 3.23159e-10 2.87988 0H4.58691Z"></path>
        </g>
</svg>