<svg viewBox="0 0 16 16" fill="none" xmlns="http://www.w3.org/2000/svg">
    <path id="base" fill-rule="evenodd" clip-rule="evenodd" d="M11.1858 8.34982C10.6699 7.82781 10.5639 7.03711 10.7153 6.31494C11.0659 4.64243 10.5994 2.82961 9.31563 1.53056C7.29893 -0.510186 4.02922 -0.510186 2.01252 1.53056C-0.00417444 3.5713 -0.00417444 6.88 2.01252 8.92075C3.29626 10.2198 5.08773 10.6919 6.74053 10.3371C7.45419 10.184 8.23557 10.2912 8.75143 10.8132L12.5615 14.6687C13.2337 15.3489 14.3236 15.3489 14.9958 14.6687C15.6681 13.9884 15.6681 12.8855 14.9958 12.2053L11.1858 8.34982ZM6.88126 3.99396C7.55349 4.6742 7.55349 5.7771 6.88126 6.45735C6.20903 7.1376 5.11913 7.1376 4.44689 6.45735C3.77466 5.7771 3.77466 4.6742 4.44689 3.99396C5.11913 3.31371 6.20903 3.31371 6.88126 3.99396Z" />
    <path id="details" opacity="0.6" d="M8.50417 15.4898C7.83194 14.8096 7.83194 13.7067 8.50417 13.0264L9.72136 11.7947L12.1557 14.2581L10.9385 15.4898C10.2663 16.1701 9.17641 16.1701 8.50417 15.4898Z" />
</svg>
