<svg viewBox="0 0 16 16" fill="none" xmlns="http://www.w3.org/2000/svg">
    <path id="base" fill-rule="evenodd" clip-rule="evenodd" d="M1.5 8C1.5 6.34315 2.84315 5 4.5 5H11.5C13.1569 5 14.5 6.34314 14.5 7.99999C14.5 9.66666 14.5 11.3333 14.5 13C14.5 14.6569 13.1569 16 11.5 16H4.5C2.84315 16 1.5 14.6569 1.5 13C1.5 11.3333 1.5 9.66667 1.5 8ZM9.0925 10.0278C8.92526 10.2055 8.82797 10.458 8.9157 10.6856L9.73811 12.8202C9.8643 13.1478 9.62255 13.5 9.27154 13.5H6.72846C6.37745 13.5 6.1357 13.1478 6.26189 12.8202L7.0843 10.6856C7.17203 10.458 7.07474 10.2055 6.9075 10.0278C6.65483 9.75938 6.5 9.39777 6.5 9C6.5 8.17157 7.17157 7.5 8 7.5C8.82843 7.5 9.5 8.17157 9.5 9C9.5 9.39777 9.34517 9.75938 9.0925 10.0278Z" />
    <path id="details" opacity="0.4" d="M4 4C4 1.79086 5.79086 0 8 0C10.2091 0 12 1.79086 12 4V5H10V4C10 2.89543 9.10457 2 8 2C6.89543 2 6 2.89543 6 4V5H4V4Z" />    
</svg>
