<?xml version="1.0" encoding="UTF-8"?>
<svg xmlns="http://www.w3.org/2000/svg" viewBox="0 0 16 16" fill="none">
        <path id="base" fill-rule="evenodd" clip-rule="evenodd" d="M5.5 0.5C3.84315 0.5 2.5 1.84315 2.5 3.5V12.5C2.5 14.1569 3.84315 15.5 5.5 15.5H10.5C12.1569 15.5 13.5 14.1569 13.5 12.5V3.5C13.5 1.84315 12.1569 0.5 10.5 0.5H5.5ZM5.5 2C4.67157 2 4 2.67157 4 3.5V12.5C4 13.3284 4.67157 14 5.5 14H10.5C11.3284 14 12 13.3284 12 12.5V3.5C12 2.67157 11.3284 2 10.5 2H5.5Z"></path>
        <g opacity="0.6" id="details">
            <path d="M5.25 2.98169C4.97386 2.98169 4.75 3.20555 4.75 3.48169V3.98169C4.75 4.25783 4.97386 4.48169 5.25 4.48169H5.75C6.02614 4.48169 6.25 4.25783 6.25 3.98169V3.48169C6.25 3.20555 6.02614 2.98169 5.75 2.98169H5.25Z"></path>
            <path d="M5.25 5.5C4.97386 5.5 4.75 5.72386 4.75 6V6.5C4.75 6.77614 4.97386 7 5.25 7H5.75C6.02614 7 6.25 6.77614 6.25 6.5V6C6.25 5.72386 6.02614 5.5 5.75 5.5H5.25Z"></path>
            <path d="M4.75 8.5C4.75 8.22386 4.97386 8 5.25 8H5.75C6.02614 8 6.25 8.22386 6.25 8.5V9C6.25 9.27614 6.02614 9.5 5.75 9.5H5.25C4.97386 9.5 4.75 9.27614 4.75 9V8.5Z"></path>
            <path d="M7.75 2.98169C7.47386 2.98169 7.25 3.20555 7.25 3.48169V3.98169C7.25 4.25783 7.47386 4.48169 7.75 4.48169H8.25C8.52614 4.48169 8.75 4.25783 8.75 3.98169V3.48169C8.75 3.20555 8.52614 2.98169 8.25 2.98169H7.75Z"></path>
            <path d="M7.25 6C7.25 5.72386 7.47386 5.5 7.75 5.5H8.25C8.52614 5.5 8.75 5.72386 8.75 6V6.5C8.75 6.77614 8.52614 7 8.25 7H7.75C7.47386 7 7.25 6.77614 7.25 6.5V6Z"></path>
            <path d="M7.75 8C7.47386 8 7.25 8.22386 7.25 8.5V9C7.25 9.27614 7.47386 9.5 7.75 9.5H8.25C8.52614 9.5 8.75 9.27614 8.75 9V8.5C8.75 8.22386 8.52614 8 8.25 8H7.75Z"></path>
            <path d="M9.75 3.48169C9.75 3.20555 9.97386 2.98169 10.25 2.98169H10.75C11.0261 2.98169 11.25 3.20555 11.25 3.48169V3.98169C11.25 4.25783 11.0261 4.48169 10.75 4.48169H10.25C9.97386 4.48169 9.75 4.25783 9.75 3.98169V3.48169Z"></path>
            <path d="M10.25 5.5C9.97386 5.5 9.75 5.72386 9.75 6V6.5C9.75 6.77614 9.97386 7 10.25 7H10.75C11.0261 7 11.25 6.77614 11.25 6.5V6C11.25 5.72386 11.0261 5.5 10.75 5.5H10.25Z"></path>
        </g>
</svg>
