<?xml version="1.0" encoding="UTF-8"?>
<svg xmlns="http://www.w3.org/2000/svg" viewBox="0 0 16 16" fill="none">
    <g id="Name=moon" clip-path="url(#clip0_171_5)">
        <path id="base" fill-rule="evenodd" clip-rule="evenodd" d="M5.61593 3.22884C5.61559 4.16898 5.80049 5.09997 6.16008 5.96867C6.51967 6.83736 7.04691 7.62675 7.71168 8.29176C8.37646 8.95676 9.16576 9.48436 10.0345 9.84444C10.9033 10.2045 11.8345 10.39 12.7749 10.3903C13.4329 10.3771 14.0858 10.2715 14.7144 10.0767C14.8291 10.0442 14.9507 10.0455 15.0647 10.0804C15.1787 10.1153 15.2802 10.1823 15.357 10.2735C15.4338 10.3646 15.4826 10.476 15.4977 10.5942C15.5127 10.7124 15.4933 10.8325 15.4418 10.9399C14.9151 12.0871 14.1185 13.0899 13.1201 13.8626C12.1217 14.6353 10.9511 15.1551 9.70816 15.3776C8.46524 15.6 7.18693 15.5185 5.98234 15.1401C4.77775 14.7616 3.68265 14.0974 2.7905 13.2041C1.89836 12.3109 1.23567 11.2151 0.858984 10.0104C0.482302 8.8056 0.402818 7.52761 0.627316 6.28549C0.851813 5.04336 1.37363 3.87397 2.14822 2.87714C2.92281 1.8803 3.92717 1.08562 5.07559 0.560915C5.1832 0.509345 5.30341 0.489909 5.42179 0.504941C5.54017 0.519973 5.6517 0.568834 5.74299 0.64566C5.83428 0.722485 5.90146 0.824013 5.93646 0.938059C5.97146 1.0521 5.9728 1.17382 5.94031 1.28861C5.74173 1.91696 5.63253 2.5701 5.61593 3.22884Z"></path>
        <path opacity="0.4" fill-rule="evenodd" clip-rule="evenodd" d="M13.8242 4.35888C13.607 4.5203 13.4984 4.60101 13.4449 4.71399C13.4275 4.75094 13.4146 4.78989 13.4066 4.82997C13.3821 4.95253 13.4212 5.08208 13.4994 5.34117L13.9056 6.68792C13.9211 6.73543 13.9216 6.78683 13.9071 6.83468C13.8927 6.88253 13.864 6.92434 13.8252 6.95406C13.7864 6.98378 13.7395 6.99987 13.6913 7C13.6432 7.00013 13.5962 6.98428 13.5573 6.95477L12.553 6.16637C12.3166 5.98085 12.1985 5.88809 12.0633 5.87002C12.0192 5.86414 11.9745 5.86415 11.9305 5.87007C11.7953 5.88824 11.6772 5.98108 11.441 6.16677L10.4395 6.9541C10.4005 6.98339 10.3535 6.99899 10.3054 6.99866C10.2573 6.99832 10.2105 6.98205 10.1719 6.95222C10.1332 6.92238 10.1047 6.88051 10.0903 6.83267C10.076 6.78483 10.0767 6.73348 10.0922 6.68606L10.4959 5.3414C10.5733 5.08335 10.6121 4.95433 10.5878 4.83222C10.5798 4.79227 10.567 4.75345 10.5497 4.71662C10.4966 4.604 10.3887 4.52331 10.1729 4.36194L9.09576 3.55624C9.05649 3.52691 9.02711 3.48542 9.01181 3.43768C8.99651 3.38994 8.99606 3.33838 9.01054 3.29036C9.02501 3.24234 9.05366 3.20031 9.09242 3.17024C9.13117 3.14017 9.17804 3.12361 9.22636 3.12291H10.511C10.794 3.12291 10.9355 3.12291 11.0489 3.05979C11.0859 3.03917 11.1202 3.01393 11.1508 2.98467C11.2447 2.89508 11.2867 2.75995 11.3706 2.4897L11.7818 1.16487C11.7961 1.11709 11.8246 1.07532 11.8633 1.04566C11.902 1.016 11.9488 1 11.9968 1C12.0448 1 12.0916 1.016 12.1303 1.04566C12.169 1.07532 12.1976 1.11709 12.2118 1.16487L12.623 2.4897C12.7069 2.75995 12.7489 2.89508 12.8428 2.98467C12.8734 3.01393 12.9077 3.03917 12.9447 3.05979C13.0581 3.12291 13.1996 3.12291 13.4826 3.12291H14.7737C14.822 3.12361 14.8689 3.14019 14.9076 3.17028C14.9464 3.20036 14.975 3.24243 14.9895 3.29047C15.004 3.33852 15.0035 3.39009 14.9881 3.43783C14.9728 3.48558 14.9434 3.52706 14.9041 3.55637L13.8242 4.35888Z" id="details"></path>
    </g>
    <defs>
        <clipPath id="clip0_171_5">
            <rect width="16" height="16" fill="white"></rect>
        </clipPath>
    </defs>
</svg>