<?xml version="1.0" encoding="UTF-8"?>
<svg xmlns="http://www.w3.org/2000/svg" viewBox="0 0 16 16" fill="none">
    <path fill-rule="evenodd" clip-rule="evenodd" d="M1.56306 11.5344C2.23664 11.3621 2.71809 10.7799 2.75163 10.097L3.30939 5.49047C3.52737 3.74114 4.74004 2.27806 6.41559 1.70329C6.61027 1.6365 6.74851 1.46495 6.82716 1.27474C7.03524 0.771504 7.56484 0.444186 8.14139 0.507908C8.61084 0.559795 9.00115 0.861241 9.17238 1.27481C9.25112 1.46499 9.38944 1.6365 9.58414 1.70329C11.2597 2.27802 12.4724 3.74106 12.6905 5.49038L13.2482 10.0969C13.2818 10.7798 13.7633 11.362 14.4369 11.5343C14.8418 11.6407 15.0823 12.0493 14.974 12.4471C14.8843 12.7767 14.5781 13.0044 14.2307 12.9999H1.76901C1.34984 13.0053 1.00558 12.676 1.00007 12.2643C0.9955 11.9231 1.22746 11.6225 1.56306 11.5344Z" id="base"></path>
    <path opacity="0.6" fill-rule="evenodd" clip-rule="evenodd" d="M7.9997 15.5C7.00771 15.5021 6.17834 14.7598 6.08856 13.7895C6.08379 13.7034 6.15093 13.6299 6.23852 13.6252C6.24213 13.625 6.24575 13.6249 6.24936 13.625H9.7501C9.83783 13.6237 9.90998 13.6926 9.91125 13.7787C9.9113 13.7823 9.91123 13.7859 9.91103 13.7895C9.8212 14.7598 8.99174 15.5021 7.9997 15.5Z" id="details"></path>
</svg>