<?xml version="1.0" encoding="UTF-8"?>
<svg xmlns="http://www.w3.org/2000/svg" viewBox="0 0 16 16" fill="none">
    <g clip-path="url(#clip0_286_1136)" id="base">
        <path d="M9.0863 1C10.1178 1.00003 11.0562 1.11233 11.9017 1.33594C12.7519 1.5596 13.4807 1.87826 14.0873 2.29297C14.6983 2.70768 15.1702 3.20444 15.5023 3.78223C15.8342 4.3599 16.0004 5.00287 16.0004 5.71094C16.0004 6.19088 15.907 6.60343 15.7211 6.94824C15.5351 7.29297 15.294 7.58902 14.9974 7.83594C14.8195 7.98631 14.6348 8.12479 14.4437 8.25098C14.2005 8.4116 13.9209 8.50533 13.6342 8.55762L12.4457 8.77441C10.5763 9.11545 10.5076 11.7704 12.3568 12.208C12.8842 12.3329 13.2941 12.8338 13.0297 13.3066C12.9383 13.4698 12.8187 13.6242 12.6722 13.7695C12.2826 14.1563 11.7381 14.4575 11.0385 14.6719C10.3433 14.8908 9.52828 15 8.59412 15C7.3146 15 6.14785 14.8347 5.09412 14.5039C4.04474 14.1777 3.13889 13.7112 2.37732 13.1055C1.61595 12.4951 1.02926 11.768 0.617554 10.9248C0.205862 10.0815 0.000366211 9.14708 0.000366211 8.12207C0.00039956 7.05518 0.216924 6.08609 0.650757 5.21484C1.08469 4.33882 1.70283 3.58826 2.50427 2.96387C3.31008 2.33492 4.269 1.84988 5.38025 1.50977C6.49593 1.16971 7.73159 1 9.0863 1ZM7.52869 8.5C6.54633 8.50007 5.75037 9.29693 5.75037 10.2793C5.75063 11.2614 6.5465 12.0576 7.52869 12.0576C8.51093 12.0576 9.30772 11.2615 9.30798 10.2793C9.30798 9.29689 8.5111 8.5 7.52869 8.5ZM3.04919 6.41895C2.34293 6.41895 1.7699 6.991 1.7699 7.69727C1.7699 8.40353 2.34293 8.97656 3.04919 8.97656C3.75535 8.97643 4.32751 8.40345 4.32751 7.69727C4.32751 6.99108 3.75535 6.41907 3.04919 6.41895ZM5.69177 3.58594C5.3022 3.58598 4.97017 3.7285 4.69568 4.0127C4.42123 4.29225 4.28357 4.63253 4.28357 5.0332C4.28363 5.44772 4.42131 5.7969 4.69568 6.08105C4.97017 6.3606 5.3022 6.50094 5.69177 6.50098C6.07257 6.50098 6.39824 6.36064 6.66833 6.08105C6.94268 5.79691 7.08039 5.44771 7.08044 5.0332C7.08044 4.63254 6.94277 4.29225 6.66833 4.0127C6.39824 3.72846 6.07257 3.58594 5.69177 3.58594ZM12.6127 3.85938C11.9065 3.85938 11.3335 4.43157 11.3334 5.1377C11.3334 5.84396 11.9064 6.41699 12.6127 6.41699C13.3189 6.41693 13.891 5.84392 13.891 5.1377C13.8908 4.43161 13.3188 3.85944 12.6127 3.85938ZM9.23181 3.04785C8.92637 3.0479 8.66071 3.16235 8.43494 3.39062C8.21374 3.61881 8.10301 3.89577 8.10291 4.22168C8.10291 4.5478 8.21363 4.82541 8.43494 5.05371C8.66071 5.28199 8.92637 5.39644 9.23181 5.39648C9.54176 5.39648 9.80586 5.28204 10.0228 5.05371C10.2396 4.82545 10.348 4.5477 10.348 4.22168C10.3479 3.89587 10.2395 3.61877 10.0228 3.39062C9.80586 3.1623 9.54176 3.04785 9.23181 3.04785Z"></path>
    </g>
    <defs>
        <clipPath id="clip0_286_1136">
            <rect width="16" height="16" fill="white"></rect>
        </clipPath>
    </defs>
</svg>