<?xml version="1.0" encoding="UTF-8"?>
<svg xmlns="http://www.w3.org/2000/svg" viewBox="0 0 16 16" fill="none">
    <path id="base" d="M4.92859 14C4.10016 14 3.42859 13.3284 3.42859 12.5V3.5C3.42859 2.67157 4.10016 2 4.92859 2H5.6933C6.52172 2 7.1933 2.67157 7.1933 3.5V12.5C7.1933 13.3284 6.52172 14 5.6933 14H4.92859ZM10.3067 14C9.47831 14 8.80674 13.3284 8.80674 12.5V3.5C8.80674 2.67157 9.47831 2 10.3067 2H11.0714C11.8999 2 12.5714 2.67157 12.5714 3.5V12.5C12.5714 13.3284 11.8999 14 11.0714 14H10.3067Z"></path>
</svg>