<svg xmlns="http://www.w3.org/2000/svg" viewBox="0 0 16 16" fill="none">
    <path id="base" d="M5.68895 12.7993C5.43773 13.058 5.14191 13.2694 4.8157 13.4231L1.51888 14.9771C1.22876 15.0872 0.907287 14.7806 1.0249 14.466L2.36301 11.0364C2.51813 10.6388 2.75629 10.2789 3.0616 9.98073L10.2768 2.93336C10.4753 2.73948 10.7936 2.7443 10.9862 2.9441L12.7783 4.80381C12.9654 4.998 12.9648 5.30559 12.777 5.49906L5.68895 12.7993Z" />
    <path id="details" opacity="0.6" d="M14.1626 3.85525C13.9829 4.11495 13.6103 4.14494 13.3913 3.91733L11.8724 2.33887C11.6478 2.10547 11.701 1.72339 11.9808 1.56024L12.5078 1.25296C13.0638 0.928815 13.765 0.997919 14.2469 1.42435V1.42435C14.8125 1.92475 14.9147 2.76896 14.4849 3.38984L14.1626 3.85525Z" />
</svg>
