<?xml version="1.0" encoding="UTF-8"?>
<svg xmlns="http://www.w3.org/2000/svg" viewBox="0 0 16 16" fill="none">
    <g id="people">
        <g opacity="0.4" id="details">
            <path d="M12.1686 11C11.9461 11 11.7572 10.8436 11.6803 10.6322C11.4691 10.051 11.1057 9.507 10.6118 9.04705C10.3466 8.80014 10.0523 8.55699 9.72832 8.32836C9.44631 8.12935 9.41124 7.70707 9.70346 7.52379C10.3546 7.11544 11.1701 6.82144 12.1686 6.82144C13.6024 6.82144 14.6587 7.42753 15.393 8.10799C16.4632 9.0999 16.0652 10.5871 14.6149 10.8269C13.9905 10.9302 13.1905 11 12.1686 11Z"></path>
            <path d="M14.4566 4.24999C14.4566 5.49263 13.4322 6.49998 12.1686 6.49998C10.905 6.49998 9.88069 5.49263 9.88069 4.24999C9.88069 3.00736 10.905 2 12.1686 2C13.4322 2 14.4566 3.00736 14.4566 4.24999Z"></path>
        </g>
        <path id="base" fill-rule="evenodd" clip-rule="evenodd" d="M5.14669 8C6.84411 8 8.22014 6.65686 8.22014 5C8.22014 3.34315 6.84411 2 5.14669 2C3.44927 2 2.07324 3.34315 2.07324 5C2.07324 6.65686 3.44927 8 5.14669 8ZM0.815402 10.144C-0.622331 11.4666 -0.0876786 13.4495 1.86055 13.7693C2.69932 13.9069 3.774 14 5.14673 14C6.51945 14 7.59414 13.9069 8.43291 13.7693C10.3811 13.4495 10.9158 11.4666 9.47805 10.144C8.49175 9.23672 7.07268 8.4286 5.14673 8.4286C3.22077 8.4286 1.8017 9.23672 0.815402 10.144Z"></path>
    </g>
</svg>