<?xml version="1.0" encoding="UTF-8"?>
<svg xmlns="http://www.w3.org/2000/svg" viewBox="0 0 16 16" fill="none">
    <path fill-rule="evenodd" clip-rule="evenodd" d="M5.14669 8.0008C6.84411 8.0008 8.22014 6.65765 8.22014 5.00079C8.22014 3.34394 6.84411 2.00079 5.14669 2.00079C3.44927 2.00079 2.07324 3.34394 2.07324 5.00079C2.07324 6.65765 3.44927 8.0008 5.14669 8.0008ZM0.815402 10.1448C-0.622331 11.4674 -0.0876786 13.4503 1.86055 13.7701C2.69932 13.9077 3.774 14.0008 5.14673 14.0008C6.51945 14.0008 7.59414 13.9077 8.43291 13.7701C10.3811 13.4503 10.9158 11.4674 9.47805 10.1448C8.49175 9.23752 7.07268 8.42939 5.14673 8.42939C3.22077 8.42939 1.8017 9.23751 0.815402 10.1448Z" id="base"></path>
    <path opacity="0.6" d="M13.1431 3.42938C13.6689 3.42953 14.0952 3.85574 14.0953 4.38153V5.33368H15.0474C15.5734 5.33368 15.9996 5.76082 15.9996 6.2868C15.9994 6.81266 15.5733 7.23895 15.0474 7.23895H14.0953V8.1911C14.0953 8.71699 13.669 9.1431 13.1431 9.14325C12.6171 9.14325 12.19 8.71709 12.19 8.1911V7.23895H11.2379C10.7121 7.23882 10.2859 6.81258 10.2857 6.2868C10.2857 5.7609 10.712 5.33381 11.2379 5.33368H12.19V4.38153C12.1901 3.85564 12.6172 3.42938 13.1431 3.42938Z" id="details"></path>
</svg>