<?xml version="1.0" encoding="UTF-8"?>
<svg xmlns="http://www.w3.org/2000/svg" viewBox="0 0 16 16" fill="none">
    <path id="base" fill-rule="evenodd" clip-rule="evenodd" d="M5.14669 9.0008C6.84411 9.0008 8.22014 7.65765 8.22014 6.00079C8.22014 4.34394 6.84411 3.00079 5.14669 3.00079C3.44927 3.00079 2.07324 4.34394 2.07324 6.00079C2.07324 7.65765 3.44927 9.0008 5.14669 9.0008ZM0.815402 11.1448C-0.622331 12.4674 -0.0876786 14.4503 1.86055 14.7701C2.69932 14.9077 3.774 15.0008 5.14673 15.0008C6.51945 15.0008 7.59414 14.9077 8.43291 14.7701C10.3811 14.4503 10.9158 12.4674 9.47805 11.1448C8.49175 10.2375 7.07268 9.42939 5.14673 9.42939C3.22077 9.42939 1.8017 10.2375 0.815402 11.1448Z"></path>
        <path opacity="0.6" d="M13.5511 4.18536C13.704 4.18551 13.8337 4.29668 13.8665 4.44611C13.9263 4.71851 14.0072 4.9988 14.0823 5.23615C14.204 5.62098 14.5201 5.90734 14.9085 6.0174L15.7464 6.2547C15.8966 6.29746 16.0003 6.43541 16.0003 6.59161C16.0001 6.74947 15.8939 6.88746 15.7415 6.92853L15.0159 7.12286C14.5666 7.24335 14.2136 7.59212 14.0872 8.03986L13.8889 8.74298C13.846 8.89528 13.7064 9.00079 13.5481 9.00079C13.3895 9.0006 13.2508 8.89479 13.2083 8.742L13.0188 8.06036C12.9008 7.63452 12.5722 7.29886 12.1487 7.17267L11.3489 6.93439C11.1989 6.8897 11.096 6.75207 11.096 6.59552C11.096 6.43674 11.2018 6.29742 11.3548 6.2547L12.2151 6.01447C12.6007 5.90675 12.9134 5.6212 13.0296 5.2381C13.1013 5.00145 13.1779 4.72171 13.2327 4.45197C13.2638 4.29968 13.3956 4.18536 13.5511 4.18536ZM10.6155 1.00079C10.7074 1.00079 10.7862 1.06733 10.8059 1.15704C10.8419 1.32057 10.8898 1.4892 10.9348 1.63165C11.0079 1.86246 11.198 2.03439 11.4309 2.1004L11.9329 2.242C12.0231 2.26758 12.0852 2.35037 12.0852 2.44415C12.0852 2.53906 12.0216 2.62172 11.93 2.6463L11.4954 2.76349C11.2257 2.83575 11.0136 3.04461 10.9378 3.31329L10.8186 3.73517C10.7928 3.82655 10.7095 3.89044 10.6145 3.89044C10.5192 3.89043 10.4359 3.82604 10.4104 3.73419L10.2971 3.32599C10.2263 3.07046 10.0288 2.86849 9.77469 2.79279L9.29422 2.65021C9.20448 2.62331 9.14297 2.54077 9.14285 2.44708C9.14285 2.35181 9.20637 2.26764 9.29813 2.242L9.81473 2.09845C10.046 2.03383 10.2332 1.86231 10.303 1.63263C10.346 1.49065 10.3922 1.32278 10.4251 1.16095C10.4436 1.0696 10.5223 1.00098 10.6155 1.00079Z" id="details"></path>
</svg>