<svg width="16" height="16" viewBox="0 0 16 16" fill="none" xmlns="http://www.w3.org/2000/svg">

<rect id="details" opacity="0.2" y="0.103077" width="16" height="16" rx="3"/>
<path id="base" d="M8.96429 4.46429C8.96429 3.93173 8.53256 3.5 8 3.5C7.46744 3.5 7.03571 3.93173 7.03571 4.46429V6.53571C7.03571 6.81186 6.81186 7.03571 6.53571 7.03571H4.46429C3.93173 7.03571 3.5 7.46744 3.5 8C3.5 8.53256 3.93173 8.96429 4.46429 8.96429H6.53571C6.81186 8.96429 7.03571 9.18814 7.03571 9.46429V11.5357C7.03571 12.0683 7.46744 12.5 8 12.5C8.53256 12.5 8.96429 12.0683 8.96429 11.5357V9.46429C8.96429 9.18814 9.18814 8.96429 9.46429 8.96429H11.5357C12.0683 8.96429 12.5 8.53256 12.5 8C12.5 7.46744 12.0683 7.03571 11.5357 7.03571H9.46429C9.18814 7.03571 8.96429 6.81186 8.96429 6.53571V4.46429Z" />

</svg>
