<svg xmlns="http://www.w3.org/2000/svg" viewBox="0 0 16 16" fill="none">
    <path id="base" fill-rule="evenodd" clip-rule="evenodd" d="M8 16C12.4183 16 16 12.4183 16 8C16 3.58172 12.4183 0 8 0C3.58172 0 0 3.58172 0 8C0 12.4183 3.58172 16 8 16ZM8 3.5C8.53256 3.5 8.96429 3.93173 8.96429 4.46429V6.53571C8.96429 6.81186 9.18814 7.03571 9.46429 7.03571H11.5357C12.0683 7.03571 12.5 7.46744 12.5 8C12.5 8.53256 12.0683 8.96429 11.5357 8.96429H9.46429C9.18814 8.96429 8.96429 9.18814 8.96429 9.46429V11.5357C8.96429 12.0683 8.53256 12.5 8 12.5C7.46744 12.5 7.03571 12.0683 7.03571 11.5357V9.46429C7.03571 9.18814 6.81186 8.96429 6.53571 8.96429H4.46429C3.93173 8.96429 3.5 8.53256 3.5 8C3.5 7.46744 3.93173 7.03571 4.46429 7.03571H6.53571C6.81186 7.03571 7.03571 6.81186 7.03571 6.53571V4.46429C7.03571 3.93173 7.46744 3.5 8 3.5Z"/>
</svg>
