<svg xmlns="http://www.w3.org/2000/svg" viewBox="0 0 16 16" fill="none">
    <path id="base" d="M9.5 2.5C9.5 1.67157 8.82843 1 8 1V1C7.17157 1 6.5 1.67157 6.5 2.5V6C6.5 6.27614 6.27614 6.5 6 6.5H2.5C1.67157 6.5 1 7.17157 1 8V8C1 8.82843 1.67157 9.5 2.5 9.5H6C6.27614 9.5 6.5 9.72386 6.5 10V13.5C6.5 14.3284 7.17157 15 8 15V15C8.82843 15 9.5 14.3284 9.5 13.5V10C9.5 9.72386 9.72386 9.5 10 9.5H13.5C14.3284 9.5 15 8.82843 15 8V8C15 7.17157 14.3284 6.5 13.5 6.5H10C9.72386 6.5 9.5 6.27614 9.5 6V2.5Z"/>
</svg>
