<?xml version="1.0" encoding="UTF-8"?>
<svg width="14" height="14" viewBox="0 0 14 14" fill="none" xmlns="http://www.w3.org/2000/svg">
    <g id="base">
        <path d="M7 14C6.02778 14 5.11715 13.8153 4.26813 13.4458C3.41896 13.0764 2.68007 12.5773 2.05146 11.9485C1.42271 11.3199 0.923611 10.581 0.554167 9.73188C0.184722 8.88285 0 7.97222 0 7C0 6.02778 0.184722 5.11715 0.554167 4.26813C0.923611 3.41896 1.42271 2.68007 2.05146 2.05146C2.68007 1.42271 3.41896 0.923611 4.26813 0.554166C5.11715 0.184722 6.02778 0 7 0C8.125 0 9.16319 0.243056 10.1146 0.729167C11.066 1.21528 11.8611 1.875 12.5 2.70833V0.75C12.5 0.5375 12.5715 0.359374 12.7144 0.215624C12.8573 0.0718745 13.0344 0 13.2456 0C13.4569 0 13.6354 0.0718745 13.7812 0.215624C13.9271 0.359374 14 0.5375 14 0.75V4.25C14 4.4625 13.9281 4.64063 13.7844 4.78438C13.6406 4.92813 13.4625 5 13.25 5H9.75C9.5375 5 9.35938 4.92854 9.21562 4.78563C9.07187 4.64271 9 4.46563 9 4.25438C9 4.04313 9.07187 3.86458 9.21562 3.71875C9.35938 3.57292 9.5375 3.5 9.75 3.5H11.2292C10.7304 2.87778 10.1162 2.38889 9.38646 2.03333C8.6566 1.67778 7.86111 1.5 7 1.5C5.48611 1.5 4.19097 2.03819 3.11458 3.11458C2.03819 4.19097 1.5 5.48611 1.5 7C1.5 8.51389 2.03819 9.80903 3.11458 10.8854C4.19097 11.9618 5.48611 12.5 7 12.5C8.41667 12.5 9.64236 12.0312 10.6771 11.0938C11.7118 10.1562 12.3056 9 12.4583 7.625C12.4861 7.43056 12.5764 7.27778 12.7292 7.16667C12.8819 7.05556 13.056 7 13.2513 7C13.4588 7 13.6354 7.06597 13.7812 7.19792C13.9271 7.32986 13.9861 7.49306 13.9583 7.6875C13.7778 9.46528 13.0312 10.9618 11.7188 12.1771C10.4062 13.3924 8.83333 14 7 14ZM7.75 6.375L9.625 8.25C9.77778 8.40278 9.85069 8.57639 9.84375 8.77083C9.83681 8.96528 9.75694 9.13889 9.60417 9.29167C9.45139 9.44444 9.27431 9.52083 9.07292 9.52083C8.87153 9.52083 8.69444 9.44444 8.54167 9.29167L6.48521 7.23521C6.41174 7.16174 6.35417 7.07854 6.3125 6.98563C6.27083 6.89271 6.25 6.79674 6.25 6.69771V3.74333C6.25 3.53264 6.32292 3.35611 6.46875 3.21375C6.61458 3.07125 6.79167 3 7 3C7.20833 3 7.38542 3.07187 7.53125 3.21562C7.67708 3.35937 7.75 3.5375 7.75 3.75V6.375Z"/>
    </g>
    <path id="details" opacity="0.2" d="M7 14C6.02778 14 5.11715 13.8153 4.26813 13.4458C3.41896 13.0764 2.68007 12.5773 2.05146 11.9485C1.42271 11.3199 0.923611 10.581 0.554167 9.73188C0.184722 8.88285 0 7.97222 0 7C0 6.02778 0.184722 5.11715 0.554167 4.26813C0.923611 3.41896 1.42271 2.68007 2.05146 2.05146C2.68007 1.42271 3.41896 0.923611 4.26813 0.554166C5.11715 0.184722 6.02778 0 7 0C8.125 0 9.16319 0.243056 10.1146 0.729167C11.066 1.21528 11.8611 1.875 12.5 2.70833V0.75C12.5 0.5375 12.5715 0.359374 12.7144 0.215624C12.8573 0.0718745 13.0344 0 13.2456 0C13.4569 0 13.6354 0.0718745 13.7812 0.215624C13.9271 0.359374 14 0.5375 14 0.75V4.25C14 4.4625 13.9281 4.64063 13.7844 4.78438C13.6406 4.92813 13.4625 5 13.25 5H9.75C9.5375 5 9.35938 4.92854 9.21562 4.78563C9.07187 4.64271 9 4.46563 9 4.25438C9 4.04313 9.07187 3.86458 9.21562 3.71875C9.35938 3.57292 9.5375 3.5 9.75 3.5H11.2292C10.7304 2.87778 10.1162 2.38889 9.38646 2.03333C8.6566 1.67778 7.86111 1.5 7 1.5C5.48611 1.5 4.19097 2.03819 3.11458 3.11458C2.03819 4.19097 1.5 5.48611 1.5 7C1.5 8.51389 2.03819 9.80903 3.11458 10.8854C4.19097 11.9618 5.48611 12.5 7 12.5C8.41667 12.5 9.64236 12.0312 10.6771 11.0938C11.7118 10.1562 12.3056 9 12.4583 7.625C12.4861 7.43056 12.5764 7.27778 12.7292 7.16667C12.8819 7.05556 13.056 7 13.2513 7C13.4588 7 13.6354 7.06597 13.7812 7.19792C13.9271 7.32986 13.9861 7.49306 13.9583 7.6875C13.7778 9.46528 13.0312 10.9618 11.7188 12.1771C10.4062 13.3924 8.83333 14 7 14Z"/>
</svg>
