<svg xmlns="http://www.w3.org/2000/svg" viewBox="0 0 16 16" fill="none">
    <path id="base" d="M13.7517 9.24831C13.7517 6.06907 11.1792 3.49661 8.00001 3.49661C7.82224 3.49661 7.70982 3.26636 7.83775 3.14292L8.66999 2.33995C8.80904 2.2009 8.89121 2.03025 8.89121 1.80903C8.89121 1.36027 8.54358 1 8.10746 1C7.88624 1 7.70295 1.08217 7.55758 1.23386C6.783 2.02363 5.43253 3.48806 4.82175 4.15335C4.64346 4.34755 4.6473 4.64534 4.83017 4.83524C5.51964 5.55121 7.10469 7.19598 7.55758 7.65553C7.70295 7.79458 7.87992 7.87043 8.10114 7.87043C8.54358 7.87043 8.89121 7.5228 8.89121 7.08036C8.89121 6.85914 8.80904 6.69481 8.66999 6.55576L7.79533 5.69302C7.57416 5.47487 7.68936 5.12099 8.00001 5.12099C10.2754 5.12099 12.1273 6.96659 12.1273 9.24831C12.1273 11.5237 10.2754 13.3693 8.00001 13.3693C5.72462 13.3693 3.8727 11.5237 3.8727 9.24831C3.8727 8.74898 3.54403 8.40767 3.07631 8.40767C2.59595 8.40767 2.24832 8.74898 2.24832 9.24831C2.24832 12.4275 4.82078 15 8.00001 15C11.1792 15 13.7517 12.4275 13.7517 9.24831Z" />
    <circle id="details" opacity="0.6" cx="3.13609" cy="6.20069" r="1.27419" />
</svg>
