<?xml version="1.0" encoding="UTF-8"?>
<svg xmlns="http://www.w3.org/2000/svg" viewBox="0 0 16 16" fill="none">
    <path opacity="0.6" fill-rule="evenodd" clip-rule="evenodd" d="M8 5C9.65683 5 11 6.34318 11 8C11 9.65683 9.65683 11 8 11C6.34317 11 5 9.65683 5 8C5.00001 6.34318 6.34317 5 8 5ZM8 6.91339C7.40003 6.91339 6.91341 7.40003 6.91339 8C6.91339 8.59998 7.40001 9.08661 8 9.08661C8.59998 9.08661 9.08661 8.59998 9.08661 8C9.08659 7.40003 8.59997 6.91339 8 6.91339Z" id="details"></path>
    <path id="base" fill-rule="evenodd" clip-rule="evenodd" d="M8.87107 0.064579C9.03444 -0.00867933 9.21373 -0.0197642 9.40742 0.0321144L10.7783 0.399063C10.972 0.450954 11.1193 0.549415 11.2192 0.693212C11.3238 0.838256 11.3736 1.01125 11.3678 1.21166L11.3255 2.50139C11.3159 2.79629 11.4643 3.07074 11.6994 3.24906C11.9194 3.41148 12.2012 3.48301 12.4631 3.4045L13.7415 3.02181C13.927 2.96513 14.0961 2.97019 14.2483 3.03755C14.4056 3.10628 14.5372 3.22149 14.643 3.38285L15.3614 4.6047C15.4645 4.77593 15.4989 4.94783 15.4637 5.11922C15.4284 5.29059 15.3391 5.44539 15.196 5.58258L14.2365 6.49847C14.0434 6.68298 13.9504 6.9487 13.9836 7.21368C14.0299 7.50733 14.1908 7.77698 14.452 7.91904L15.5651 8.52407C15.7418 8.61929 15.8647 8.74777 15.9331 8.90971C16.0078 9.06793 16.02 9.24165 15.9696 9.43012L15.6074 10.7789C15.5555 10.9724 15.4572 11.1217 15.3122 11.2265C15.1733 11.3277 15.0031 11.375 14.8024 11.3691L13.4866 11.3337C13.2105 11.3262 12.9528 11.4639 12.7859 11.684C12.6258 11.9099 12.5568 12.1939 12.6363 12.4592L13.0064 13.6909C13.073 13.8789 13.072 14.0596 13.0044 14.2329C12.9416 14.4076 12.825 14.545 12.655 14.6432L11.4386 15.3387C11.2686 15.4368 11.0939 15.4697 10.9161 15.438C10.7434 15.4076 10.5907 15.322 10.4585 15.1803L9.56291 14.2388C9.37138 14.0376 9.09109 13.9499 8.81497 13.9811C8.52514 14.0138 8.26443 14.1799 8.12609 14.4366L7.52183 15.559C7.42524 15.7407 7.29511 15.8655 7.1331 15.9339C6.97483 16.0084 6.7991 16.02 6.60561 15.9683L5.23374 15.6013C5.04012 15.5494 4.89077 15.4504 4.78596 15.3052C4.68493 15.1664 4.63516 14.9935 4.63736 14.7868L4.67574 13.5118C4.68418 13.2205 4.54118 12.9471 4.3067 12.774C4.08321 12.609 3.79652 12.5443 3.53022 12.6235L2.29121 12.9924C2.10081 13.0477 1.92067 13.0449 1.75092 12.9835C1.58609 12.9234 1.45447 12.8081 1.35629 12.6382L0.657561 11.4292C0.559421 11.2592 0.524232 11.082 0.552259 10.8979C0.585294 10.7153 0.678081 10.5592 0.829782 10.4296L1.75978 9.54719C1.9616 9.35557 2.05227 9.07561 2.01762 8.79952C1.98349 8.52861 1.83556 8.27935 1.59543 8.14925L0.435148 7.5216C0.253474 7.42506 0.127967 7.29783 0.0582285 7.14088C-0.0101085 6.97888 -0.0182764 6.80032 0.0336254 6.60669L0.394799 5.25891C0.445397 5.0703 0.540327 4.92522 0.679211 4.82409C0.8194 4.71809 0.9923 4.66837 1.19785 4.67554L2.47032 4.708C2.76282 4.71523 3.03163 4.56039 3.20841 4.32728C3.37734 4.11806 3.42948 3.83898 3.35505 3.58059L2.98895 2.31349C2.92862 2.12178 2.92694 1.94245 2.98206 1.77635C3.04223 1.61164 3.1595 1.4806 3.33438 1.38382L4.5606 0.68239C4.73053 0.58436 4.90027 0.547263 5.06939 0.571223C5.23861 0.595285 5.39268 0.678902 5.52996 0.822086L6.42749 1.77635C6.61828 1.97902 6.90173 2.06136 7.17837 2.03016C7.47374 1.99136 7.74008 1.82227 7.88104 1.55992L8.48332 0.439398C8.58346 0.26429 8.71292 0.139238 8.87107 0.064579ZM8.00602 3.71931C5.64069 3.71937 3.72311 5.63619 3.72311 8.0007C3.72329 10.3651 5.6408 12.282 8.00602 12.2821C10.3713 12.2821 12.2888 10.3651 12.2889 8.0007C12.2889 5.63615 10.3714 3.71931 8.00602 3.71931Z"></path>
</svg>