<svg xmlns="http://www.w3.org/2000/svg" viewBox="0 0 16 16" fill="none">
    <path id="base" fill-rule="evenodd" clip-rule="evenodd" d="M7.9902 11C7.59194 11 7.26908 10.6704 7.26908 10.2637V5.55417C7.26908 5.25797 7.03392 5.01786 6.74382 5.01786H5.77623C5.34001 5.01786 5.09389 4.50638 5.36045 4.15382L7.58732 1.20858C7.79777 0.930237 8.20923 0.93052 8.41931 1.20915L10.64 4.15439C10.9059 4.50705 10.6597 5.01786 10.2238 5.01786H9.23659C8.94649 5.01786 8.71132 5.25797 8.71132 5.55417V10.2637C8.71132 10.6704 8.38847 11 7.9902 11Z"/>
    <path id="details" opacity="0.2" d="M3.00003 8.80028C3.00003 7.63358 3.00003 7.05023 3.29714 6.64129C3.3931 6.50921 3.50925 6.39307 3.64132 6.29711C4.05026 6 4.63361 6 5.80031 6H10.1998C11.3665 6 11.9498 6 12.3587 6.29711C12.4908 6.39307 12.607 6.50921 12.7029 6.64129C13 7.05023 13 7.63358 13 8.80028V12.1997C13 13.3664 13 13.9498 12.7029 14.3587C12.607 14.4908 12.4908 14.6069 12.3587 14.7029C11.9498 15 11.3665 15 10.1998 15H5.80031C4.63361 15 4.05026 15 3.64132 14.7029C3.50925 14.6069 3.3931 14.4908 3.29714 14.3587C3.00003 13.9498 3.00003 13.3664 3.00003 12.1997V8.80028Z" />
</svg>
