<?xml version="1.0" encoding="UTF-8"?>
<svg xmlns="http://www.w3.org/2000/svg" viewBox="0 0 16 16" fill="none">
    <path fill-rule="evenodd" clip-rule="evenodd" d="M5.40039 1C3.15055 1 2.02492 1.00029 1.23633 1.57324C0.981903 1.75815 0.758149 1.9819 0.573242 2.23633C0.000293136 3.02492 0 4.15055 0 6.40039V9.59961C0 11.8494 0.000293136 12.9751 0.573242 13.7637C0.758149 14.0181 0.981903 14.2419 1.23633 14.4268C2.02492 14.9997 3.15055 15 5.40039 15H10.5996C12.8494 15 13.9751 14.9997 14.7637 14.4268C15.0181 14.2419 15.2419 14.0181 15.4268 13.7637C15.9997 12.9751 16 11.8494 16 9.59961V6.40039C16 4.15055 15.9997 3.02492 15.4268 2.23633C15.2419 1.9819 15.0181 1.75815 14.7637 1.57324C13.9751 1.00029 12.8494 1 10.5996 1H5.40039ZM11.7998 2.5C12.9247 2.5 13.4875 2.4997 13.8818 2.78613C14.0092 2.87865 14.1213 2.99082 14.2139 3.11816C14.5003 3.51246 14.5 4.07533 14.5 5.2002V10.7998C14.5 11.9247 14.5003 12.4875 14.2139 12.8818C14.1213 13.0092 14.0092 13.1213 13.8818 13.2139C13.4875 13.5003 12.9247 13.5 11.7998 13.5H11.7002C10.5753 13.5 10.0125 13.5003 9.61816 13.2139C9.49082 13.1213 9.37865 13.0092 9.28613 12.8818C8.9997 12.4875 9 11.9247 9 10.7998V5.2002C9 4.07533 8.9997 3.51246 9.28613 3.11816C9.37865 2.99082 9.49082 2.87865 9.61816 2.78613C10.0125 2.4997 10.5753 2.5 11.7002 2.5H11.7998Z" id="base"></path>
</svg>