<?xml version="1.0" encoding="UTF-8"?>
<svg xmlns="http://www.w3.org/2000/svg" viewBox="0 0 16 16" fill="none">
    <path fill-rule="evenodd" clip-rule="evenodd" d="M10.5996 1C12.8494 1 13.9751 1.00029 14.7637 1.57324C15.0181 1.75815 15.2419 1.9819 15.4268 2.23633C15.9997 3.02492 16 4.15055 16 6.40039V9.59961C16 11.8494 15.9997 12.9751 15.4268 13.7637C15.2419 14.0181 15.0181 14.2419 14.7637 14.4268C13.9751 14.9997 12.8494 15 10.5996 15H5.40039C3.15055 15 2.02492 14.9997 1.23633 14.4268C0.981903 14.2419 0.758149 14.0181 0.573242 13.7637C0.000293136 12.9751 0 11.8494 0 9.59961V6.40039C0 4.15055 0.000293136 3.02492 0.573242 2.23633C0.758149 1.9819 0.981903 1.75815 1.23633 1.57324C2.02492 1.00029 3.15055 1 5.40039 1H10.5996ZM4.2002 2.5C3.07533 2.5 2.51246 2.4997 2.11816 2.78613C1.99082 2.87865 1.87865 2.99082 1.78613 3.11816C1.4997 3.51246 1.5 4.07533 1.5 5.2002V10.7998C1.5 11.9247 1.4997 12.4875 1.78613 12.8818C1.87865 13.0092 1.99082 13.1213 2.11816 13.2139C2.51246 13.5003 3.07533 13.5 4.2002 13.5H4.2998C5.42467 13.5 5.98754 13.5003 6.38184 13.2139C6.50918 13.1213 6.62135 13.0092 6.71387 12.8818C7.0003 12.4875 7 11.9247 7 10.7998V5.2002C7 4.07533 7.0003 3.51246 6.71387 3.11816C6.62135 2.99082 6.50918 2.87865 6.38184 2.78613C5.98754 2.4997 5.42467 2.5 4.2998 2.5H4.2002Z" id="base"></path>
</svg>