<svg xmlns="http://www.w3.org/2000/svg" viewBox="0 0 16 16" fill="none">
    <path id="base" d="M6.00131 15C5.67772 15 5.3942 14.7833 5.30922 14.4711L4.92031 13.0422C4.6803 12.1604 4.00364 11.4639 3.12909 11.1987L1.52429 10.7119C1.21291 10.6175 1 10.3304 1 10.005V10.005C1 9.67486 1.21904 9.38481 1.53656 9.29447L3.26369 8.80307C4.0619 8.57597 4.70696 7.981 4.94357 7.18556C5.09063 6.69117 5.24765 6.10769 5.35954 5.54434C5.42128 5.23346 5.68874 5 6.0057 5V5C6.31768 5 6.58247 5.22637 6.64801 5.53139C6.77033 6.10065 6.93629 6.68713 7.09033 7.18311C7.33833 7.98163 7.98915 8.57809 8.7925 8.80997L10.4728 9.29497C10.785 9.38509 11 9.67086 11 9.99581V9.99581C11 10.3247 10.7799 10.6129 10.4626 10.6995L9.00284 11.0979C8.08082 11.3495 7.35942 12.0681 7.10416 12.9891L6.69253 14.4743C6.60643 14.7849 6.32367 15 6.00131 15V15Z"/>
    <g id="details" opacity="0.6" >
        <path d="M12.9485 9.21472C12.7867 9.21472 12.645 9.10639 12.6025 8.95027L12.408 8.23581C12.288 7.7949 11.9497 7.44669 11.5124 7.31406L10.71 7.07067C10.5543 7.02345 10.4479 6.87991 10.4479 6.71722V6.71722C10.4479 6.55215 10.5574 6.40713 10.7162 6.36196L11.5797 6.11626C11.9788 6.00271 12.3014 5.70522 12.4197 5.3075C12.4932 5.06031 12.5717 4.76857 12.6276 4.48689C12.6585 4.33145 12.7922 4.21472 12.9507 4.21472V4.21472C13.1067 4.21472 13.2391 4.32791 13.2719 4.48042C13.333 4.76504 13.416 5.05829 13.493 5.30628C13.617 5.70554 13.9424 6.00377 14.3441 6.11971L15.1843 6.36221C15.3404 6.40727 15.4479 6.55015 15.4479 6.71263V6.71263C15.4479 6.87708 15.3378 7.02119 15.1792 7.06449L14.4493 7.26367C13.9883 7.38948 13.6276 7.74875 13.5 8.20926L13.2941 8.95187C13.2511 9.1072 13.1097 9.21472 12.9485 9.21472V9.21472Z"/>
        <path d="M9.95749 3.90799C9.86041 3.90799 9.77535 3.84299 9.74986 3.74932L9.63319 3.32064C9.56118 3.0561 9.35819 2.84717 9.09582 2.76759L8.61438 2.62156C8.52097 2.59322 8.45709 2.5071 8.45709 2.40949V2.40949C8.45709 2.31045 8.5228 2.22343 8.61806 2.19633L9.1362 2.04891C9.37566 1.98078 9.56918 1.80229 9.64016 1.56366C9.68428 1.41534 9.73139 1.2403 9.76495 1.07129C9.78348 0.978028 9.86372 0.90799 9.9588 0.90799V0.90799C10.0524 0.90799 10.1318 0.975901 10.1515 1.06741C10.1882 1.23818 10.238 1.41413 10.2842 1.56292C10.3586 1.80248 10.5538 1.98142 10.7948 2.05098L11.2989 2.19648C11.3926 2.22352 11.4571 2.30925 11.4571 2.40673V2.40673C11.4571 2.5054 11.3911 2.59187 11.2959 2.61785L10.8579 2.73736C10.5813 2.81284 10.3649 3.02841 10.2883 3.30471L10.1649 3.75028C10.139 3.84347 10.0542 3.90799 9.95749 3.90799V3.90799Z"/>
    </g>
</svg>
