<?xml version="1.0" encoding="UTF-8"?>
<svg xmlns="http://www.w3.org/2000/svg" viewBox="0 0 16 16" fill="none">
        <path id="base" fill-rule="evenodd" clip-rule="evenodd" d="M8.00152 11.4828C7.31292 11.4828 6.63977 11.2786 6.06722 10.8961C5.49467 10.5135 5.04842 9.96972 4.78491 9.33353C4.5214 8.69734 4.45246 7.99729 4.58681 7.32192C4.72116 6.64655 5.05276 6.02618 5.53969 5.53927C6.02662 5.05237 6.647 4.72078 7.32237 4.58646C7.99775 4.45214 8.69779 4.5211 9.33397 4.78464C9.97015 5.04818 10.5139 5.49445 10.8965 6.06701C11.279 6.63958 11.4832 7.31273 11.4831 8.00134C11.4831 8.92472 11.1163 9.81028 10.4634 10.4632C9.81047 11.1161 8.92491 11.4828 8.00152 11.4828Z"></path>
        <g id="details">
            <g opacity="0.4">
                <path d="M12.0956 6.10364C11.9899 5.84852 12.1111 5.55603 12.3662 5.45036L13.3521 5.04201C13.6072 4.93633 13.8997 5.05748 14.0053 5.3126C14.111 5.56773 13.9899 5.86021 13.7347 5.96589L12.7489 6.37424C12.4938 6.47991 12.2013 6.35876 12.0956 6.10364Z"></path>
                <path d="M1.9948 10.2875C1.88912 10.0324 2.01027 9.73993 2.26539 9.63425L3.25124 9.2259C3.50637 9.12023 3.79885 9.24138 3.90453 9.4965C4.0102 9.75162 3.88905 10.0441 3.63393 10.1498L2.64808 10.5581C2.39295 10.6638 2.10047 10.5427 1.9948 10.2875Z"></path>
                <path d="M9.6966 3.70444C9.44148 3.59877 9.32033 3.30629 9.426 3.05116L9.83436 2.06531C9.94003 1.81019 10.2325 1.68904 10.4876 1.79471C10.7428 1.90039 10.8639 2.19287 10.7582 2.448L10.3499 3.43385C10.2442 3.68897 9.95172 3.81012 9.6966 3.70444Z"></path>
                <path d="M5.51271 13.8053C5.25759 13.6996 5.13643 13.4071 5.24211 13.152L5.65046 12.1661C5.75614 11.911 6.04862 11.7899 6.30374 11.8955C6.55887 12.0012 6.68002 12.2937 6.57434 12.5488L6.16599 13.5347C6.06031 13.7898 5.76783 13.9109 5.51271 13.8053Z"></path>
                <path d="M6.30379 3.7043C6.04867 3.80997 5.75618 3.68882 5.65051 3.4337L5.24215 2.44785C5.13648 2.19273 5.25763 1.90024 5.51275 1.79457C5.76787 1.68889 6.06036 1.81005 6.16603 2.06517L6.57439 3.05102C6.68006 3.30614 6.55891 3.59862 6.30379 3.7043Z"></path>
                <path d="M10.4877 13.8051C10.2326 13.9108 9.94008 13.7896 9.8344 13.5345L9.42605 12.5487C9.32037 12.2935 9.44152 12.0011 9.69665 11.8954C9.95177 11.7897 10.2443 11.9109 10.3499 12.166L10.7583 13.1518C10.864 13.407 10.7428 13.6994 10.4877 13.8051Z"></path>
                <path d="M3.9046 6.10327C3.79893 6.3584 3.50644 6.47955 3.25132 6.37387L2.26547 5.96552C2.01035 5.85984 1.8892 5.56736 1.99487 5.31224C2.10055 5.05712 2.39303 4.93596 2.64815 5.04164L3.634 5.44999C3.88913 5.55567 4.01028 5.84815 3.9046 6.10327Z"></path>
                <path d="M14.0054 10.2872C13.8997 10.5423 13.6073 10.6634 13.3521 10.5578L12.3663 10.1494C12.1112 10.0437 11.99 9.75125 12.0957 9.49613C12.2014 9.24101 12.4938 9.11986 12.749 9.22553L13.7348 9.63389C13.9899 9.73956 14.1111 10.032 14.0054 10.2872Z"></path>
            </g>
            <g opacity="0.6">
                <path d="M8 15.3002C7.61039 15.3002 7.29456 14.9843 7.29456 14.5947V12.9385C7.29456 12.5489 7.61039 12.2331 8 12.2331C8.38961 12.2331 8.70545 12.5489 8.70545 12.9385V14.5947C8.70545 14.9843 8.38961 15.3002 8 15.3002Z"></path>
                <path d="M8 3.36711C7.61039 3.36711 7.29456 3.05127 7.29456 2.66166V1.00548C7.29456 0.615873 7.61039 0.300034 8 0.300034C8.38961 0.300034 8.70545 0.615873 8.70545 1.00548V2.66166C8.70545 3.05127 8.38961 3.36711 8 3.36711Z"></path>
                <path d="M2.69664 13.1034C2.42115 12.8279 2.42115 12.3813 2.69664 12.1058L3.86774 10.9347C4.14323 10.6592 4.5899 10.6592 4.86539 10.9347C5.14089 11.2102 5.14089 11.6568 4.86539 11.9323L3.69429 13.1034C3.4188 13.3789 2.97214 13.3789 2.69664 13.1034Z"></path>
                <path d="M11.1346 4.6655C10.8591 4.39001 10.8591 3.94334 11.1346 3.66785L12.3057 2.49675C12.5812 2.22126 13.0278 2.22126 13.3033 2.49675C13.5788 2.77225 13.5788 3.21891 13.3033 3.4944L12.1322 4.6655C11.8567 4.941 11.4101 4.941 11.1346 4.6655Z"></path>
                <path d="M0.499939 7.80008C0.499939 7.41047 0.815779 7.09464 1.20539 7.09464H2.86157C3.25118 7.09464 3.56702 7.41047 3.56702 7.80008C3.56702 8.18969 3.25118 8.50553 2.86157 8.50553H1.20539C0.815779 8.50553 0.499939 8.18969 0.499939 7.80008Z"></path>
                <path d="M12.433 7.80008C12.433 7.41047 12.7488 7.09464 13.1384 7.09464H14.7946C15.1842 7.09464 15.5001 7.41047 15.5001 7.80008C15.5001 8.18969 15.1842 8.50553 14.7946 8.50553H13.1384C12.7488 8.50553 12.433 8.18969 12.433 7.80008Z"></path>
                <path d="M2.69667 2.49674C2.97216 2.22125 3.41883 2.22125 3.69432 2.49674L4.86542 3.66784C5.14091 3.94333 5.14091 4.39 4.86542 4.66549C4.58993 4.94099 4.14326 4.94098 3.86777 4.66549L2.69667 3.49439C2.42118 3.2189 2.42117 2.77223 2.69667 2.49674Z"></path>
                <path d="M11.1346 10.9347C11.4101 10.6592 11.8568 10.6592 12.1323 10.9347L13.3034 12.1058C13.5789 12.3813 13.5789 12.8279 13.3034 13.1034C13.0279 13.3789 12.5812 13.3789 12.3057 13.1034L11.1346 11.9323C10.8591 11.6568 10.8591 11.2102 11.1346 10.9347Z"></path>
            </g>
        </g>
</svg>
