<?xml version="1.0" encoding="UTF-8"?>
<svg xmlns="http://www.w3.org/2000/svg" viewBox="0 0 16 16" fill="none">
    <path id="details" opacity="0.6" fill-rule="evenodd" clip-rule="evenodd" d="M14.6447 6.53997C15.1184 5.93753 15.1184 5.06247 14.6447 4.46003L13.0165 2.3897C12.6552 1.93022 12.0107 1.86813 11.5771 2.25104C11.1435 2.63395 11.0849 3.31684 11.4462 3.77632L11.9501 4.41701H6.02203C5.45758 4.41701 5 4.90188 5 5.5C5 6.09812 5.45758 6.58299 6.02202 6.58299H11.9501L11.4462 7.22367C11.0849 7.68316 11.1435 8.36605 11.5771 8.74896C12.0107 9.13186 12.6552 9.06978 13.0165 8.6103L14.6447 6.53997Z"/>
    <path id="base" fill-rule="evenodd" clip-rule="evenodd" d="M1.35533 11.54C0.881558 10.9375 0.881558 10.0625 1.35533 9.46003L2.98349 7.3897C3.34484 6.93022 3.98929 6.86813 4.42291 7.25104C4.85653 7.63395 4.91512 8.31684 4.55377 8.77632L4.04992 9.41701H9.97797C10.5424 9.41701 11 9.90188 11 10.5C11 11.0981 10.5424 11.583 9.97798 11.583H4.04992L4.55377 12.2237C4.91512 12.6832 4.85653 13.3661 4.42291 13.749C3.98929 14.1319 3.34484 14.0698 2.98349 13.6103L1.35533 11.54Z"/>
</svg>