<svg viewBox="0 0 16 16" fill="none" xmlns="http://www.w3.org/2000/svg">
    <g id="base">
        <path fill-rule="evenodd" clip-rule="evenodd" d="M3.84651 9.4471C4.08912 9.20464 4.08912 8.80053 3.84651 8.55806L2.56151 7.27384C2.19385 6.9064 2.19385 6.29398 2.56151 5.92654C2.90823 5.58003 3.4556 5.58003 3.80232 5.92654L6.43542 8.55806C6.67802 8.80053 6.67802 9.20464 6.43542 9.4471L3.80232 12.0786C3.4556 12.4251 2.90823 12.4251 2.56151 12.0786C2.19385 11.7112 2.19385 11.0988 2.56151 10.7313L3.84651 9.4471Z" />
        <path fill-rule="evenodd" clip-rule="evenodd" d="M13.7143 11.7519C13.7143 12.2571 13.3212 12.6667 12.8362 12.6667H8.49036C8.00538 12.6667 7.61222 12.2571 7.61222 11.7519C7.61222 11.2467 8.00538 10.8371 8.49036 10.8371H12.8362C13.3212 10.8371 13.7143 11.2467 13.7143 11.7519Z" />
    </g>
    <path id="details" opacity="0.2" d="M0 6.4C0 4.15016 0 3.02524 0.572949 2.23664C0.757988 1.98196 0.98196 1.75799 1.23664 1.57295C2.02524 1 3.15016 1 5.4 1H10.6C12.8498 1 13.9748 1 14.7634 1.57295C15.018 1.75799 15.242 1.98196 15.4271 2.23664C16 3.02524 16 4.15016 16 6.4V9.6C16 11.8498 16 12.9748 15.4271 13.7634C15.242 14.018 15.018 14.242 14.7634 14.4271C13.9748 15 12.8498 15 10.6 15H5.4C3.15016 15 2.02524 15 1.23664 14.4271C0.98196 14.242 0.757988 14.018 0.572949 13.7634C0 12.9748 0 11.8498 0 9.6V6.4Z" />
</svg>
