<?xml version="1.0" encoding="UTF-8"?>
<svg xmlns="http://www.w3.org/2000/svg" viewBox="0 0 16 16" fill="none">
    <g id="CatIcon/tag" clip-path="url(#clip0_138_98)">
        <path id="base" fill-rule="evenodd" clip-rule="evenodd" d="M2.13436 0.5C3.34098 0.5004 5.94679 0.80288 7.45671 0.991772C8.20014 1.08478 8.8889 1.42677 9.41852 1.95647L14.4983 7.03704C15.8343 8.3733 15.834 10.539 14.4975 11.8748L11.8731 14.4979C10.536 15.8343 8.36805 15.834 7.03139 14.4971L1.9554 9.42024C1.42594 8.89069 1.08429 8.20236 0.991554 7.45947C0.802906 5.94827 0.500478 3.33822 0.500061 2.13343C0.49999 1.9189 0.542213 1.70645 0.62432 1.50824C0.706427 1.31003 0.826807 1.12993 0.978581 0.978235C1.13035 0.826542 1.31055 0.706229 1.50886 0.624171C1.70717 0.542113 1.91972 0.499919 2.13436 0.5ZM3.7766 4.86887C3.99259 4.86905 4.20377 4.8052 4.38345 4.68539C4.56312 4.56559 4.7032 4.39521 4.78598 4.19581C4.86876 3.99642 4.89051 3.77696 4.84848 3.56521C4.80646 3.35346 4.70254 3.15892 4.54988 3.00621C4.39722 2.85349 4.20267 2.74947 3.99085 2.70729C3.77903 2.6651 3.55945 2.68666 3.35989 2.76923C3.16033 2.85181 2.98975 2.99168 2.86974 3.17117C2.74973 3.35065 2.68567 3.56168 2.68567 3.77756C2.68561 3.92081 2.71379 4.06267 2.76858 4.19505C2.82338 4.32742 2.90372 4.4477 3.00503 4.54904C3.10633 4.65037 3.22662 4.73077 3.35901 4.78564C3.49141 4.84051 3.63328 4.86882 3.7766 4.86887Z"></path>
    </g>
    <defs>
        <clipPath id="clip0_138_98">
            <rect width="16" height="16" fill="white"></rect>
        </clipPath>
    </defs>
</svg>