<svg viewBox="0 0 16 16" fill="none" xmlns="http://www.w3.org/2000/svg">
    <g id="base">
        <path d="M8.7199 14.4957L7.109 7.75916C7.02047 7.38892 7.36168 7.05949 7.72859 7.16097L14.6768 9.08282C15.1449 9.21232 15.1721 9.86597 14.7163 10.0339L13.2098 10.5889C12.856 10.7193 12.7683 11.1793 13.0493 11.4307L15.1755 13.3332C15.7177 13.8183 15.741 14.6592 15.2266 15.1736C14.7598 15.6404 14.0129 15.6707 13.5099 15.2431L10.9833 13.0955C10.7245 12.8755 10.3264 12.9721 10.1971 13.2861L9.66854 14.5698C9.48383 15.0184 8.83273 14.9675 8.7199 14.4957Z" />
        <path fill-rule="evenodd" clip-rule="evenodd" d="M8 1.5C4.41015 1.5 1.5 4.41015 1.5 8C1.5 11.4042 4.1175 14.1979 7.44917 14.477C7.86194 14.5116 8.16852 14.8743 8.13393 15.287C8.09935 15.6998 7.7367 16.0064 7.32394 15.9718C3.22167 15.6281 0 12.1907 0 8C0 3.58172 3.58172 0 8 0C12.0796 0 15.4451 3.05305 15.9379 6.99936C15.9893 7.41038 15.6977 7.7852 15.2867 7.83653C14.8757 7.88787 14.5008 7.59629 14.4495 7.18527C14.0492 3.98028 11.3137 1.5 8 1.5Z" />
    </g>
    <path id="details" opacity="0.6" d="M12.9222 6.02024C13.0759 6.37525 12.7327 6.70801 12.3618 6.5981C9.36325 5.70964 7.76792 5.32616 6.72481 5.98594C6.36221 6.21528 6.05302 6.51974 5.81811 6.87876C5.16106 7.88292 5.48203 9.42425 6.27429 12.2772C6.38027 12.6588 6.02521 12.9971 5.67272 12.8164C3.96632 11.9419 2.79852 10.1655 2.79852 8.11627C2.79852 5.20125 5.16161 2.83817 8.07663 2.83817C10.2469 2.83817 12.1112 4.14799 12.9222 6.02024Z" />
</svg>
