<svg viewBox="0 0 16 16" fill="none" xmlns="http://www.w3.org/2000/svg">
    <path id="base" fill-rule="evenodd" clip-rule="evenodd" d="M8 14.5C11.5899 14.5 14.5 11.5899 14.5 8C14.5 4.41015 11.5899 1.5 8 1.5C4.41015 1.5 1.5 4.41015 1.5 8C1.5 11.5899 4.41015 14.5 8 14.5ZM8 16C12.4183 16 16 12.4183 16 8C16 3.58172 12.4183 0 8 0C3.58172 0 0 3.58172 0 8C0 12.4183 3.58172 16 8 16Z"/>
    <path id="details" opacity="0.6" d="M4.4245 9.55289C3.67455 9.86753 3.29748 10.7452 3.81239 11.3747C4.77096 12.5466 6.29001 13.25 8.00001 13.25C10.8995 13.25 13.25 10.8995 13.25 7.99999C13.25 5.73362 12.0144 3.80266 10.0901 3.06744C9.32666 2.77575 8.60323 3.41207 8.53969 4.22688C8.44533 5.43679 8.32813 7.00733 8.32813 7.34374C8.32813 7.88739 7.84145 8.11931 7.34376 8.32811C5.98244 8.89925 5.05557 9.28812 4.4245 9.55289Z"/>
</svg>
