<?xml version="1.0" encoding="UTF-8"?>
<svg xmlns="http://www.w3.org/2000/svg" viewBox="0 0 16 17" fill="none">
    <path id="details" opacity="0.2" fill-rule="evenodd" clip-rule="evenodd" d="M6.31172 2.935C6.31172 2.14247 6.95419 1.5 7.74672 1.5H8.00138C8.79391 1.5 9.43639 2.14247 9.43639 2.935C10.3567 3.15124 11.2211 3.55513 11.9761 4.12005C12.1263 4.23241 12.3374 4.22325 12.47 4.09063C12.6075 3.95307 12.5983 3.72864 12.5632 3.53729C12.5557 3.49642 12.5523 3.45463 12.5532 3.4125C12.5564 3.25288 12.6209 3.10062 12.7334 2.98728C12.8764 2.84424 13.0195 2.70196 13.1652 2.56229C13.3565 2.37886 13.6579 2.38823 13.845 2.57598L14.9111 3.64586C15.0992 3.83459 15.1064 4.13786 14.9212 4.32939C14.7827 4.47262 14.6421 4.61377 14.501 4.75487C14.3893 4.86613 14.2397 4.93093 14.0821 4.93622C14.0396 4.93765 13.9974 4.93472 13.9561 4.92764C13.767 4.89527 13.5468 4.8887 13.4112 5.02439C13.2783 5.15731 13.269 5.36881 13.3814 5.51947C14.2054 6.62438 14.6796 7.95399 14.7383 9.33617C14.8017 10.8289 14.3769 12.3017 13.5282 13.5313C12.6796 14.761 11.4533 15.6806 10.0351 16.1508C8.61695 16.621 7.08418 16.6162 5.66896 16.1372C4.25374 15.6582 3.03318 14.731 2.19216 13.4961C1.35114 12.2612 0.935479 10.7859 1.00813 9.29355C1.08079 7.80123 1.6378 6.37324 2.59481 5.22587C3.55181 4.07851 4.85666 3.27428 6.31172 2.935Z"/>
    <path id="base" d="M7.91807 11.5C8.78949 11.5 9.50472 10.8028 9.50472 9.94341C9.50472 9.42454 9.24165 8.92189 8.77305 8.63003L4.96672 6.133C4.31726 5.72763 3.73357 6.31946 4.12818 6.95994L6.54516 10.7055C6.84933 11.2 7.35082 11.5 7.91807 11.5Z"/>
</svg>