<svg viewBox="0 0 16 16" fill="none" xmlns="http://www.w3.org/2000/svg">
    <path id="base" d="M5.11292 13.9565C4.81418 14.2564 4.32867 14.2564 4.02994 13.9565C3.73763 13.6631 3.73214 13.1903 4.01754 12.8902L4.70476 12.1676C3.37143 12.0147 2.25397 11.4348 1.35238 10.4279C0.450796 9.42105 0 8.22941 0 6.85294C0 5.36176 0.517463 4.09681 1.55238 3.05809C2.5873 2.01937 3.84762 1.5 5.33333 1.5H6.85434C7.27668 1.5 7.61905 1.84237 7.61905 2.26471C7.61905 2.68704 7.27668 3.02941 6.85434 3.02941H5.33333C4.27937 3.02941 3.38095 3.40221 2.6381 4.14779C1.89524 4.89338 1.52381 5.7951 1.52381 6.85294C1.52381 7.79605 1.81905 8.61176 2.40952 9.3C3 9.98823 3.73968 10.4216 4.62857 10.6L4.03616 10.0054C3.74161 9.70977 3.73949 9.23226 4.03142 8.93403C4.32856 8.63047 4.81649 8.62831 5.1163 8.92923L7.26744 11.0883C7.46183 11.2834 7.46183 11.599 7.26744 11.7941L5.11292 13.9565ZM10.6429 13.7353C9.81443 13.7353 9.14286 13.0637 9.14286 12.2353V9.88235C9.14286 9.05393 9.81443 8.38235 10.6429 8.38235H14.5C15.3284 8.38235 16 9.05393 16 9.88235V12.2353C16 13.0637 15.3284 13.7353 14.5 13.7353H10.6429Z" />
    <path id="details" opacity="0.4" d="M10.6428 6.85294C9.81439 6.85294 9.14282 6.18137 9.14282 5.35294V3C9.14282 2.17157 9.8144 1.5 10.6428 1.5H14.5C15.3284 1.5 16 2.17157 16 3V5.35294C16 6.18137 15.3284 6.85294 14.5 6.85294H10.6428Z" />
</svg>
