<svg xmlns="http://www.w3.org/2000/svg" viewBox="0 0 16 16" fill="none">
    <path id="base" fill-rule="evenodd" clip-rule="evenodd" d="M4.9799 2.28114C4.32918 2.28114 3.75267 2.70071 3.55257 3.3199L0.614273 12.4126C0.379824 13.1381 0.920801 13.8814 1.68325 13.8814C2.18575 13.8814 2.62713 13.5477 2.76411 13.0643L3.08753 11.9228C3.1485 11.7077 3.34495 11.5591 3.5686 11.5591H7.28546C7.50912 11.5591 7.70557 11.7077 7.76653 11.9228L8.09139 13.0695C8.22748 13.5499 8.66603 13.8814 9.1653 13.8814C9.92219 13.8814 10.4596 13.1441 10.2279 12.4235L7.30056 3.32188C7.10109 2.70167 6.52409 2.28114 5.8726 2.28114H4.9799ZM5.02871 5.29741L3.74465 8.83183C3.62619 9.1579 3.86768 9.50256 4.2146 9.50256H6.77509C7.1216 9.50256 7.36306 9.15864 7.24536 8.83273L5.96893 5.2983C5.81011 4.85853 5.18837 4.85794 5.02871 5.29741Z"></path>
    <path id="details" opacity="0.6" fill-rule="evenodd" clip-rule="evenodd" d="M12.3462 2.30679C12.0701 2.30679 11.8462 2.53065 11.8462 2.80679V3.10183H10C9.72386 3.10183 9.5 3.32569 9.5 3.60183V3.78328C9.5 4.05942 9.72386 4.28328 10 4.28328H10.3407C10.6296 5.07138 11.053 5.80149 11.5914 6.44008C11.0245 6.8866 10.4005 7.25301 9.73641 7.52923L9.73185 7.53127C9.54188 7.61611 9.45379 7.83453 9.52521 8.027L9.65929 8.39559L9.66439 8.40954C9.74047 8.60577 9.96151 8.70606 10.1598 8.62659L10.1615 8.62589C10.9796 8.28904 11.744 7.83179 12.4304 7.26914C13.1169 7.83179 13.8813 8.28905 14.6993 8.6259L14.701 8.62658C14.7065 8.62878 14.7121 8.63086 14.7177 8.6328C14.9187 8.7026 15.1336 8.59322 15.2016 8.39559L15.3357 8.02703C15.4071 7.83455 15.319 7.61606 15.129 7.53121L15.1244 7.52929C14.4603 7.25307 13.8363 6.8866 13.2694 6.44008C13.8078 5.8015 14.2313 5.07138 14.5202 4.28328L14.8609 4.28328C15.137 4.28328 15.3609 4.05942 15.3609 3.78328V3.60183C15.3609 3.32569 15.137 3.10183 14.8609 3.10183H13.0147V2.80679C13.0147 2.53065 12.7908 2.30679 12.5147 2.30679H12.3462ZM11.6279 4.2701C11.4509 4.2701 11.3332 4.4478 11.418 4.60317C11.7859 5.27718 12.4177 6.01441 12.4177 6.01441C12.4177 6.01441 13.0524 5.29432 13.4271 4.60358C13.5115 4.44797 13.3934 4.2701 13.2163 4.2701H11.6279Z"/>
</svg>
