<svg viewBox="0 0 16 16" fill="none" xmlns="http://www.w3.org/2000/svg">
    <g id="base">
        <path d="M8 2.08694C2 2.08694 2 3.55554 2 3.55554C2 3.55554 2 3.55554 2 3.55554C2 5.09453 6.85231 4.86955 8 4.86955C9.14769 4.86955 14 5.09453 14 3.55554C14 3.55554 14 3.55554 14 3.55554C14 3.55554 14 2.08694 8 2.08694Z" />
        <path d="M11.0001 2.08696C11.0001 0.934363 10.0657 0 8.9131 0H7.08702C5.93442 0 5.00006 0.934364 5.00006 2.08696V2.78261H6.12506V2.08696C6.12506 1.51066 6.59224 1.04348 7.16854 1.04348H8.83158C9.40788 1.04348 9.87506 1.51066 9.87506 2.08696V2.78261H11.0001V2.08696Z" />
    </g>
    <path id="details" opacity="0.4" d="M2.00919 4.98956C2.00418 4.92454 2.07544 4.91723 2.11087 4.97198C2.76627 5.98472 6.15273 5.93738 7.59238 5.91725C7.7555 5.91497 7.89362 5.91304 7.99995 5.91304C8.10628 5.91304 8.2444 5.91497 8.40752 5.91725C9.84717 5.93738 13.2336 5.98472 13.889 4.97198C13.9245 4.91723 13.9957 4.92454 13.9907 4.98956V4.98956L13.323 13.66C13.2766 14.2626 12.9699 14.8172 12.4234 15.0753C11.5672 15.4796 10.0641 16 7.99995 16C5.9358 16 4.43274 15.4796 3.57654 15.0753C3.02998 14.8172 2.7233 14.2626 2.67689 13.66L2.00919 4.98956V4.98956Z" />    
</svg>
