<?xml version="1.0" encoding="UTF-8"?>
<svg xmlns="http://www.w3.org/2000/svg" viewBox="0 0 16 16" fill="none">
    <path opacity="0.6" d="M3.42899 13.1837C3.67922 12.8173 4.1636 12.7059 4.5452 12.9132L4.62039 12.9591L4.80789 13.0821C4.99735 13.2014 5.19395 13.3104 5.39676 13.4083C5.82306 13.614 6.00185 14.1265 5.79617 14.5528C5.59046 14.9791 5.07799 15.1579 4.65164 14.9522C4.39042 14.8262 4.13753 14.6858 3.89383 14.5323L3.65359 14.3751L3.58328 14.3214C3.2515 14.0413 3.17889 13.55 3.42899 13.1837ZM3.04129 11.38C3.30821 11.7707 3.20822 12.3043 2.81766 12.5714C2.4269 12.8383 1.89336 12.7383 1.62625 12.3477L3.04129 11.38ZM2.59207 10.6046C2.7225 10.8749 2.87319 11.1338 3.04129 11.38L2.33328 11.8634L1.62625 12.3477C1.41005 12.0312 1.21612 11.6969 1.04813 11.3487L2.59207 10.6046ZM1.44754 10.2042C1.8739 9.99848 2.38638 10.1782 2.59207 10.6046L1.04813 11.3487C0.842761 10.9225 1.02147 10.4099 1.44754 10.2042ZM0.285431 8.00105C0.285431 7.80748 0.292851 7.61515 0.306915 7.42488L0.317657 7.33796C0.393108 6.90995 0.782172 6.60019 1.22488 6.63288C1.69692 6.66779 2.05168 7.07884 2.01688 7.55085L2.00418 7.77449C2.00141 7.84953 2.00027 7.92525 2.00027 8.00105C2.00028 8.15231 2.00592 8.3021 2.01688 8.45027L2.01883 8.53816C2.00698 8.97248 1.66751 9.3355 1.22488 9.36823C0.752901 9.40311 0.341964 9.04916 0.306915 8.57722L0.29129 8.29011C0.287745 8.19415 0.285434 8.09779 0.285431 8.00105ZM2.59207 5.39753C2.3863 5.82371 1.87382 6.0026 1.44754 5.79695C1.02148 5.59113 0.842528 5.07864 1.04813 4.65241L2.59207 5.39753ZM1.67899 3.58406C1.95905 3.25204 2.45125 3.17947 2.81766 3.42976C3.20838 3.69682 3.30826 4.23034 3.04129 4.62116L2.91922 4.80866C2.79985 4.9982 2.68996 5.19463 2.59207 5.39753L1.82059 5.02449L1.04813 4.65241C1.21612 4.30419 1.41005 3.97087 1.62625 3.65437L1.67899 3.58406ZM5.02371 1.82136L5.39676 2.59284C5.12625 2.72335 4.86667 2.87384 4.62039 3.04206C4.22957 3.30903 3.69605 3.20915 3.42899 2.81843C3.16198 2.42755 3.26274 1.89405 3.65359 1.62702C3.9701 1.41083 4.30342 1.2169 4.65164 1.0489L5.02371 1.82136ZM4.65164 1.0489C5.07786 0.843301 5.59036 1.02225 5.79617 1.44831C6.00183 1.87459 5.82294 2.38707 5.39676 2.59284L4.65164 1.0489Z" id="details"></path>
    <path id="base" d="M14 8.0011C14 4.79089 11.4789 2.16953 8.30859 2.00891L8 2.0011L7.91211 1.99622C7.48002 1.9522 7.14258 1.58739 7.14258 1.14368C7.14258 0.67029 7.52661 0.286255 8 0.286255L8.39746 0.296997C12.4732 0.503863 15.7139 3.87393 15.7139 8.0011C15.7137 12.2615 12.2604 15.715 8 15.715C7.52661 15.715 7.14258 15.3309 7.14258 14.8575C7.1428 14.3843 7.52675 14.0011 8 14.0011C11.3136 14.0011 13.9998 11.3147 14 8.0011Z"></path>
</svg>