<svg xmlns="http://www.w3.org/2000/svg" viewBox="0 0 16 16" fill="none">
    <path id="base" fill-rule="evenodd" clip-rule="evenodd" d="M2.48935 8.53839C2.49885 7.13646 3.63651 6 5.03847 6H10.9615C12.3635 6 13.4988 7.13646 13.4893 8.53837C13.478 10.2175 13.4615 11.9873 13.4615 13.4615C13.4615 14.8635 12.325 16 10.9231 16H5C3.59805 16 2.46154 14.8635 2.46154 13.4615C2.46154 11.9873 2.47796 10.2175 2.48935 8.53839ZM8.92442 10.1005C8.78292 10.2508 8.7006 10.4644 8.77482 10.6571L9.47071 12.4633C9.57749 12.7404 9.37293 13.0384 9.07592 13.0384H6.92409C6.62708 13.0384 6.42252 12.7404 6.5293 12.4633L7.22518 10.6571C7.29941 10.4644 7.21709 10.2508 7.07558 10.1005C6.86178 9.8733 6.73077 9.56733 6.73077 9.23075C6.73077 8.52978 7.29903 7.96152 8 7.96152C8.70098 7.96152 9.26923 8.52978 9.26923 9.23075C9.26923 9.56733 9.13823 9.8733 8.92442 10.1005Z" />
    <path id="details" opacity="0.4" d="M7 4C7 1.79086 8.79086 0 11 0C13.2091 0 15 1.79086 15 4V4.57352C15 5.1258 14.5523 5.57352 14 5.57352C13.4477 5.57352 13 5.1258 13 4.57352V4C13 2.89543 12.1046 2 11 2C9.89543 2 9 2.89543 9 4V6H7V4Z"/>
</svg>
