<?xml version="1.0" encoding="UTF-8"?>
<svg xmlns="http://www.w3.org/2000/svg" viewBox="0 0 16 16" fill="none">
    <g opacity="0.6" id="details">
        <path d="M4.51345 8.85714C4.29123 8.85714 4.11108 9.03728 4.11108 9.2595C4.11108 9.48172 4.29123 9.66186 4.51345 9.66186H11.6941C11.9163 9.66186 12.0964 9.48172 12.0964 9.2595C12.0964 9.03728 11.9163 8.85714 11.6941 8.85714H4.51345Z"></path>
        <path d="M4.51345 10.7992C4.29123 10.7992 4.11108 10.9794 4.11108 11.2016C4.11108 11.4238 4.29123 11.604 4.51345 11.604H11.6941C11.9163 11.604 12.0964 11.4238 12.0964 11.2016C12.0964 10.9794 11.9163 10.7992 11.6941 10.7992H4.51345Z"></path>
    </g>
    <path id="base" d="M6.8949 10.8153V9.99712C6.8949 9.68642 6.81862 9.37696 6.66646 9.10607C6.62206 9.02702 6.57551 8.94972 6.52525 8.87901C6.45549 8.78086 6.37888 8.68723 6.3155 8.58485L3.37898 3.84076C3.22611 3.59873 3.14331 3.34395 3.14331 3.07006C3.14331 2.44586 3.63376 2 4.29618 2C4.8121 2 5.11783 2.24204 5.34713 2.70701L7.83179 7.16695C7.91352 7.31366 8.12459 7.3136 8.20624 7.16684L10.6911 2.70064C10.9076 2.26752 11.2452 2 11.7229 2C12.3662 2 12.8567 2.43949 12.8567 3.05096C12.8567 3.32484 12.7611 3.59873 12.6146 3.83439L9.5828 8.73885L9.32144 9.11465L9.30861 9.13813C9.1709 9.39019 9.09872 9.67282 9.09872 9.96006V10.8153V11.5669V12.8981C9.09872 13.5541 8.65286 14 7.99681 14C7.34713 14 6.8949 13.5541 6.8949 12.8981V11.5669V10.8153Z"/>
</svg>