<svg width="19" height="18" viewBox="0 0 19 18" fill="none" xmlns="http://www.w3.org/2000/svg">
<path d="M6.69691 6.0295V1H11.4031V6.0295C11.4031 6.58574 11.5763 7.12817 11.8987 7.58144L16.5958 14.1852C17.2263 15.0716 16.5926 16.3 15.5049 16.3H2.59513C1.50743 16.3 0.873723 15.0716 1.50417 14.1852L6.20127 7.58145C6.52368 7.12817 6.69691 6.58574 6.69691 6.0295Z" stroke="#767676" stroke-width="1.48233"/>
<path d="M13.5326 10.8073H4.58711C4.08314 10.8073 3.61867 11.0801 3.37328 11.5203L2.18879 13.6451C1.67242 14.5714 2.34211 15.7115 3.40262 15.7115H14.7775C15.8512 15.7115 16.5193 14.5457 15.9765 13.6193L14.7317 11.4945C14.4823 11.0688 14.026 10.8073 13.5326 10.8073Z" fill="#767676" stroke="#767676" stroke-width="1.33878" stroke-linecap="round"/>
<path d="M4.88515 1H13.027" stroke="#767676" stroke-width="1.48233" stroke-linecap="round"/>
</svg>
