<svg width="18" height="19" viewBox="0 0 18 19" fill="none" xmlns="http://www.w3.org/2000/svg">
<path d="M6.577 8.4972C6.68227 8.43642 6.76968 8.349 6.83044 8.24373C6.8912 8.13846 6.92318 8.01904 6.92315 7.89749V1.66677C6.92253 1.55639 6.89553 1.44776 6.8444 1.34994C6.79327 1.25212 6.7195 1.16795 6.62922 1.10443C6.53895 1.04092 6.4348 0.999914 6.32546 0.984832C6.21612 0.969749 6.10475 0.98103 6.00066 1.01773C3.97998 1.73289 2.28067 3.14539 1.20821 5.0013C0.135746 6.85721 -0.239533 9.03482 0.149837 11.1427C0.17002 11.2517 0.216081 11.3542 0.284149 11.4417C0.352216 11.5292 0.440299 11.5991 0.540988 11.6454C0.631728 11.6879 0.730719 11.7097 0.83089 11.7095C0.9524 11.7095 1.07178 11.6776 1.17704 11.6169L6.577 8.4972ZM5.53855 2.7156V7.49768L1.39512 9.88872C1.38473 9.75805 1.38473 9.62652 1.38473 9.49844C1.38596 8.09511 1.7744 6.71933 2.5073 5.52258C3.24019 4.32583 4.2891 3.35452 5.53855 2.7156ZM18 9.49844C18.0007 11.4742 17.3512 13.3953 16.1517 14.9653C14.9522 16.5353 13.2695 17.667 11.363 18.1858C9.45656 18.7045 7.43238 18.5815 5.60278 17.8357C3.77318 17.0899 2.23985 15.7627 1.23935 14.059C1.19271 13.9803 1.16213 13.8931 1.14937 13.8025C1.13662 13.712 1.14194 13.6197 1.16503 13.5312C1.18813 13.4427 1.22853 13.3597 1.28392 13.2869C1.33931 13.2141 1.40857 13.1529 1.48771 13.1071L8.30776 9.13758V1.19081C8.30776 1.0072 8.3807 0.831107 8.51053 0.701275C8.64036 0.571443 8.81645 0.498505 9.00006 0.498505C10.5706 0.499306 12.1136 0.910887 13.4759 1.69239C14.8383 2.47388 15.9725 3.59812 16.766 4.95347C16.7755 4.96732 16.7841 4.98116 16.7928 4.99588C16.8014 5.01059 16.8101 5.02789 16.8179 5.04347C17.5944 6.39966 18.002 7.93567 18 9.49844Z" fill="black"/>
</svg>
