<svg width="18" height="19" viewBox="0 0 18 19" fill="none" xmlns="http://www.w3.org/2000/svg">
<path d="M5.25 7.93531L9.75 12.4353V18.125C9.75 18.2245 9.71049 18.3198 9.64017 18.3902C9.56984 18.4605 9.47446 18.5 9.375 18.5H1.5C1.10218 18.5 0.720644 18.342 0.43934 18.0607C0.158035 17.7794 0 17.3978 0 17V2C0 1.60218 0.158035 1.22064 0.43934 0.93934C0.720644 0.658035 1.10218 0.5 1.5 0.5H3.375C3.47446 0.5 3.56984 0.539509 3.64017 0.609835C3.71049 0.680161 3.75 0.775544 3.75 0.875V11.8794C3.24959 12.0563 2.82783 12.4044 2.55928 12.8622C2.29072 13.32 2.19265 13.8581 2.2824 14.3812C2.37216 14.9043 2.64395 15.3788 3.04976 15.721C3.45556 16.0631 3.96923 16.2507 4.5 16.2507C5.03077 16.2507 5.54444 16.0631 5.95024 15.721C6.35605 15.3788 6.62784 14.9043 6.7176 14.3812C6.80735 13.8581 6.70928 13.32 6.44072 12.8622C6.17217 12.4044 5.75041 12.0563 5.25 11.8794V7.93531ZM4.5 14.75C4.64834 14.75 4.79334 14.706 4.91668 14.6236C5.04001 14.5412 5.13614 14.4241 5.19291 14.287C5.24968 14.15 5.26453 13.9992 5.23559 13.8537C5.20665 13.7082 5.13522 13.5746 5.03033 13.4697C4.92544 13.3648 4.7918 13.2933 4.64632 13.2644C4.50083 13.2355 4.35003 13.2503 4.21299 13.3071C4.07594 13.3639 3.95881 13.46 3.8764 13.5833C3.79399 13.7067 3.75 13.8517 3.75 14C3.75 14.1989 3.82902 14.3897 3.96967 14.5303C4.11032 14.671 4.30109 14.75 4.5 14.75ZM14.25 7.25C14.25 7.10166 14.206 6.95666 14.1236 6.83332C14.0412 6.70999 13.9241 6.61386 13.787 6.55709C13.65 6.50032 13.4992 6.48547 13.3537 6.51441C13.2082 6.54335 13.0746 6.61478 12.9697 6.71967C12.8648 6.82456 12.7933 6.9582 12.7644 7.10368C12.7355 7.24917 12.7503 7.39997 12.8071 7.53701C12.8639 7.67406 12.96 7.79119 13.0833 7.8736C13.2067 7.95601 13.3517 8 13.5 8C13.6989 8 13.8897 7.92098 14.0303 7.78033C14.171 7.63968 14.25 7.44891 14.25 7.25ZM16.5 0.5H11.625C11.5255 0.5 11.4302 0.539509 11.3598 0.609835C11.2895 0.680161 11.25 0.775544 11.25 0.875V3.93969L12.5306 5.22031C13.0096 4.99151 13.554 4.93939 14.0676 5.07317C14.5813 5.20695 15.0311 5.51802 15.3376 5.95139C15.644 6.38475 15.7874 6.91252 15.7424 7.44139C15.6974 7.97027 15.4668 8.4662 15.0915 8.84152C14.7162 9.21684 14.2203 9.44739 13.6914 9.49242C13.1625 9.53745 12.6348 9.39405 12.2014 9.08757C11.768 8.7811 11.457 8.33128 11.3232 7.81763C11.1894 7.30398 11.2415 6.75957 11.4703 6.28063L9.97031 4.78063C9.90052 4.711 9.84513 4.6283 9.80733 4.53725C9.76953 4.4462 9.75005 4.34859 9.75 4.25V0.875C9.75 0.775544 9.71049 0.680161 9.64017 0.609835C9.56984 0.539509 9.47446 0.5 9.375 0.5H5.625C5.52554 0.5 5.43016 0.539509 5.35983 0.609835C5.28951 0.680161 5.25 0.775544 5.25 0.875V5.81469L11.0306 11.5944C11.1003 11.6641 11.1555 11.7468 11.1931 11.8379C11.2307 11.9289 11.2501 12.0265 11.25 12.125V18.125C11.25 18.2245 11.2895 18.3198 11.3598 18.3902C11.4302 18.4605 11.5255 18.5 11.625 18.5H16.5C16.8978 18.5 17.2794 18.342 17.5607 18.0607C17.842 17.7794 18 17.3978 18 17V2C18 1.60218 17.842 1.22064 17.5607 0.93934C17.2794 0.658035 16.8978 0.5 16.5 0.5Z" fill="black"/>
</svg>
