<svg width="18" height="13" viewBox="0 0 18 13" fill="none" xmlns="http://www.w3.org/2000/svg">
<path d="M6.67859 2.51008L2.18522 6.5L6.67859 10.4899C6.85175 10.6438 6.95667 10.8602 6.97028 11.0915C6.98388 11.3228 6.90506 11.55 6.75114 11.7232C6.59722 11.8963 6.38082 12.0012 6.14954 12.0148C5.91826 12.0285 5.69105 11.9496 5.51789 11.7957L0.294728 7.1529C0.202098 7.0712 0.127911 6.97074 0.0770958 6.85817C0.0262805 6.7456 0 6.62351 0 6.5C0 6.37649 0.0262805 6.2544 0.0770958 6.14183C0.127911 6.02926 0.202098 5.9288 0.294728 5.8471L5.51789 1.20429C5.69105 1.05037 5.91826 0.971547 6.14954 0.985151C6.38082 0.998756 6.59722 1.10368 6.75114 1.27684C6.90506 1.45 6.98388 1.67721 6.97028 1.90848C6.95667 2.13976 6.85175 2.35617 6.67859 2.51008ZM17.7053 5.8471L12.4821 1.20429C12.3964 1.12808 12.2965 1.0695 12.1881 1.0319C12.0797 0.994301 11.965 0.978415 11.8505 0.985151C11.7359 0.991888 11.6239 1.02111 11.5207 1.07116C11.4174 1.12121 11.3251 1.1911 11.2489 1.27684C11.1726 1.36258 11.1141 1.46249 11.0765 1.57087C11.0389 1.67924 11.023 1.79397 11.0297 1.90848C11.0365 2.023 11.0657 2.13507 11.1157 2.23829C11.1658 2.34152 11.2357 2.43387 11.3214 2.51008L15.8126 6.5L11.3214 10.4899C11.2357 10.5661 11.1658 10.6585 11.1157 10.7617C11.0657 10.8649 11.0365 10.977 11.0297 11.0915C11.023 11.206 11.0389 11.3208 11.0765 11.4291C11.1141 11.5375 11.1726 11.6374 11.2489 11.7232C11.3251 11.8089 11.4174 11.8788 11.5207 11.9288C11.6239 11.9789 11.7359 12.0081 11.8505 12.0148C11.965 12.0216 12.0797 12.0057 12.1881 11.9681C12.2965 11.9305 12.3964 11.8719 12.4821 11.7957L17.7053 7.1529C17.7979 7.0712 17.8721 6.97074 17.9229 6.85817C17.9737 6.7456 18 6.62351 18 6.5C18 6.37649 17.9737 6.2544 17.9229 6.14183C17.8721 6.02926 17.7979 5.9288 17.7053 5.8471Z" fill="black"/>
</svg>
