<svg width="11" height="18" viewBox="0 0 11 18" fill="none" xmlns="http://www.w3.org/2000/svg">
<path d="M5.58001 7.9C3.31001 7.31 2.58001 6.7 2.58001 5.75C2.58001 4.66 3.59001 3.9 5.28001 3.9C7.06001 3.9 7.72001 4.75 7.78001 6H9.99001C9.92001 4.28 8.87001 2.7 6.78001 2.19V0H3.78001V2.16C1.84001 2.58 0.280006 3.84 0.280006 5.77C0.280006 8.08 2.19001 9.23 4.98001 9.9C7.48001 10.5 7.98001 11.38 7.98001 12.31C7.98001 13 7.49001 14.1 5.28001 14.1C3.22001 14.1 2.41001 13.18 2.30001 12H0.100006C0.220006 14.19 1.86001 15.42 3.78001 15.83V18H6.78001V15.85C8.73001 15.48 10.28 14.35 10.28 12.3C10.28 9.46 7.85001 8.49 5.58001 7.9Z" fill="#767676"/>
</svg>
