<svg width="21" height="17" viewBox="0 0 21 17" fill="none" xmlns="http://www.w3.org/2000/svg">
<path d="M6 17L4.6 15.6L6.175 13.95C4.425 13.75 2.95833 12.9917 1.775 11.675C0.591667 10.3583 0 8.8 0 7C0 5.05 0.679167 3.39583 2.0375 2.0375C3.39583 0.679167 5.05 0 7 0H10V2H7C5.61667 2 4.4375 2.4875 3.4625 3.4625C2.4875 4.4375 2 5.61667 2 7C2 8.23333 2.3875 9.3 3.1625 10.2C3.9375 11.1 4.90833 11.6667 6.075 11.9L4.6 10.425L6 9L10 13L6 17ZM12 16V9H21V16H12ZM12 7V0H21V7H12ZM14 5H19V2H14V5Z" fill="#767676"/>
</svg>
