<svg width="18" height="13" viewBox="0 0 18 13" fill="none" xmlns="http://www.w3.org/2000/svg">
<path d="M8.40786 12.3881C8.37678 12.5124 8.30503 12.6228 8.20401 12.7017C8.10299 12.7806 7.9785 12.8235 7.85033 12.8235C7.8019 12.8237 7.75364 12.8179 7.70664 12.8062L5.40756 12.2315C5.34355 12.2154 5.28279 12.1884 5.22795 12.1517L3.50364 11.0022C3.37683 10.9176 3.28882 10.7861 3.25897 10.6366C3.22913 10.4871 3.25989 10.3319 3.3445 10.205C3.4291 10.0782 3.56061 9.99023 3.7101 9.96039C3.8596 9.93054 4.01482 9.96131 4.14163 10.0459L5.7826 11.1401L7.9854 11.6912C8.059 11.709 8.12835 11.7412 8.18946 11.786C8.25057 11.8307 8.30224 11.8871 8.3415 11.9518C8.38075 12.0166 8.40683 12.0885 8.41821 12.1633C8.4296 12.2382 8.42608 12.3146 8.40786 12.3881ZM17.9411 5.45781C17.894 5.60106 17.8189 5.73354 17.7202 5.84761C17.6216 5.96168 17.5013 6.05507 17.3664 6.12239L15.665 6.97305L11.7078 10.9311C11.6375 11.0012 11.5503 11.052 11.4546 11.0784C11.3589 11.1049 11.258 11.1061 11.1617 11.0819L6.56357 9.93239C6.49364 9.91484 6.42761 9.88438 6.36886 9.84258L2.37996 6.9946L0.635535 6.12239C0.362904 5.9861 0.15556 5.74712 0.0590932 5.45799C-0.0373732 5.16886 -0.0150639 4.85325 0.121116 4.58057L1.90649 1.01053C2.04278 0.7379 2.28176 0.530556 2.57089 0.43409C2.86002 0.337623 3.17563 0.359932 3.44831 0.496112L5.03324 1.28642L8.84109 0.198669C8.94439 0.169121 9.05391 0.169121 9.15721 0.198669L12.9651 1.28642L14.55 0.496112C14.8227 0.359932 15.1383 0.337623 15.4274 0.43409C15.7165 0.530556 15.9555 0.7379 16.0918 1.01053L17.8772 4.58057C17.9453 4.71531 17.986 4.86222 17.997 5.01279C18.008 5.16336 17.989 5.31462 17.9411 5.45781ZM13.3106 7.69798L11.3198 6.10371C9.91591 7.25325 8.13341 7.40484 6.65625 6.46294C6.51094 6.37051 6.38826 6.24662 6.29727 6.10041C6.20627 5.9542 6.14929 5.78942 6.13053 5.61823C6.11177 5.44705 6.13171 5.27383 6.18888 5.11139C6.24605 4.94895 6.33899 4.80142 6.46083 4.67972L6.46657 4.67397L9.6896 1.54794L8.99987 1.35108L5.37739 2.38639L3.41095 6.31853L6.94579 8.84392L11.1229 9.88785L13.3106 7.69798ZM14.6211 6.3875L12.6683 2.47763H10.3822L7.27556 5.49517C8.18514 6.07641 9.61128 6.23662 10.8909 4.94699C10.9908 4.84626 11.1245 4.78605 11.2661 4.77796C11.4078 4.76987 11.5474 4.81446 11.6582 4.90316L14.1304 6.88396L14.6211 6.3875Z" fill="black"/>
</svg>
