<?xml version="1.0" encoding="utf-8"?>
<!-- Generator: Adobe Illustrator 26.4.1, SVG Export Plug-In . SVG Version: 6.00 Build 0)  -->
<svg version="1.1" id="Layer_1" xmlns="http://www.w3.org/2000/svg" xmlns:xlink="http://www.w3.org/1999/xlink" x="0px" y="0px"
	 viewBox="0 0 591 430" style="enable-background:new 0 0 591 430;" xml:space="preserve">
<style type="text/css">
	.st0{fill:#E8363E;}
	.st1{fill:#0B282E;}
</style>
<g>
	<path class="st0" d="M296,46c-12.6,0-25.2,1.4-38.1,4.4c-23.5,5.5-19.7-6.2-38.4,9.2c-0.5,0.4-9.7,6.7-10.2,7.1
		c-2.4,1.5-7.5,3.2-9.9,1.3c-2-1.6-10,14.5-9.9,12.4c0.1-2.5-12.6,15.6-17.2,13.3c-18.4,14.1-28.2,33.8-41.5,52.6
		c-11.7,16.5-19.8,34.2-22.1,54.3c-1.5,13.5-3.1,27-1.8,40.7c10.7-1.6,21.4-2.8,32.2-1c16.5,2.6,31.3,9.2,44.3,19.6
		c9.4,7.5,17.2,16.2,22.9,27c2.9,5.6,4,11.5,5.9,17.3c1.2,3.7,2.8,7.3,3.1,11.4c0.1,1.9,1.4,3.1,3.8,2.9c18.7-1.6,37.5-1.7,56.3-2.2
		c7.2-0.2,14.3-0.1,21.5,0 M293.4,276.3c-3.7,0.7-6.6,5.2-10.2,7.7c-7.6,5.2-15.8,8.4-25.2,6.3c-5.7-1.3-10.9-3.9-15.5-7.4
		c-7.1-5.3-11.3-12.6-13.1-21.1c-1.3-6.1,3-11.5,8.9-12.2c5.7-0.7,10.2,2.6,10.6,7.9c1,12.4,12.9,18.4,23.4,11.7
		c9.7-6.1,12.9-15,11.9-26.1c-0.2-2.4-0.8-3.8-2.7-5.3c-8.3-6.8-12.3-12.5-16.7-22.9c-4-3.5,3.9,2.1,5.8-2c2.4-5.3,8.5-1.9,15.4-1.8
		 M199.3,226.4c-19.4,0.2-36.9-16.7-37-36.2c-0.1-20.6,16.3-37.1,39-37.1c20,0,34.6,13.9,35.1,35.8
		C236.9,209.2,219.9,226.3,199.3,226.4z"/>
	<ellipse class="st0" cx="129.3" cy="323.8" rx="62.5" ry="59.3"/>
	<ellipse class="st0" cx="462.5" cy="363.8" rx="62.5" ry="59.3"/>
	<path class="st0" d="M163.3,31.8c12.6,4.7,22.3,14.5,34.3,20.7c1.6,0.8,3.8,1.3,3.7,3.5c0,1.9-2.2,1.7-3.4,2.4
		c-10.1,6.4-20.5,12.2-29.1,20.7c-2.2,2.2-5.1,3.7-7.7,5.5c-10.8,7.6-19.9,16.9-28.7,26.7c-1.7,1.9-20.5,34.3-23.3,35
		c-1.8-22.6-3.6-67.7-2-90.3c0.2-3.1,8.9-40.8,12.1-40.6c5,0.4,17.7,5.8,22.7,5.9C148.4,21.5,160.6,38.1,163.3,31.8z"/>
	<path class="st0" d="M472.4,18.2c0.1,0.1,3.9-1.3,4.1-1.3c9.1-1.6,0,23,0.8,32.6c1.7,22.1,0.6,44.3,0.9,66.4
		c0.1,5.2,1.3,10.5-0.5,15.8c-2.6-0.4-3.5-2.4-4.4-4.3c-3.7-7.6-9.3-13.9-14.8-19.9c-7.8-8.6-16.3-16.7-26-23.5
		c-9.1-6.3-40.7-24.8-49.6-31.5c10.9-6.5,25.7-16.4,36.9-22.1c5.4-2.7,15.6-2.5,21.7-2.5c3.1,0,11.9-5.9,14.7-7.9
		c0.1,0,13.4-1.1,13.4-1.1C469.7,18.6,472.2,18.5,472.4,18.2z"/>
	<path class="st0" d="M484.3,241.3c-10.7-1.6-21.4-2.8-32.2-1c-16.5,2.6-31.3,9.2-44.3,19.6c-9.4,7.5-17.2,16.2-22.9,27
		c-2.9,5.6-4,11.5-5.9,17.3c-1.2,3.7-2.8,7.3-3.1,11.4c-0.1,1.9-1.4,3.1-3.8,2.9c-18.7-1.6-37.5-1.7-56.3-2.2
		c-30.1-0.7-60.2,2.3-90.4,1.6c-0.9,0,30.2-11,23.2-16.8c-23-18.9-89.5-73.5-115.2-102.8c-11.2-12.7-35.9-4.1-34.4-8.2
		c6.1-16.7,14.9-37.6,26.3-51.3c15.3-18.5,34.2-42.6,54.4-55.5c15-9.6,52.8-27.3,69.9-31.4c28.4-6.7,55.4-7.9,83.6-1.2
		c23.5,5.5,19.7-6.2,38.4,9.2c0.5,0.4,9.7,6.7,10.2,7.1c2.4,1.5,7.5,3.2,9.9,1.3c2-1.6,10,14.5,9.9,12.4
		c-0.1-2.5,12.6,15.6,17.2,13.3c18.4,14.1,28.2,33.8,41.5,52.6c11.7,16.5,19.8,34.2,22.1,54.3C484.1,214.1,485.7,227.7,484.3,241.3z
		 M326.1,214.7c4-3.5-3.9,2.1-5.8-2c-2.4-5.3-8.5-1.9-15.4-1.8c-14.1,0.1-7.6,1.2-21.7,1.5c-6,0.1-5-5.2-8.1-0.3
		c-1.9,3-10.7-4.4-7.6-1.2c3.5,10.8,7.7,17.5,15.4,25.4c1.4,1.4,3.1,2.5,3.2,4.8c0.3,4.3,0.8,8.6,0.9,13
		c0.1,10.4-15.1,20.3-24.8,16.4c-6.4-2.6-10.1-7.1-11.5-13.8c-1-4.8-4.6-6.3-8.9-6.3c-4.3,0-6.4,2.7-7.7,6.5c-1.7,5,0,9.6,2.2,13.7
		c11.8,21,32,25.8,52.1,12.8c3.4-2.2,5.8-7.7,9.3-7.1c3.7,0.7,6.6,5.2,10.2,7.7c7.6,5.2,15.8,8.4,25.2,6.3
		c5.7-1.3,10.9-3.9,15.5-7.4c7.1-5.3,11.3-12.6,13.1-21.1c1.3-6.1-3-11.5-8.9-12.2c-5.7-0.7-10.2,2.6-10.6,7.9
		c-1,12.4-12.9,18.4-23.4,11.7c-9.7-6.1-12.9-15-11.9-26.1c0.2-2.4,0.8-3.8,2.7-5.3C317.7,230.8,321.7,225.2,326.1,214.7z
		 M391.8,226.4c19.4,0.2,36.9-16.7,37-36.2c0.1-20.6-16.3-37.1-39-37.1c-20,0-34.6,13.9-35.1,35.8
		C354.2,209.2,371.2,226.3,391.8,226.4z M201.9,226.2c19.9,0.3,37.3-16.5,38.1-35.9c0.7-18-15.6-36.5-38.5-36.9
		c-20-0.4-36.1,15.4-36.4,35.5C164.7,208.6,181.9,225.9,201.9,226.2z"/>
	<path class="st1" d="M484.3,241.3c1.3-13.6-0.2-27.2-1.8-40.7c-2.3-20.1-10.5-37.9-22.1-54.3c-13.3-18.8-28-36.3-46.4-50.3
		c-38.7-33.4-84.3-44.8-134.2-41.3c-13.9,1-27.5,4.4-40.9,8.6c-14.4,4.5-28.4,9.9-41,17.9c-29.2,18.5-53.5,42.1-71.8,71.8
		c-14,22.8-18,47.9-19,74c-0.1,2.7-0.3,5.4,0.1,8c1,5.6-1.1,8-6.7,8.4c-4.1,0.3-8,2-12.6,5.8c1.4-5.3-0.9-9.1-0.7-13.3
		c0.6-11.2,0.1-22.5,1.8-33.6c0.3-2.1,0.5-4.3,1.1-6.4c4.8-16.2,1.9-32.8,2.5-49.1c0.8-19.6,0.6-39.4-0.8-58.9
		c-0.8-12.1,0.6-24,0.6-36c0-13.3,2.4-26.5,3.9-39.8c0.2-2.2-0.5-4.3,1.1-6.5c3.8-5.2,8.4-7.1,14.7-5.8C122.6,2,132.5,6,142.6,9.2
		c22.6,7.2,44.7,15.9,65.9,26.5c6.4,3.2,13.5,5,19.5,9.2c1.8,1.3,4.4,0.8,6.7,0.1c37.5-12.3,75.5-12.9,113.8-4.5
		c1.6,0.4,3.6,0.4,4.8,1.3c6.2,5.1,11.8,1.9,17.7-0.7c20.8-9.4,41.6-19.2,63.1-27.1c15.3-5.6,31-10.2,46.8-14.5
		c7.6-2.1,12.8,1.7,13.7,9.9c0.9,7.7,1.1,15.5,2.2,23.2c5,35.9,2.8,72,2.7,108c-0.1,22,0.5,43.7,4.5,65.4
		c2.3,12.7,0.6,25.6-0.5,38.4c-0.2,2.5-0.7,3.3-3.6,2.2C494.9,244.3,489.6,243,484.3,241.3z M160.5,36.5c-0.3-0.2-0.5-0.4-0.8-0.5
		c-13.5-5.7-27.7-9-41.6-13.5c-3-1-2.7,1.7-2.9,3.3c-0.8,7.1-1.7,14.2-2.2,21.3c-2.1,29.5-1.1,59.1-1.2,88.7c0,0.9-0.4,2,1.4,2.8
		c4.4-7.3,10.7-13.6,13.3-22.2c2.8-0.7,4.1-3.2,5.8-5.1c8.8-9.8,17.9-19.1,28.7-26.7c2.6-1.8,5.5-3.3,7.7-5.5
		c8.6-8.5,19.1-14.3,29.1-20.7c1.2-0.8,3.4-0.6,3.4-2.4c0.1-2.2-2.2-2.7-3.7-3.5C185.6,46.4,173.1,41.2,160.5,36.5z M467,41
		c3.6-5,8.8-9.2,8.7-16.3c-0.1-2.9-0.9-3.9-3.9-3C445.6,29.9,419.7,39,395,51.1c-1.5,0.7-2.9,1.6-4.2,2.6c-0.9,0.7-1.2,2,0,2.4
		c5.4,1.8,9.1,6.8,14.8,7.9c8.9,6.7,17.6,13.6,26.7,20c9.7,6.7,18.2,14.9,26,23.5c5.5,6,11.1,12.3,14.8,19.9
		c0.9,1.9,1.9,3.9,4.4,4.3c1.8-5.3,0.6-10.6,0.5-15.8c-0.3-22.1,0.8-44.3-0.9-66.4c-0.7-9.6-0.6-9.9-9.8-8.2
		C467.4,41.2,467.2,41,467,41z"/>
	<path class="st1" d="M130.6,391.7c-24.8-0.3-44.6-6.1-60.4-20.9c-11.8-11.2-17.4-25.8-18.1-42.3c-0.9-21.6,7.9-38.7,23-53.3
		c22.8-22.1,50-25,78.6-16.2c26.3,8.1,43.2,26.5,48.6,53.8c6.3,32.4-14.4,64.8-42.3,72.8C149.3,388.6,138.7,392.1,130.6,391.7z
		 M175.6,300.3c-1.4-4.4-4.1-8-7.4-11.1c-26.7-25.4-69.3-19.1-88.2,9.2c-7,10.5-10.5,22.1-8.8,34.5c1.5,10.9,7.1,20.1,15.7,27.3
		c0.7,0.6,1.4,1.7,2.5,1.1c1-0.6,0.8-1.7,0.9-2.7c0.1-1.2,0.1-2.3,0.1-3.5c0.2-6.9,0.2-13.8,0.5-20.8c0.3-6.2,3-8.4,9.2-8.2
		c3.3,0.1,6,1.7,9,2.6c0.1,10.1,0.1,20.3,0.2,30.4c0.1,10,1.9,11.8,12.2,12.3c1.3,0.1,2.7,0,4,0c5,1.3,9.4-1.4,14.1-2.1
		c3.1-0.5,4.2-2.5,4.2-5.7c0-9.5,0.4-18.9,0.5-28.4c0.1-4.6,2.5-7.5,6.6-8.9c4.2-1.4,8.7,1,10.8,5.1c0.6,1.2,1,2.4,1.5,3.7
		c-0.3,8-0.6,15.9-0.9,23.9c0,1.5-0.8,3.5,1.5,4.2c2.5-0.4,4-2.1,5.6-3.9c4.4-4.9,6.7-10.9,9.5-16.8
		C185.9,327.7,183.4,313.9,175.6,300.3z"/>
	<path class="st1" d="M468.4,431.4c-22.1-0.6-39.3-5.8-54.5-17.1c-20.8-15.5-29.6-50.5-18.7-74.2c15.6-34.4,47.8-51.3,85.8-44.3
		c37.8,7,62.8,42.5,59.7,76.3c-1.7,19.2-10.5,34.5-26.9,45.2C499,427.1,482.2,429.4,468.4,431.4z M448.8,368.5
		c0.1,1.8,0.2,3.6,0.2,5.4c0.2,10.1,0.3,20.2,0.5,30.3c0,2.4,0.4,4.8,3,5.7c3.7,1.3,7.3,3.2,11.4,2.5c5.2,0.5,9.8-1.4,14.4-3.2
		c2.6-1,4-3.1,4.2-6.2c0.3-4.1,0.5-8.2,0.1-12.4c-0.5-5.1-0.7-10.3-0.4-15.4c0.2-4,2.5-7.4,6.6-8.5c5.5-1.5,9.6,1,12.6,5.6
		c0.2,2,0.5,4,0.5,5.9c0,6.8-0.2,13.7-0.1,20.5c0,1.2-1.2,3.7,2,3.1c6.3-3,7.9-9.5,11-14.9c12.3-21.7,3.4-42.3-8.3-54.7
		c-0.2-2.2-1.7-3.6-3.2-4.8c-5.8-4.6-11.7-9.1-18.9-11.3c-18.5-5.6-36.4-4.6-52.4,6.9c-27.2,19.4-30.8,55.8-5.1,77.5
		c1.3,1.1,2.7,3.4,4.5,2.4c1.7-0.9,0.4-3.3,0.5-5.1c0-0.2,0-0.3,0-0.5c0.9-7.3,0.1-14.6,0.3-21.8c0.2-5.9,3.6-9.2,9.3-9.3
		C444,366.3,446.4,367.2,448.8,368.5z"/>
	<path class="st1" d="M549.7,197.1c3.7,0,7.3-0.1,11,0c3.3,0.2,5.4,2.2,6.8,4.9c1.1,2.1,0,3.9-1.3,5.5c-1,1.2-2.3,1.8-3.9,1.8
		c-7.8,0.2-15.6,0.3-23.3-0.3c-3.6-0.3-6.3-3.1-6.2-6.2c0.1-3.5,2.5-5.8,6.6-6c1.7-0.1,3.4,0,5.2,0c1.7,0,3.4,0,5.2,0
		C549.7,196.9,549.7,197,549.7,197.1z"/>
	<path class="st1" d="M550.2,191.5c-4.8,0.2-9.6,0.4-14.4,0.4c-5.7,0-9.9-2.1-10.3-4.9c-0.4-2.7,4.4-6.6,9.3-6.8
		c10.9-0.6,21.9-1.1,32.8-0.7c4.4,0.1,7.8,3,7.7,5.9c-0.1,2.7-4.3,5.8-8.7,5.9c-5.5,0.2-11,0-16.4,0
		C550.2,191.4,550.2,191.5,550.2,191.5z"/>
	<path class="st1" d="M550.2,226.6c-4.8,0.2-9.6,0.4-14.4,0.4c-5.7,0-9.9-2.1-10.3-4.9c-0.4-2.7,4.4-6.6,9.3-6.8
		c10.9-0.6,21.9-1.1,32.8-0.7c4.4,0.1,7.8,3,7.7,5.9c-0.1,2.7-4.3,5.8-8.7,5.9c-5.5,0.2-11,0-16.4,0
		C550.2,226.5,550.2,226.5,550.2,226.6z"/>
	<path class="st1" d="M330.9,213.9c-4.4,10.4-13.2,17-21.5,23.8c-1.9,1.6-2.4,3-2.7,5.3c-1,11.1,2.2,19.9,11.9,26.1
		c10.5,6.7,22.4,0.7,23.4-11.7c0.4-5.3,4.9-8.6,10.6-7.9c5.9,0.7,10.2,6.1,8.9,12.2c-1.8,8.5-6,15.8-13.1,21.1
		c-4.6,3.5-9.8,6.1-15.5,7.4c-9.4,2.1-17.6-1.1-25.2-6.3c-3.5-2.4-6.4-7-10.2-7.7c-3.5-0.6-5.9,4.9-9.3,7.1
		c-20.1,13-40.4,8.2-52.1-12.8c-2.3-4-3.9-8.6-2.2-13.7c1.3-3.9,3.4-6.5,7.7-6.5s7.9,1.5,8.9,6.3c1.4,6.7,5.1,11.2,11.5,13.8
		c9.7,3.9,24.9-6,24.8-16.4c-0.1-4.3-0.6-8.6-0.9-13c-0.1-2.3-1.8-3.4-3.2-4.8c-7.7-7.9-15.3-15.8-18.8-26.6
		c19.8-1.8,39.6-1.5,59.4-1.4C327.2,208.3,329.5,210.6,330.9,213.9z"/>
	<path class="st1" d="M391.8,226.4c-20.5-0.1-37.5-17.2-37.1-37.5c0.5-21.9,15-35.7,35.1-35.8c22.7,0,39.1,16.5,39,37.1
		C428.7,209.7,411.2,226.6,391.8,226.4z M396,176.2c0.1-7.2-5.4-13.2-12.4-13.4c-7.6-0.3-15.9,6.8-15.9,13.5
		c0,7.8,5.9,13.2,14.4,13.2C390.7,189.5,395.9,184.5,396,176.2z"/>
	<path class="st1" d="M201.9,226.2c-20-0.3-37.2-17.6-36.8-37.2c0.4-20.2,16.5-35.9,36.4-35.5c22.8,0.4,39.1,18.9,38.5,36.9
		C239.2,209.7,221.8,226.5,201.9,226.2z M193,189.4c9.7,0,15.5-5.1,15.4-13.6c0-6.8-5.8-12.5-12.7-12.5c-8.7,0-16.1,6.5-16,14.3
		C179.8,184.4,185.4,189.4,193,189.4z"/>
	<g>
		<path class="st1" d="M41.6,197.1c-3.7,0-7.3-0.1-11,0c-3.3,0.2-5.4,2.2-6.8,4.9c-1.1,2.1,0,3.9,1.3,5.5c1,1.2,2.3,1.8,3.9,1.8
			c7.8,0.2,15.6,0.3,23.3-0.3c3.6-0.3,6.3-3.1,6.2-6.2c-0.1-3.5-2.5-5.8-6.6-6c-1.7-0.1-3.4,0-5.2,0c-1.7,0-3.4,0-5.2,0
			C41.6,196.9,41.6,197,41.6,197.1z"/>
		<path class="st1" d="M41.2,191.5c4.8,0.2,9.6,0.4,14.4,0.4c5.7,0,9.9-2.1,10.3-4.9c0.4-2.7-4.4-6.6-9.3-6.8
			c-10.9-0.6-21.9-1.1-32.8-0.7c-4.4,0.1-7.8,3-7.7,5.9c0.1,2.7,4.3,5.8,8.7,5.9c5.5,0.2,11,0,16.4,0
			C41.2,191.4,41.2,191.5,41.2,191.5z"/>
		<path class="st1" d="M41.2,226.6c4.8,0.2,9.6,0.4,14.4,0.4c5.7,0,9.9-2.1,10.3-4.9c0.4-2.7-4.4-6.6-9.3-6.8
			c-10.9-0.6-21.9-1.1-32.8-0.7c-4.4,0.1-7.8,3-7.7,5.9c0.1,2.7,4.3,5.8,8.7,5.9c5.5,0.2,11,0,16.4,0
			C41.2,226.5,41.2,226.5,41.2,226.6z"/>
	</g>
</g>
</svg>
