<svg width="18" height="18" viewBox="0 0 18 18" fill="none" xmlns="http://www.w3.org/2000/svg">
<path d="M15.3253 2.84407L18 0V7.0272H11.3913L13.9667 4.28872C12.7006 2.98752 10.9247 2.1792 8.95652 2.1792C5.10522 2.1792 1.99034 5.27414 1.99034 9.1008C1.99034 12.9275 5.10522 16.0224 8.95652 16.0224C12.7691 16.0224 15.86 12.9894 15.9218 9.216H17.9123C17.8502 14.0773 13.8638 18 8.95652 18C4.00058 18 0 14.0151 0 9.1008C0 4.18646 4.01053 0.2016 8.95652 0.2016C11.4478 0.2016 13.7017 1.21257 15.3253 2.84407Z" fill="#767676"/>
<path d="M9.45411 4.848H7.96135V10.0896L12.2246 12.6773L12.971 11.4611L9.45411 9.348V4.848Z" fill="#767676"/>
</svg>
