<svg width="18" height="15" viewBox="0 0 18 15" fill="none" xmlns="http://www.w3.org/2000/svg">
<path d="M16.7143 3H12.8571V2.35714C12.8571 1.84566 12.654 1.35512 12.2923 0.993439C11.9306 0.631762 11.4401 0.428574 10.9286 0.428574H7.07143C6.55994 0.428574 6.0694 0.631762 5.70772 0.993439C5.34605 1.35512 5.14286 1.84566 5.14286 2.35714V3H1.28571C0.944722 3 0.617695 3.13546 0.376577 3.37658C0.135459 3.6177 0 3.94472 0 4.28572V6.53572C0 6.62096 0.0338648 6.70272 0.0941443 6.763C0.154424 6.82328 0.23618 6.85714 0.321429 6.85714H3.85714V5.59313C3.8545 5.42695 3.91498 5.26595 4.02638 5.14262C4.13779 5.01928 4.29182 4.94279 4.45741 4.92857C4.54535 4.92273 4.63354 4.93504 4.71652 4.96472C4.7995 4.9944 4.87549 5.04083 4.93977 5.10112C5.00405 5.1614 5.05525 5.23426 5.09019 5.31517C5.12512 5.39608 5.14305 5.4833 5.14286 5.57143V6.85714H12.8571V5.59313C12.8545 5.42695 12.915 5.26595 13.0264 5.14262C13.1378 5.01928 13.2918 4.94279 13.4574 4.92857C13.5453 4.92273 13.6335 4.93504 13.7165 4.96472C13.7995 4.9944 13.8755 5.04083 13.9398 5.10112C14.0041 5.1614 14.0552 5.23426 14.0902 5.31517C14.1251 5.39608 14.1431 5.4833 14.1429 5.57143V6.85714H17.6786C17.7638 6.85714 17.8456 6.82328 17.9059 6.763C17.9661 6.70272 18 6.62096 18 6.53572V4.28572C18 3.94472 17.8645 3.6177 17.6234 3.37658C17.3823 3.13546 17.0553 3 16.7143 3ZM11.5714 3H6.42857V2.35714C6.42857 2.18665 6.4963 2.02314 6.61686 1.90258C6.73742 1.78202 6.90093 1.71429 7.07143 1.71429H10.9286C11.0991 1.71429 11.2626 1.78202 11.3831 1.90258C11.5037 2.02314 11.5714 2.18665 11.5714 2.35714V3ZM18 8.46429V13.2857C18 13.6267 17.8645 13.9537 17.6234 14.1949C17.3823 14.436 17.0553 14.5714 16.7143 14.5714H1.28571C0.944722 14.5714 0.617695 14.436 0.376577 14.1949C0.135459 13.9537 0 13.6267 0 13.2857V8.46429C0 8.37904 0.0338648 8.29728 0.0941443 8.237C0.154424 8.17672 0.23618 8.14286 0.321429 8.14286H3.85714V9.42857C3.85695 9.5167 3.87488 9.60393 3.90981 9.68483C3.94475 9.76574 3.99595 9.8386 4.06023 9.89889C4.12451 9.95918 4.2005 10.0056 4.28348 10.0353C4.36646 10.065 4.45465 10.0773 4.54259 10.0714C4.70818 10.0572 4.86221 9.98072 4.97362 9.85738C5.08502 9.73405 5.1455 9.57305 5.14286 9.40688V8.14286H12.8571V9.42857C12.8569 9.5167 12.8749 9.60393 12.9098 9.68483C12.9448 9.76574 12.9959 9.8386 13.0602 9.89889C13.1245 9.95918 13.2005 10.0056 13.2835 10.0353C13.3665 10.065 13.4547 10.0773 13.5426 10.0714C13.7079 10.0572 13.8617 9.98096 13.9731 9.85797C14.0844 9.73498 14.1451 9.57439 14.1429 9.40848V8.14286H17.6786C17.7638 8.14286 17.8456 8.17672 17.9059 8.237C17.9661 8.29728 18 8.37904 18 8.46429Z" fill="black"/>
</svg>
