<svg width="18" height="13" viewBox="0 0 18 13" fill="none" xmlns="http://www.w3.org/2000/svg">
<path d="M17.9572 4.77265L16.9072 2.14765C16.8181 1.92543 16.6643 1.73512 16.4657 1.60139C16.2671 1.46765 16.0329 1.39667 15.7935 1.39765H13.2V0.797647C13.2 0.638517 13.1368 0.485905 13.0243 0.373383C12.9117 0.260861 12.7591 0.197647 12.6 0.197647H1.2C0.88174 0.197647 0.576516 0.324075 0.351472 0.549119C0.126428 0.774163 0 1.07939 0 1.39765V9.79765C0 10.1159 0.126428 10.4211 0.351472 10.6462C0.576516 10.8712 0.88174 10.9976 1.2 10.9976H2.475C2.60718 11.5139 2.90742 11.9715 3.32839 12.2982C3.74935 12.625 4.2671 12.8024 4.8 12.8024C5.3329 12.8024 5.85065 12.625 6.27161 12.2982C6.69258 11.9715 6.99282 11.5139 7.125 10.9976H10.875C11.0072 11.5139 11.3074 11.9715 11.7284 12.2982C12.1494 12.625 12.6671 12.8024 13.2 12.8024C13.7329 12.8024 14.2506 12.625 14.6716 12.2982C15.0926 11.9715 15.3928 11.5139 15.525 10.9976H16.8C17.1183 10.9976 17.4235 10.8712 17.6485 10.6462C17.8736 10.4211 18 10.1159 18 9.79765V4.99765C18.0001 4.92062 17.9856 4.84427 17.9572 4.77265ZM4.8 11.5976C4.56266 11.5976 4.33066 11.5273 4.13332 11.3954C3.93598 11.2636 3.78217 11.0761 3.69134 10.8569C3.60052 10.6376 3.57676 10.3963 3.62306 10.1635C3.66936 9.93076 3.78365 9.71694 3.95147 9.54912C4.11929 9.3813 4.33311 9.26701 4.56589 9.22071C4.79867 9.1744 5.03995 9.19817 5.25922 9.28899C5.47849 9.37982 5.66591 9.53362 5.79776 9.73096C5.92962 9.9283 6 10.1603 6 10.3976C6 10.7159 5.87357 11.0211 5.64853 11.2462C5.42348 11.4712 5.11826 11.5976 4.8 11.5976ZM1.2 6.19765V1.39765H12V6.19765H1.2ZM13.2 11.5976C12.9627 11.5976 12.7307 11.5273 12.5333 11.3954C12.336 11.2636 12.1822 11.0761 12.0913 10.8569C12.0005 10.6376 11.9768 10.3963 12.0231 10.1635C12.0694 9.93076 12.1836 9.71694 12.3515 9.54912C12.5193 9.3813 12.7331 9.26701 12.9659 9.22071C13.1987 9.1744 13.4399 9.19817 13.6592 9.28899C13.8785 9.37982 14.0659 9.53362 14.1978 9.73096C14.3296 9.9283 14.4 10.1603 14.4 10.3976C14.4 10.7159 14.2736 11.0211 14.0485 11.2462C13.8235 11.4712 13.5183 11.5976 13.2 11.5976ZM13.2 4.39765V2.59765H15.7935L16.5135 4.39765H13.2Z" fill="black"/>
</svg>
