<?xml version="1.0" encoding="UTF-8"?>
<svg xmlns="http://www.w3.org/2000/svg" viewBox="0 0 1468 388">
  <g fill="#111827">
    <path d="M1221 152c-13.3-8.4-29.1-13.1-46.1-13.1-46.7 0-84.6 39.5-84.6 88.1s37.9 88.1 84.6 88.1c16.9 0 32.7-5.2 46.1-14.1-2 25.4-15.5 38.5-54.5 38.7-15.2.1-33.5-4.6-50.1-14.1l-21.5 39.1c23.4 13.3 52.3 19.3 78.1 19.3 59.2 0 99.4-25.9 99.4-94.4V141.1h-51L1221 152zm-39 119.5c-23.9 0-43.3-19.9-43.3-44.4s19.4-44.4 43.3-44.4c23.9 0 43.3 19.9 43.3 44.4s-19.4 44.4-43.3 44.4z"/>
    <path d="M575.1 138.9c-17.5 0-33.6 6.5-46.9 17V69.2h-49.3v243.6h48.9l.5-12.2c12.9 9.2 28.8 14.6 46.9 14.6 48.9 0 86.2-39.5 86.2-88.1s-37.3-88.2-86.3-88.2zm-5.9 134.7c-24.8 0-44.9-20.6-44.9-46s20.1-46 44.9-46c24.8 0 44.9 20.6 44.9 46s-20.1 46-44.9 46z"/>
    <path d="M1016.8 155.9c-13.3-10.5-29.4-17-46.9-17-48.9 0-86.2 39.5-86.2 88.1s37.3 88.1 86.2 88.1c18 0 34-5.4 46.9-14.6l.5 12.2h48.8V69.2h-49.3v86.7zm-41 117.7c-24.8 0-44.9-20.6-44.9-46s20.1-46 44.9-46c24.8 0 44.9 20.6 44.9 46s-20.1 46-44.9 46z"/>
    <path d="M267.8 141.2h49.3v171.6h-49.3z"/>
    <ellipse cx="292.5" cy="93.5" rx="26.9" ry="26.9"/>
    <circle cx="834.9" cy="93.5" r="26.9"/>
    <path d="M810.2 141.2h49.3v171.6h-49.3z"/>
    <path d="M399.8 180.3v-39.1H354v171.6h49.3s0-60.9 0-60.9c0-59.2 37.6-65.4 51.5-65.4v-45.9c-18.9.4-48.8 13.3-55 38.7z"/>
    <path d="M731.1 180.3v-41.4l-45.8 2.3v171.6h49.3s0-60.9 0-60.9c0-59.2 37.6-65.4 51.5-65.4v-45.9c-18.9.4-48.8 13.3-55 38.7z"/>
    <path d="M1468 227.2c0-49.6-38.4-89.8-85.7-89.8s-85.7 40.2-85.7 89.7c.1 49.5 40.2 89.6 89.6 89.6 26 0 51.6-8.3 70-24.9.3-.3.6-.6.9-.9l-27.6-28.4c-10.4 9.5-25.2 14.2-39.5 14.2-19.9 0-36.9-12.5-43.5-30.1H1466c1.3-6.4 2-12.9 2-19.5zm-121.6-18.5c3.4-17.4 18.2-30.5 35.9-30.5s32.6 13.1 35.9 30.5h-71.8z"/>
    <path d="M92.1 69.2 0 312.8h52.6l18.8-52.2h102.3l18.8 52.2h52.6L153.1 69.2H92.1zm-5.5 149.4 36-100.1 36 100.1H86.6z"/>
  </g>
</svg>
